<svg width="17" height="17" viewBox="0 0 17 17" fill="none" xmlns="http://www.w3.org/2000/svg">
<path d="M14.9664 5.03574L14.2039 9.21699C14.141 9.5624 13.9589 9.87479 13.6894 10.0998C13.4199 10.3248 13.08 10.4481 12.7289 10.4482H5.47891L5.75391 11.9482H12.4727C12.7693 11.9482 13.0593 12.0362 13.306 12.201C13.5527 12.3659 13.7449 12.6001 13.8585 12.8742C13.972 13.1483 14.0017 13.4499 13.9438 13.7409C13.886 14.0318 13.7431 14.2991 13.5333 14.5089C13.3235 14.7187 13.0563 14.8615 12.7653 14.9194C12.4743 14.9773 12.1727 14.9476 11.8986 14.8341C11.6245 14.7205 11.3903 14.5283 11.2255 14.2816C11.0606 14.0349 10.9727 13.7449 10.9727 13.4482C10.9727 13.2778 11.0023 13.1086 11.0602 12.9482H7.38516C7.443 13.1086 7.4726 13.2778 7.47266 13.4482C7.47311 13.6903 7.41499 13.9288 7.30327 14.1435C7.19156 14.3582 7.02955 14.5426 6.83108 14.6811C6.63262 14.8196 6.40359 14.908 6.16354 14.9388C5.92349 14.9696 5.67956 14.9419 5.45256 14.858C5.22556 14.7741 5.02223 14.6365 4.85993 14.4569C4.69764 14.2774 4.58119 14.0613 4.52054 13.827C4.45988 13.5927 4.45681 13.3472 4.5116 13.1115C4.56638 12.8757 4.6774 12.6568 4.83516 12.4732L3.10391 2.94824H1.97266C1.84005 2.94824 1.71287 2.89556 1.6191 2.8018C1.52533 2.70803 1.47266 2.58085 1.47266 2.44824C1.47266 2.31563 1.52533 2.18846 1.6191 2.09469C1.71287 2.00092 1.84005 1.94824 1.97266 1.94824H3.10391C3.33731 1.94875 3.56317 2.03089 3.74238 2.18042C3.92159 2.32995 4.04285 2.53746 4.08516 2.76699L4.39141 4.44824H14.4727C14.5457 4.44839 14.6177 4.46473 14.6836 4.49607C14.7496 4.52741 14.8077 4.57298 14.8539 4.62949C14.9023 4.68423 14.9375 4.74926 14.957 4.81964C14.9765 4.89003 14.9797 4.96393 14.9664 5.03574Z" fill="#FFEFC1"/>
</svg>
