<svg width="20" height="20" viewBox="0 0 20 20" fill="none" xmlns="http://www.w3.org/2000/svg">
<path d="M9.28342 19.9999C9.28342 17.0042 4.26938 11.9901 1.27368 11.9901C4.26938 11.9901 9.28342 6.9761 9.28342 3.98041C9.28342 6.9761 14.2975 11.9901 17.2932 11.9901C14.2975 11.9901 9.28342 17.0042 9.28342 19.9999Z" fill="#FFD83B"/>
<path d="M9.2835 15.1451C9.2835 13.9655 7.30822 11.9902 6.12866 11.9902C7.30822 11.9902 9.2835 10.0149 9.2835 8.83539C9.2835 10.0149 11.2588 11.9902 12.4383 11.9902C11.2582 11.9902 9.2835 13.9649 9.2835 15.1451Z" fill="#F3C432"/>
<path d="M14.868 8.83536C14.868 7.39244 12.4527 4.97716 11.0098 4.97716C12.4527 4.97716 14.868 2.56188 14.868 1.11896C14.868 2.56188 17.2832 4.97716 18.7262 4.97716C17.2832 4.97716 14.868 7.39244 14.868 8.83536Z" fill="#FFD83B"/>
<path d="M3.62655 19.7124C3.62655 18.9691 2.38271 17.7252 1.6394 17.7252C2.38271 17.7252 3.62655 16.4814 3.62655 15.7381C3.62655 16.4814 4.87039 17.7252 5.61369 17.7252C4.87039 17.7259 3.62655 18.9697 3.62655 19.7124Z" fill="#FFD83B"/>
<path d="M6.1898 5.51582C6.1898 4.48418 4.46353 2.75791 3.43188 2.75791C4.46353 2.75791 6.1898 1.03164 6.1898 0C6.1898 1.03164 7.91606 2.75791 8.94771 2.75791C7.91606 2.75791 6.1898 4.48418 6.1898 5.51582Z" fill="#FFD83B"/>
</svg>
