<svg width="51" height="50" viewBox="0 0 51 50" fill="none" xmlns="http://www.w3.org/2000/svg">
<path d="M25 7.21875C21.3843 7.21875 17.8498 8.29093 14.8435 10.2997C11.8372 12.3085 9.494 15.1636 8.11034 18.5041C6.72667 21.8445 6.36464 25.5203 7.07003 29.0665C7.77541 32.6127 9.51653 35.8701 12.0732 38.4268C14.6299 40.9835 17.8873 42.7246 21.4335 43.43C24.9797 44.1354 28.6555 43.7733 31.9959 42.3897C35.3364 41.006 38.1915 38.6629 40.2003 35.6565C42.2091 32.6502 43.2813 29.1157 43.2813 25.5C43.272 20.6544 41.3429 16.0099 37.9165 12.5835C34.4902 9.15708 29.8456 7.22804 25 7.21875ZM33.7012 22.3008L23.4004 32.1445C23.1341 32.395 22.7816 32.5335 22.416 32.5312C22.2373 32.5338 22.0599 32.501 21.8939 32.4346C21.728 32.3682 21.5769 32.2696 21.4492 32.1445L16.2988 27.2227C16.156 27.098 16.0398 26.9458 15.9573 26.7751C15.8748 26.6044 15.8276 26.4188 15.8187 26.2295C15.8097 26.0401 15.8391 25.8509 15.9051 25.6732C15.9712 25.4955 16.0725 25.3329 16.2029 25.1954C16.3334 25.0578 16.4903 24.9481 16.6642 24.8727C16.8382 24.7973 17.0256 24.7579 17.2152 24.7568C17.4047 24.7557 17.5926 24.7929 17.7674 24.8663C17.9422 24.9396 18.1004 25.0476 18.2324 25.1836L22.416 29.1738L31.7676 20.2617C32.041 20.0232 32.3961 19.8995 32.7585 19.9167C33.121 19.9338 33.4628 20.0904 33.7125 20.3537C33.9622 20.617 34.1004 20.9667 34.0983 21.3295C34.0962 21.6924 33.9539 22.0404 33.7012 22.3008Z" fill="#777777"/>
</svg>
