<svg width="51" height="50" viewBox="0 0 51 50" fill="none" xmlns="http://www.w3.org/2000/svg">
<path d="M45.8125 18.7109V18.6328C45.8041 18.6007 45.7975 18.5681 45.793 18.5352V18.4766C45.7734 18.4375 45.7734 18.3984 45.7539 18.3594V18.3203L42.9609 8.51562C42.7685 7.86558 42.3723 7.29454 41.8308 6.88665C41.2893 6.47876 40.631 6.25558 39.9531 6.25H11.0469C10.369 6.25558 9.71075 6.47876 9.16924 6.88665C8.62772 7.29454 8.23154 7.86558 8.03906 8.51562L5.24609 18.3203V18.3594C5.22656 18.3984 5.22656 18.4375 5.20703 18.4766V18.5352C5.20246 18.5681 5.19594 18.6007 5.1875 18.6328V21.875C5.1875 23.0879 5.46988 24.284 6.01229 25.3689C6.55469 26.4537 7.34222 27.3973 8.3125 28.125V40.625C8.3125 41.4538 8.64174 42.2487 9.22779 42.8347C9.81384 43.4208 10.6087 43.75 11.4375 43.75H39.5625C40.3913 43.75 41.1862 43.4208 41.7722 42.8347C42.3583 42.2487 42.6875 41.4538 42.6875 40.625V28.125C43.6578 27.3973 44.4453 26.4537 44.9877 25.3689C45.5301 24.284 45.8125 23.0879 45.8125 21.875V18.7109ZM8.3125 20.3125H17.6875V21.875C17.6882 22.6812 17.481 23.4739 17.0859 24.1766C16.6907 24.8793 16.121 25.4683 15.4318 25.8865C14.7426 26.3047 13.9572 26.5381 13.1514 26.5642C12.3457 26.5902 11.5468 26.408 10.832 26.0352C10.724 25.9495 10.6059 25.8774 10.4805 25.8203C9.8158 25.3988 9.2685 24.816 8.88946 24.1263C8.51043 23.4365 8.31195 22.6621 8.3125 21.875V20.3125ZM30.1875 21.875C30.1875 23.1182 29.6936 24.3105 28.8146 25.1896C27.9355 26.0686 26.7432 26.5625 25.5 26.5625C24.2568 26.5625 23.0645 26.0686 22.1854 25.1896C21.3064 24.3105 20.8125 23.1182 20.8125 21.875V20.3125H30.1875V21.875ZM40.5195 25.8203C40.3941 25.8774 40.276 25.9495 40.168 26.0352C39.4532 26.408 38.6543 26.5902 37.8486 26.5642C37.0428 26.5381 36.2574 26.3047 35.5682 25.8865C34.879 25.4683 34.3093 24.8793 33.9142 24.1766C33.519 23.4739 33.3118 22.6812 33.3125 21.875V20.3125H42.6875V21.875C42.688 22.6621 42.4896 23.4365 42.1105 24.1263C41.7315 24.816 41.1842 25.3988 40.5195 25.8203Z" fill="#777777"/>
</svg>
