<svg width="65" height="64" viewBox="0 0 65 64" fill="none" xmlns="http://www.w3.org/2000/svg">
<rect x="0.5" width="64" height="64" rx="32" fill="#FC0000"/>
<path d="M40.4999 27.08C40.0199 26.5333 39.5266 25.9866 39.0066 25.4666L38.6199 25.1066L38.8066 24.9466C39.4586 24.3869 39.9233 23.6407 40.1378 22.8086C40.3524 21.9765 40.3066 21.0986 40.0066 20.2933C39.5718 19.3853 38.8833 18.6225 38.0245 18.0973C37.1656 17.572 36.173 17.3067 35.1666 17.3333V20C35.641 19.9934 36.1085 20.1135 36.521 20.3478C36.9335 20.5822 37.2761 20.9224 37.5132 21.3333C37.7399 21.8666 37.5132 22.4533 36.8866 23.08C36.7932 23.1866 36.6866 23.2533 36.5932 23.3466C32.5932 20.1333 28.2066 18.32 26.0599 20.4666C25.835 20.6965 25.6503 20.9624 25.5132 21.2533V21.3866L25.2732 22.0933L19.3932 39.56C19.1708 40.2182 19.1084 40.9199 19.2112 41.607C19.314 42.2942 19.579 42.9469 19.9844 43.5112C20.3897 44.0755 20.9236 44.5351 21.5419 44.852C22.1602 45.1689 22.8451 45.3339 23.5399 45.3333C23.9935 45.3289 24.4436 45.2524 24.8732 45.1066L43.1666 39.04C43.3914 38.9563 43.5894 38.8135 43.7399 38.6266L44.0199 38.3866C45.9266 36.4666 44.6999 32.7733 42.1399 29.1866C43.66 28.2995 45.4102 27.8863 47.1666 28V25.3333C44.8164 25.204 42.4848 25.8149 40.4999 27.08ZM24.0999 42.5733C23.7972 42.6735 23.4727 42.6876 23.1625 42.614C22.8523 42.5404 22.5687 42.3821 22.3432 42.1566C22.1178 41.9312 21.9595 41.6476 21.8859 41.3374C21.8123 41.0272 21.8264 40.7026 21.9266 40.4L23.7399 34.9333C25.034 37.4012 27.0225 39.436 29.4599 40.7866L24.0999 42.5733ZM33.4332 39.4666C31.4182 38.933 29.58 37.8762 28.1049 36.4035C26.6297 34.9307 25.5701 33.0942 25.0332 31.08L26.3666 27.08L26.4466 27.2C26.5932 27.4933 26.7799 27.8 26.9666 28.1066C27.1532 28.4133 27.1799 28.4933 27.3132 28.6933C27.4466 28.8933 27.7532 29.3333 27.9932 29.6666C28.2332 30 28.2466 30.04 28.3932 30.2266C28.5399 30.4133 28.9666 30.96 29.2732 31.32L29.6599 31.7866C30.1132 32.3066 30.5932 32.8133 31.0999 33.3333C31.6066 33.8533 32.0066 34.1866 32.4332 34.6666L32.8732 35.04L33.9132 35.88L34.4066 36.2533C34.7799 36.52 35.1399 36.7866 35.5132 37.0266L35.9266 37.2933C36.4066 37.5866 36.8866 37.8666 37.3532 38.1066H37.4199L33.4332 39.4666ZM42.1132 36.4933H42.0332C41.1132 37 37.2866 35.7333 32.9799 31.4133C32.5266 30.96 32.0999 30.52 31.7132 30.08L31.3266 29.6133L30.6199 28.76L30.2332 28.2266C30.0599 27.9733 29.8732 27.7333 29.7132 27.4933L29.3666 26.9333L28.9799 26.3066C28.8732 26.12 28.7932 25.9466 28.6999 25.7733C28.6066 25.6 28.4999 25.4266 28.4199 25.24C28.3484 25.0837 28.2861 24.9235 28.2332 24.76C28.1666 24.5866 28.0866 24.4133 28.0332 24.2533C27.9799 24.0933 27.9666 24 27.9266 23.84C27.8866 23.68 27.8599 23.5466 27.8332 23.4133C27.8266 23.2978 27.8266 23.1821 27.8332 23.0666C27.8204 22.9604 27.8204 22.8529 27.8332 22.7466L27.9799 22.3333C28.4599 21.8533 30.9532 22.3333 34.2866 24.8666C33.7215 25.1217 33.1175 25.2794 32.4999 25.3333V28C33.9162 27.9185 35.2903 27.4879 36.4999 26.7466L37.1399 27.36C37.6999 27.92 38.2199 28.4933 38.7132 29.0666C37.95 30.4468 37.6685 32.0419 37.9132 33.6L40.5799 33.08C40.5013 32.5853 40.5013 32.0813 40.5799 31.5866C40.9868 32.2037 41.3478 32.8499 41.6599 33.52C42.4066 35.28 42.3532 36.2666 42.1132 36.4933Z" fill="white"/>
</svg>
