<svg width="16" height="16" viewBox="0 0 16 16" fill="none" xmlns="http://www.w3.org/2000/svg">
<path d="M15.3983 7.82193L15.3982 7.82198L15.3996 7.82532C15.424 7.88033 15.4366 7.93983 15.4366 8C15.4366 8.06017 15.424 8.11967 15.3996 8.17468L15.3995 8.17464L15.3983 8.17805C15.3983 8.178 15.3981 8.17841 15.3977 8.17946L15.396 8.1834L15.3902 8.19676C15.3852 8.20791 15.3781 8.22325 15.369 8.2425C15.3507 8.28099 15.3242 8.3349 15.2892 8.40204C15.2191 8.53631 15.115 8.72331 14.975 8.94559C14.6949 9.39022 14.2711 9.97545 13.6875 10.5621C12.1302 12.1131 10.1648 12.9375 8.00052 12.9375C5.83625 12.9375 3.87078 12.1131 2.31348 10.5621C1.72994 9.9754 1.30618 9.39021 1.02606 8.94559C0.886019 8.72331 0.781972 8.53631 0.711887 8.40204C0.676844 8.3349 0.650317 8.28099 0.632047 8.2425C0.622909 8.22325 0.615867 8.20791 0.610878 8.19676L0.605015 8.1834L0.603357 8.17946C0.602927 8.17841 0.602773 8.178 0.602794 8.17805L0.602893 8.17802L0.601416 8.17468C0.577044 8.11967 0.564453 8.06017 0.564453 8C0.564453 7.93983 0.577044 7.88033 0.601416 7.82532L0.601513 7.82536L0.602794 7.82195C0.602773 7.822 0.602927 7.82159 0.603357 7.82054L0.605015 7.8166L0.610878 7.80324C0.615867 7.79209 0.622909 7.77675 0.632047 7.7575C0.650317 7.71901 0.676844 7.6651 0.711887 7.59796C0.781972 7.46369 0.886019 7.27669 1.02606 7.05441C1.30618 6.60979 1.72994 6.0246 2.31348 5.43793C3.87078 3.88688 5.83625 3.0625 8.00052 3.0625C10.1648 3.0625 12.1302 3.88686 13.6875 5.43786C14.2711 6.02455 14.6949 6.60977 14.975 7.05441C15.115 7.27669 15.2191 7.46369 15.2892 7.59796C15.3242 7.6651 15.3507 7.71901 15.369 7.7575C15.3781 7.77675 15.3852 7.79209 15.3902 7.80324L15.396 7.8166L15.3977 7.82054C15.3981 7.82142 15.3982 7.82185 15.3983 7.82193ZM9.28528 6.07723C8.90499 5.82313 8.45789 5.6875 8.00052 5.6875C7.38721 5.6875 6.79902 5.93114 6.36534 6.36482C5.93166 6.79849 5.68802 7.38669 5.68802 8C5.68802 8.45737 5.82365 8.90447 6.07775 9.28476C6.33185 9.66504 6.69301 9.96144 7.11557 10.1365C7.53812 10.3115 8.00309 10.3573 8.45167 10.2681C8.90025 10.1788 9.3123 9.95859 9.63571 9.63518C9.95912 9.31178 10.1794 8.89973 10.2686 8.45115C10.3578 8.00257 10.312 7.5376 10.137 7.11504C9.96197 6.69249 9.66557 6.33133 9.28528 6.07723Z" fill="#FC0000" stroke="#FC0000" stroke-width="0.125"/>
</svg>
