<svg width="16" height="16" viewBox="0 0 16 16" fill="none" xmlns="http://www.w3.org/2000/svg">
<path d="M12.336 6.41018L9.128 3.33325H5.6V4.87171H8.472L10.072 6.41018H3.6C1.6 6.41018 0 7.94864 0 9.87171C0 11.7948 1.6 13.3333 3.6 13.3333C5.376 13.3333 6.848 12.0871 7.136 10.464L8.832 9.4871C8.8 9.61787 8.8 9.74094 8.8 9.87171C8.8 11.7948 10.4 13.3333 12.4 13.3333C14.4 13.3333 16 11.7948 16 9.87171C16 7.94864 14.4 6.41018 12.4 6.41018H12.336ZM5.472 10.4563C5.2 11.2333 4.464 11.7948 3.576 11.7948C3.04557 11.7948 2.53686 11.5922 2.16179 11.2315C1.78671 10.8709 1.576 10.3817 1.576 9.87171C1.576 9.36168 1.78671 8.87254 2.16179 8.51189C2.53686 8.15125 3.04557 7.94864 3.576 7.94864C4.472 7.94864 5.2 8.51787 5.472 9.29479H3.2V10.4486L5.472 10.4563ZM12.376 11.7948C11.8456 11.7948 11.3369 11.5922 10.9618 11.2315C10.5867 10.8709 10.376 10.3817 10.376 9.87171C10.376 9.36168 10.5867 8.87254 10.9618 8.51189C11.3369 8.15125 11.8456 7.94864 12.376 7.94864C12.9064 7.94864 13.4151 8.15125 13.7902 8.51189C14.1653 8.87254 14.376 9.36168 14.376 9.87171C14.376 10.3817 14.1653 10.8709 13.7902 11.2315C13.4151 11.5922 12.9064 11.7948 12.376 11.7948Z" fill="#FC0000"/>
</svg>
