<svg width="16" height="17" viewBox="0 0 16 17" fill="none" xmlns="http://www.w3.org/2000/svg">
<path d="M4 2C4 1.86739 3.94732 1.74021 3.85355 1.64645C3.75979 1.55268 3.63261 1.5 3.5 1.5C3.36739 1.5 3.24021 1.55268 3.14645 1.64645C3.05268 1.74021 3 1.86739 3 2V5C2.99988 5.57633 3.19889 6.13499 3.56335 6.58145C3.9278 7.02791 4.43532 7.33473 5 7.45V15C5 15.1326 5.05268 15.2598 5.14645 15.3536C5.24021 15.4473 5.36739 15.5 5.5 15.5C5.63261 15.5 5.75979 15.4473 5.85355 15.3536C5.94732 15.2598 6 15.1326 6 15V7.45C6.56468 7.33473 7.0722 7.02791 7.43665 6.58145C7.80111 6.13499 8.00012 5.57633 8 5V2C8 1.86739 7.94732 1.74021 7.85355 1.64645C7.75979 1.55268 7.63261 1.5 7.5 1.5C7.36739 1.5 7.24021 1.55268 7.14645 1.64645C7.05268 1.74021 7 1.86739 7 2V5C7.00016 5.31033 6.90407 5.61306 6.72497 5.86649C6.54587 6.11992 6.29258 6.31156 6 6.415V2C6 1.86739 5.94732 1.74021 5.85355 1.64645C5.75979 1.55268 5.63261 1.5 5.5 1.5C5.36739 1.5 5.24021 1.55268 5.14645 1.64645C5.05268 1.74021 5 1.86739 5 2V6.415C4.70742 6.31156 4.45413 6.11992 4.27503 5.86649C4.09593 5.61306 3.99984 5.31033 4 5V2ZM11 15V8.5H9.5C9.36739 8.5 9.24021 8.44732 9.14645 8.35355C9.05268 8.25979 9 8.13261 9 8V4C9 3.337 9.326 2.717 9.771 2.271C10.217 1.826 10.837 1.5 11.5 1.5C11.6326 1.5 11.7598 1.55268 11.8536 1.64645C11.9473 1.74021 12 1.86739 12 2V15C12 15.1326 11.9473 15.2598 11.8536 15.3536C11.7598 15.4473 11.6326 15.5 11.5 15.5C11.3674 15.5 11.2402 15.4473 11.1464 15.3536C11.0527 15.2598 11 15.1326 11 15Z" fill="black"/>
</svg>
