<svg width="82" height="82" viewBox="0 0 82 82" fill="none" xmlns="http://www.w3.org/2000/svg">
<path d="M36.6718 1.79665C39.0601 -0.598883 42.9399 -0.598883 45.3282 1.79665C47.0782 3.55203 49.7152 4.07656 52.0038 3.12451C55.127 1.82527 58.7115 3.31002 60.0012 6.43715C60.9463 8.72862 63.1818 10.2223 65.6605 10.2186C69.0431 10.2134 71.7866 12.9569 71.7814 16.3395C71.7777 18.8182 73.2714 21.0537 75.5629 21.9988C78.69 23.2885 80.1747 26.8731 78.8755 29.9962C77.9234 32.2848 78.448 34.9218 80.2034 36.6718C82.5989 39.0601 82.5989 42.9399 80.2034 45.3282C78.448 47.0782 77.9234 49.7152 78.8755 52.0038C80.1747 55.127 78.69 58.7115 75.5629 60.0012C73.2714 60.9463 71.7777 63.1818 71.7814 65.6605C71.7866 69.0431 69.0431 71.7866 65.6605 71.7814C63.1818 71.7777 60.9463 73.2714 60.0012 75.5629C58.7115 78.69 55.127 80.1747 52.0038 78.8755C49.7152 77.9234 47.0782 78.448 45.3282 80.2034C42.9399 82.5989 39.0601 82.5989 36.6718 80.2034C34.9218 78.448 32.2848 77.9234 29.9962 78.8755C26.8731 80.1747 23.2885 78.69 21.9988 75.5629C21.0537 73.2714 18.8182 71.7777 16.3395 71.7814C12.9569 71.7866 10.2134 69.0431 10.2186 65.6605C10.2223 63.1818 8.72862 60.9463 6.43715 60.0012C3.31002 58.7115 1.82527 55.127 3.12451 52.0038C4.07656 49.7152 3.55203 47.0782 1.79665 45.3282C-0.598883 42.9399 -0.598883 39.0601 1.79665 36.6718C3.55203 34.9218 4.07656 32.2848 3.12451 29.9962C1.82527 26.8731 3.31002 23.2885 6.43715 21.9988C8.72862 21.0537 10.2223 18.8182 10.2186 16.3395C10.2134 12.9569 12.9569 10.2134 16.3395 10.2186C18.8182 10.2223 21.0537 8.72862 21.9988 6.43715C23.2885 3.31002 26.8731 1.82527 29.9962 3.12451C32.2848 4.07656 34.9218 3.55203 36.6718 1.79665Z" fill="#FFCC00"/>
</svg>
