<svg width="13" height="14" viewBox="0 0 13 14" fill="none" xmlns="http://www.w3.org/2000/svg">
<path d="M12 3.7948L9.23125 1.0198C9.04482 0.828626 8.79186 0.716697 8.525 0.707296C8.38957 0.704178 8.25492 0.728607 8.12922 0.779103C8.00352 0.829598 7.88939 0.905107 7.79375 1.00105L6.14375 2.6448L0.29375 8.50105C0.200562 8.59353 0.126622 8.70355 0.0762023 8.82478C0.0257829 8.946 -0.000116543 9.07601 3.94218e-07 9.2073V12.001C3.94218e-07 12.2663 0.105357 12.5206 0.292894 12.7082C0.48043 12.8957 0.734784 13.001 1 13.001H3.79375C4.05866 12.9999 4.31243 12.8944 4.5 12.7073L12 5.2073C12.1855 5.01903 12.2895 4.76535 12.2895 4.50105C12.2895 4.23675 12.1855 3.98306 12 3.7948ZM10 5.7948L7.20625 3.00105L8.5 1.7073L11.2937 4.50105L10 5.7948Z" fill="#FF7D00"/>
</svg>
