<svg width="119" height="99" viewBox="0 0 119 99" fill="none" xmlns="http://www.w3.org/2000/svg">
<g clip-path="url(#clip0)">
<path d="M64.0986 12.1759C60.6823 11.7983 57.8149 14.6858 55.7217 17.4075C53.4323 20.4006 51.9543 23.9039 50.5307 27.395C46.5979 37.0297 42.8893 46.9511 42.2008 57.3435C41.9337 61.4051 42.4995 66.1488 45.9393 68.3399C48.6917 70.0904 52.255 69.5175 55.5008 69.1346C63.1693 68.2392 70.9152 68.8375 78.6098 69.4359C80.3617 69.5779 82.1288 69.7109 83.8146 70.221C86.2783 70.9636 88.4223 72.4726 90.5903 73.8338C92.516 75.032 94.4901 76.1396 96.5124 77.1568C97.7355 77.7695 99.1189 78.3581 100.419 77.9388C101.677 77.5345 102.444 76.3155 103.114 75.175C106.2 69.9187 109.381 64.3788 109.564 58.2833C109.596 57.1246 109.467 55.8361 108.61 55.0454C108.047 54.5202 107.248 54.321 106.497 54.1338C103.328 53.3821 100.139 52.7149 96.9401 52.1351C96.3137 52.0174 95.66 51.9057 95.1331 51.5435C94.6486 51.2176 94.3243 50.7136 94.009 50.2247C89.1769 42.8402 84.1634 35.5643 78.9595 28.4332C74.6193 22.4791 70.0583 16.5339 64.0986 12.1759Z" fill="#000614"/>
<path d="M64.1179 12.6657C61.2676 12.3908 58.9738 14.37 57.2155 16.3675C55.0192 18.8839 53.4649 21.8168 52.1406 24.8584C49.2206 31.5661 46.5428 38.4881 44.7003 45.5671C43.7701 49.1428 43.0819 52.7789 42.7781 56.4724C42.5606 59.1489 42.5401 61.9643 43.5387 64.5083C44.0001 65.7002 44.7307 66.7927 45.7543 67.5864C47.0596 68.5914 48.6999 68.9748 50.3216 69.0203C52.0553 69.0808 53.7916 68.8215 55.5128 68.6225C57.3127 68.4175 59.1066 68.288 60.9218 68.2278C64.4645 68.0984 68.0105 68.2135 71.5445 68.4281C73.3569 68.534 75.1633 68.6639 76.9667 68.8059C78.7458 68.9419 80.5491 69.0326 82.3225 69.3467C85.854 69.9838 88.6856 72.0873 91.6801 73.8982C93.2667 74.8579 94.8925 75.7634 96.5606 76.6025C97.8957 77.2816 99.5729 78.0844 100.963 77.0978C102.209 76.2289 102.908 74.5572 103.651 73.2809C104.557 71.7119 105.441 70.1247 106.235 68.4893C107.777 65.2969 108.998 61.8449 109.09 58.2782C109.11 57.6294 109.088 56.9444 108.872 56.3137C108.566 55.4295 107.884 55.016 107.022 54.7625C105.257 54.2583 103.427 53.9171 101.641 53.5488C99.9069 53.1805 98.1639 52.8996 96.4298 52.5313C95.7217 52.3804 95.0467 52.1479 94.5166 51.6439C93.9199 51.0977 93.5195 50.3312 93.083 49.6582C89.0391 43.4959 84.8712 37.4181 80.5643 31.4337C76.612 25.9353 72.6324 20.3403 67.6526 15.7138C66.4198 14.6243 65.1659 13.5681 63.8516 12.5993C63.3398 12.2281 63.8288 11.35 64.3376 11.7333C69.9763 15.8831 74.3733 21.3514 78.4952 26.9434C83.0171 33.0967 87.397 39.3556 91.6378 45.7081C92.6654 47.2592 93.6447 48.8496 94.7177 50.3736C95.2693 51.1522 95.9444 51.4359 96.8643 51.614C97.8085 51.7982 98.7708 51.9612 99.715 52.1454C101.628 52.5198 103.543 52.9334 105.441 53.3682C106.936 53.7154 108.754 53.9509 109.561 55.4598C110.271 56.7906 110.113 58.4563 109.948 59.8896C109.748 61.6217 109.335 63.3266 108.769 64.9801C107.539 68.5196 105.682 71.7874 103.799 75.01C103.086 76.2169 102.344 77.5959 101.016 78.2264C99.6133 78.9022 98.0727 78.4283 96.7467 77.8155C93.3138 76.2159 90.2583 74.0308 86.9793 72.1746C85.2899 71.2149 83.5403 70.5478 81.6096 70.2458C79.6911 69.9469 77.7426 69.8712 75.8121 69.7231C72.1146 69.4421 68.4172 69.2124 64.72 69.1878C60.9593 69.1602 57.2535 69.4797 53.5176 69.8685C50.3473 70.2062 46.8559 70.1816 44.4505 67.7613C42.5481 65.851 41.888 63.0838 41.7152 60.4766C41.4992 57.1663 42.0001 53.7655 42.5889 50.5278C43.9829 42.9267 46.6965 35.6546 49.5736 28.5003C50.9247 25.1449 52.2667 21.7231 54.2475 18.6786C55.8086 16.2859 57.8172 13.7483 60.4205 12.4359C61.5664 11.8627 62.8125 11.5581 64.0924 11.685C64.7218 11.7394 64.7443 12.7321 64.1179 12.6657Z" fill="#F5B335"/>
<path d="M64.1996 12.2396C66.2344 20.6317 65.2292 29.458 63.5307 37.9191C62.4966 43.0971 61.1871 48.2449 59.124 53.115C57.0638 57.9731 54.2197 62.5716 50.382 66.2043C49.2519 67.2814 47.9825 68.2982 46.4763 68.6662" fill="#000614"/>
<path d="M64.671 12.1008C66.563 20.0342 65.8505 28.2539 64.3722 36.193C62.8127 44.5605 60.6151 53.0638 55.9106 60.2753C54.6847 62.149 53.3013 63.9323 51.7544 65.5465C50.3101 67.0581 48.6935 68.5909 46.6127 69.1489C45.9926 69.3148 45.704 68.3582 46.3361 68.1953C48.181 67.7067 49.6012 66.3429 50.8854 65.0093C52.2662 63.5972 53.4986 62.0584 54.6129 60.426C56.8657 57.116 58.5855 53.4679 59.9088 49.7082C61.3286 45.6648 62.3217 41.4765 63.1513 37.2731C63.9118 33.3987 64.5179 29.4729 64.7427 25.5289C64.9912 21.1294 64.7465 16.6965 63.7214 12.4024C63.5723 11.7627 64.531 11.4761 64.671 12.1008Z" fill="#F5B335"/>
<path d="M59.0405 17.1452C59.4752 16.3305 59.9012 15.9111 60.4691 15.181C60.6412 14.9547 60.8376 14.7344 61.0976 14.6198C61.8324 14.303 62.5988 15.0454 62.9325 15.7696C63.861 17.8217 63.4253 20.1874 63.0167 22.3932C61.6888 29.6775 60.8996 37.0704 58.9967 44.237C57.0938 51.4035 54.0048 58.428 48.7411 63.6539C48.1912 64.209 47.4083 64.7702 46.6908 64.4503C46.3669 64.3054 46.1366 63.9916 45.9698 63.6807C45.2753 62.3922 45.2461 60.8592 45.2896 59.3957C45.4446 55.2164 46.1533 51.0854 46.859 46.9665C47.7778 41.5803 48.7178 36.1608 50.5689 31.007C52.4199 25.8532 55.2272 20.8866 59.0405 17.1452Z" fill="#000614"/>
<path d="M58.6597 16.922C59.0582 16.2009 59.5687 15.5974 60.0882 14.9578C60.5172 14.4237 61.0279 13.9741 61.7482 14.1281C63.1887 14.4361 63.6933 16.2798 63.8462 17.5231C64.051 19.1767 63.7355 20.8545 63.432 22.4839C63.0625 24.5328 62.7323 26.5787 62.4022 28.6246C61.1777 36.3705 60.0079 44.207 57.0281 51.5153C55.6709 54.8435 53.9414 58.0148 51.7516 60.8661C51.1807 61.6084 50.5796 62.3174 49.9481 62.9933C49.4043 63.5756 48.8545 64.2334 48.1622 64.6377C46.6324 65.5126 45.5961 64.2542 45.1707 62.866C44.6573 61.2124 44.8274 59.3958 44.9553 57.6969C45.0949 55.6933 45.3465 53.7047 45.6495 51.7162C46.2615 47.6637 46.9491 43.6172 47.782 39.6069C49.3396 32.1235 51.932 24.7187 56.9195 18.7957C57.5025 18.1078 58.1037 17.45 58.7352 16.8255C59.1311 16.4242 59.7612 17.0429 59.3562 17.4291C54.4008 22.3472 51.3988 28.8678 49.6223 35.5274C48.6528 39.1574 48.0101 42.8689 47.3704 46.5684C46.7549 50.1713 46.112 53.7803 45.8444 57.4315C45.7225 59.0549 45.5251 60.8262 45.9628 62.4225C46.1452 63.0834 46.5188 64.2663 47.4141 64.0281C48.1732 63.8199 48.8316 62.9328 49.3422 62.3807C51.5991 59.9307 53.4319 57.1185 54.9106 54.1282C58.0218 47.84 59.5135 40.9299 60.6725 34.0651C61.3511 30.0035 61.9449 25.9208 62.6869 21.8622C62.9994 20.1453 63.3177 18.3016 62.8042 16.5966C62.6097 15.9327 61.8937 14.3695 61.0295 15.2053C60.4191 15.7967 59.8574 16.6053 59.4529 17.3506C59.151 17.8394 58.382 17.4169 58.6597 16.922Z" fill="#F5B335"/>
<path d="M55.152 54.2398C53.8922 55.6821 52.3106 51.5569 51.7939 49.7101C50.9034 46.5777 51.9974 43.2736 53.0675 40.22C53.7458 38.2737 54.4451 36.2943 55.7652 34.7132C57.0853 33.1322 59.1533 32.0068 61.1779 32.3963C61.1688 32.3812 58.602 50.3053 55.152 54.2398Z" fill="#F5B335"/>
<path d="M55.461 54.5477C53.2282 56.9011 51.2159 49.5531 51.0752 48.3129C50.8089 45.926 51.4714 43.5271 52.2219 41.2911C52.9844 39.0069 53.7407 36.5929 55.2388 34.6588C56.6614 32.8213 58.9168 31.5632 61.2712 31.9709C61.5193 32.0071 61.6195 32.2757 61.5895 32.499C61.2837 34.6535 60.9022 36.8019 60.4874 38.9293C59.7571 42.7344 58.9422 46.5696 57.6459 50.2207C57.1184 51.7174 56.5123 53.3226 55.461 54.5477C55.0985 54.9701 54.4654 54.3635 54.84 53.9441C55.7403 52.9122 56.2559 51.5151 56.7262 50.2478C57.3684 48.4976 57.8562 46.6962 58.3077 44.8857C59.1625 41.4579 59.8327 37.9968 60.4061 34.5116C60.5262 33.7723 60.6463 33.033 60.7572 32.2786C60.8664 32.4597 60.9664 32.6256 61.0756 32.8067C59.2357 32.5017 57.4519 33.4671 56.2586 34.7978C54.8175 36.3999 54.1213 38.5212 53.4189 40.5127C52.7467 42.4348 52.0746 44.4083 51.935 46.4632C51.8222 48.153 52.1782 49.7162 52.7793 51.2763C52.9523 51.7169 54.0937 54.7195 54.843 53.932C55.2268 53.5277 55.8478 54.1313 55.461 54.5477Z" fill="#F5B335"/>
<path d="M94.2577 50.6202C94.4362 50.6263 94.5454 50.8073 94.6091 50.9643C95.2981 52.6874 94.9164 54.6306 94.4558 56.426C93.9079 58.5715 93.2723 60.7078 92.5579 62.7989C91.9822 64.4887 91.3309 66.1724 90.289 67.6177C89.247 69.063 87.7419 70.2518 85.9966 70.5986" fill="#000614"/>
<path d="M94.3629 50.1976C95.1681 50.4753 95.2874 51.5436 95.3852 52.2859C95.4923 53.2485 95.3907 54.2232 95.2074 55.1646C94.7626 57.464 94.0515 59.7482 93.3161 61.9751C92.1046 65.6473 90.401 70.1071 86.1362 71.0179C85.5918 71.1386 85.3396 70.2936 85.8931 70.1881C89.7072 69.3828 91.2632 65.4119 92.3633 62.1349C93.0143 60.1947 93.5957 58.2243 94.0893 56.2448C94.297 55.412 94.4956 54.5641 94.558 53.695C94.5908 53.3058 94.5873 52.9074 94.5565 52.5151C94.5381 52.2798 94.4368 51.1391 94.1886 51.0516C93.6195 50.8584 93.8332 50.0014 94.3629 50.1976Z" fill="#F5B335"/>
<path d="M91.724 46.8085C91.816 52.4724 90.5798 58.1514 88.157 63.278C87.0376 65.6527 85.3592 68.6187 82.9341 69.6294" fill="#000614"/>
<path d="M92.1626 46.8025C92.2234 51.6638 91.3613 56.5129 89.6032 61.036C88.3186 64.3311 86.536 68.5404 83.0737 70.0488C82.5567 70.266 82.3136 69.4362 82.8306 69.2189C84.4453 68.519 85.5931 67.0104 86.4837 65.553C87.5102 63.8603 88.3278 62.0257 89.0182 60.185C90.5981 55.9123 91.3668 51.3861 91.3065 46.8325C91.2815 46.2622 92.1498 46.2351 92.1626 46.8025Z" fill="#F5B335"/>
<path d="M93.3287 75.5935C91.3835 80.5059 89.3355 85.3669 87.1694 90.1858C86.8828 90.8194 86.5962 91.4531 86.1127 91.9479C85.2275 92.8682 83.818 93.1577 82.5561 92.9584C81.2942 92.7591 80.1407 92.1253 79.0506 91.4432C77.361 90.3808 75.7741 89.1646 74.3111 87.8125C73.2116 86.8076 72.136 85.6034 72.004 84.1218C71.823 82.2177 73.2459 80.5853 74.4542 79.0918C75.8497 77.3629 77.0605 75.4981 78.0685 73.5187C78.7958 72.0975 79.5411 70.5013 81.0106 69.8678C82.9701 69.0231 85.147 70.2967 86.9003 71.516C88.9807 72.9707 91.0611 74.4254 93.1445 75.8681" fill="#000614"/>
<path d="M93.8128 75.7142C91.9099 80.5089 89.9101 85.2795 87.7983 89.9836C87.3669 90.9401 86.9598 91.954 86.0984 92.6238C85.3307 93.2272 84.3599 93.5108 83.3947 93.5137C81.0863 93.5406 78.9817 92.0799 77.183 90.7851C75.4356 89.5417 73.5248 88.1293 72.3153 86.3276C71.0694 84.4657 71.4057 82.447 72.6226 80.6607C73.2749 79.6951 74.0574 78.8262 74.7551 77.8848C75.5041 76.8921 76.1865 75.8571 76.8023 74.7799C77.7925 73.0781 78.4916 70.8935 80.1905 69.753C82.1251 68.4406 84.4741 69.3854 86.2515 70.5081C88.6829 72.0503 91.0117 73.7978 93.3768 75.4517C93.9037 75.8138 93.4147 76.6919 92.8908 76.3176C90.9739 74.9806 89.0692 73.6467 87.1523 72.3097C85.7079 71.2956 83.9483 69.9466 82.0697 70.1063C80.1367 70.2781 79.2709 72.2545 78.4953 73.7662C77.5175 75.6762 76.3459 77.4866 75.0139 79.1673C73.8087 80.7001 71.9564 82.5587 72.6188 84.6982C73.1626 86.4877 74.9978 87.8428 76.4061 88.9504C78.0688 90.2753 80.0403 91.8054 82.1286 92.3518C83.0698 92.5993 84.1106 92.6025 84.9935 92.156C85.9036 91.7034 86.3411 90.8254 86.7454 89.9262C88.9115 85.1587 90.9385 80.3308 92.8624 75.4516C93.0674 74.8873 94.051 75.1198 93.8128 75.7142Z" fill="#F5B335"/>
<path d="M84.4604 70.6257C83.4714 73.1996 81.8224 75.4807 80.6457 77.9821C79.7979 79.7835 79.1892 81.7087 78.193 83.4346C77.1968 85.1606 75.7345 86.7446 73.7989 87.2876" fill="#000614"/>
<path d="M84.9446 70.7464C84.2691 72.4754 83.3454 74.0655 82.4277 75.6828C81.4889 77.3333 80.7226 79.014 79.9896 80.7672C78.7923 83.6609 77.1867 86.799 73.9386 87.7582C73.3277 87.9392 73.039 86.9826 73.6621 86.8046C76.8013 85.8695 78.1677 82.6077 79.2926 79.8497C79.9411 78.2807 80.6531 76.7659 81.4954 75.2965C82.3738 73.7335 83.3127 72.1856 83.961 70.5139C84.2114 69.9225 85.1828 70.1519 84.9446 70.7464Z" fill="#F5B335"/>
<path d="M46.8258 30.7532C43.7153 25.798 40.9071 20.6618 38.4224 15.3627C37.8946 14.231 37.3091 13.0209 36.2342 12.3811C36.9769 15.8996 37.7227 19.4061 38.4654 22.9247C35.8792 21.0233 33.293 19.122 30.5075 17.5043C29.4841 16.9157 28.4396 16.3604 27.3921 15.8171C24.3131 14.1903 21.219 12.5725 18.14 10.9457C20.0448 12.331 20.8346 14.7844 22.4192 16.5257C23.2069 17.3888 24.182 18.0679 25.0845 18.8314C25.9871 19.5949 26.8142 20.455 27.6412 21.3151C31.5281 25.3742 35.4302 29.4242 39.3171 33.4833C40.2548 31.012 41.2045 28.4411 40.9228 25.8067C43.145 27.0019 45.1137 28.6467 46.6834 30.6023" fill="#F5B335"/>
<path d="M46.3427 31.0429C44.4206 27.9738 42.6074 24.8293 40.912 21.6245C40.0719 20.0432 39.2651 18.4317 38.4975 16.8172C37.8453 15.4623 37.3015 13.7241 35.9692 12.879C36.2412 12.6648 36.5133 12.4506 36.7853 12.2364C37.528 15.7549 38.2738 19.2614 39.0165 22.78C39.1048 23.1995 38.6335 23.7486 38.2005 23.4227C35.0722 21.1169 31.9288 18.8715 28.4926 17.0274C24.9654 15.135 21.4233 13.3029 17.878 11.4316C18.1046 11.142 18.322 10.8372 18.5486 10.5476C19.8689 11.5435 20.6816 12.9769 21.5366 14.344C22.0065 15.0894 22.4945 15.8136 23.1246 16.4323C23.8244 17.1325 24.6329 17.7059 25.3992 18.3457C27.0256 19.7128 28.4588 21.3395 29.9281 22.8726C31.4489 24.4569 32.9576 26.0383 34.4815 27.6106C36.2265 29.4304 37.9715 31.2502 39.7165 33.07C39.399 33.1575 39.0935 33.248 38.7759 33.3354C39.6865 30.9215 40.6152 28.4351 40.3698 25.8098C40.3238 25.3753 40.8529 25.1098 41.2011 25.312C43.4658 26.5434 45.4587 28.1942 47.0799 30.2011C47.5344 30.7503 46.7519 31.568 46.3003 31.0067C44.7367 29.0783 42.8437 27.4908 40.6608 26.2926C40.9329 26.1297 41.2201 25.9577 41.4922 25.7948C41.7529 28.5137 40.8213 31.1147 39.8776 33.6102C39.7328 33.9843 39.2642 34.2136 38.937 33.8756C35.8741 30.6887 32.8143 27.4897 29.7514 24.3029C28.2609 22.7517 26.8248 21.1371 25.2436 19.6915C23.8502 18.421 22.315 17.4099 21.2117 15.8527C20.1206 14.2986 19.3347 12.5 17.772 11.3411C17.2511 10.9548 17.8976 10.1673 18.4425 10.457C21.9787 12.3132 25.53 14.1604 29.0571 16.0528C32.4934 17.8969 35.6367 20.1423 38.765 22.448C38.493 22.6623 38.2209 22.8765 37.9489 23.0907C37.2062 19.5721 36.4604 16.0656 35.7177 12.5471C35.6233 12.1005 36.0886 11.6268 36.5337 11.9044C37.8569 12.7344 38.485 14.1346 39.1221 15.4986C39.9382 17.2278 40.7875 18.9268 41.6762 20.6227C43.4262 23.9694 45.3213 27.2497 47.3253 30.4546C47.6861 31.0702 46.7308 31.6525 46.3427 31.0429Z" fill="#F5B335"/>
<path d="M43.1819 43.8187C42.0892 43.4052 41.0508 42.877 40.0244 42.3518C36.4187 40.5167 32.8009 38.6786 29.4669 36.3728C30.5074 38.4913 31.7655 40.5102 33.1869 42.3903C30.2987 40.8752 27.2173 39.7734 24.139 38.6596C19.7833 37.099 15.4427 35.5294 11.0871 33.9688C15.1032 37.355 19.5453 40.2192 23.9631 43.0773C28.1266 45.7694 32.3052 48.4525 36.4687 51.1446C37.6436 51.8991 38.8396 52.6718 40.1624 53.1427C38.9299 49.9379 38.0785 46.5973 37.59 43.1935C39.5207 43.4954 41.4543 43.7853 43.3728 44.0843" fill="#F5B335"/>
<path d="M43.0466 44.362C40.634 43.4142 38.33 42.1345 36.0351 40.9212C33.6828 39.6807 31.3756 38.3618 29.1802 36.8528C29.4371 36.5963 29.6818 36.3368 29.9386 36.0803C30.9912 38.2018 32.2403 40.2056 33.6586 42.0978C34.0162 42.5716 33.3544 43.1117 32.9002 42.8702C29.464 41.0774 25.7744 39.8368 22.127 38.5298C18.3979 37.1895 14.6688 35.8493 10.9396 34.5091C11.1208 34.1953 11.2898 33.8785 11.4709 33.5647C14.8298 36.3895 18.4726 38.8492 22.1456 41.2395C25.9972 43.7385 29.8548 46.2133 33.7095 48.7002C35.8139 50.0584 37.9218 51.7122 40.2858 52.5966C40.0592 52.835 39.8356 53.0613 39.609 53.2997C38.3644 50.0405 37.5099 46.6608 37.0214 43.2056C36.9664 42.8073 37.4048 42.5961 37.7135 42.6474C39.6441 42.9494 41.5778 43.2393 43.4963 43.5382C44.2135 43.653 43.9305 44.7363 43.2254 44.6245C41.2948 44.3226 39.3611 44.0327 37.4426 43.7337C37.6692 43.5467 37.908 43.3626 38.1347 43.1755C38.611 46.5251 39.4744 49.8174 40.6796 52.9769C40.8193 53.3451 40.3933 53.8157 40.0028 53.6799C37.8961 52.8981 36.0579 51.5551 34.1866 50.3449C32.2033 49.0682 30.232 47.7946 28.2487 46.5179C24.382 44.028 20.4669 41.5773 16.6877 38.9426C14.6164 37.503 12.6025 35.9879 10.6672 34.3643C10.2522 34.0172 10.6657 33.2357 11.1984 33.4198C15.0093 34.7932 18.811 36.1515 22.6219 37.525C26.2813 38.835 29.9801 40.0907 33.4405 41.8896C33.1837 42.146 32.939 42.4055 32.6821 42.662C31.2487 40.7788 30.0147 38.766 28.9621 36.6445C28.7407 36.1919 29.2148 35.5281 29.7205 35.8721C31.8493 37.3389 34.0898 38.6156 36.3575 39.8349C38.616 41.0392 40.9019 42.34 43.2933 43.2697C43.9864 43.5323 43.7125 44.6306 43.0466 44.362Z" fill="#F5B335"/>
<path d="M76.662 69.6168C76.5976 71.3187 77.2321 72.9513 77.8936 74.5266C78.0666 74.9158 78.2365 75.3172 78.5153 75.6431C79.2213 76.473 80.4166 76.6301 81.4938 76.7449C81.2525 77.3001 80.9536 77.8281 80.6003 78.3169C80.5036 78.4467 80.404 78.5885 80.2467 78.6518C80.0744 78.7242 79.8686 78.6729 79.687 78.6276C79.2149 78.5099 78.7457 78.3801 78.2736 78.2623C77.7652 78.1356 77.2597 77.9967 76.7815 77.8005C75.2376 77.1334 74.0861 75.7181 73.4729 74.1549C72.8628 72.5797 72.7487 70.8717 72.8342 69.1879C74.1896 69.1156 75.5601 69.1369 76.9247 69.2336" fill="#000614"/>
<path d="M77.1676 69.6019C77.1272 71.1046 77.6101 72.5199 78.1806 73.893C78.469 74.5931 78.7331 75.3384 79.4295 75.7429C80.0472 76.102 80.7976 76.1866 81.4996 76.2591C81.8869 76.3044 82.1143 76.6303 81.9453 76.9984C81.6557 77.6442 81.2997 78.4528 80.7558 78.9326C80.2118 79.4123 79.4792 79.1014 78.8618 78.9474C77.4 78.5701 76.0351 78.2169 74.8931 77.1757C72.685 75.1507 72.209 72.0576 72.3264 69.2151C72.3442 68.9375 72.5284 68.7142 72.8128 68.7082C74.1803 68.6389 75.5387 68.6572 76.9033 68.7539C77.5357 68.7962 77.5703 69.792 76.9258 69.7467C75.5612 69.65 74.2027 69.6317 72.8353 69.701C72.9924 69.535 73.1646 69.36 73.3217 69.1941C73.2158 71.5266 73.4732 74.0524 75.0428 75.9053C75.8155 76.8288 76.7843 77.3781 77.9405 77.692C78.5185 77.849 79.1936 78.1327 79.7896 78.166C80.3978 78.2023 80.8259 77.0013 81.0491 76.5185C81.1947 76.76 81.3493 77.0165 81.4948 77.2579C80.7051 77.1763 79.8941 77.0767 79.1676 76.7416C78.3593 76.3734 77.8774 75.7276 77.5224 74.9339C76.7821 73.2621 76.1142 71.5058 76.1542 69.644C76.1775 68.9832 77.185 68.9652 77.1676 69.6019Z" fill="#F5B335"/>
</g>
<defs>
<clipPath id="clip0">
<rect width="102.931" height="74.9609" fill="white" transform="matrix(-0.970285 -0.241966 -0.241966 0.970285 118.774 25.2722)"/>
</clipPath>
</defs>
</svg>
