<svg width="24" height="24" viewBox="0 0 24 24" fill="none" xmlns="http://www.w3.org/2000/svg">
<path d="M6.75044 7.8125C7.52681 7.8125 8.15669 7.18262 8.15669 6.40625C8.15669 5.62988 7.52681 5 6.75044 5C5.97407 5 5.34419 5.62988 5.34419 6.40625C5.34419 7.18262 5.97407 7.8125 6.75044 7.8125ZM18.0005 7.8125C18.7768 7.8125 19.4067 7.18262 19.4067 6.40625C19.4067 5.62988 18.7768 5 18.0005 5C17.2241 5 16.5942 5.62988 16.5942 6.40625C16.5942 7.18262 17.2241 7.8125 18.0005 7.8125ZM21.6831 18.7139L20.394 15.4912L19.1899 16.8506L19.1313 17.3838L19.9428 19.4111C20.0893 19.7773 20.4409 20 20.813 20C20.9301 20 21.0473 19.9795 21.1616 19.9326C21.6421 19.7393 21.8764 19.1943 21.6831 18.7139ZM20.6811 12.5674L20.1391 10.2178C20.0044 9.63184 19.5942 9.13965 19.0405 8.90234C18.4985 8.66797 17.8979 8.70605 17.3969 8.99902C16.7319 9.3916 16.2338 10.0098 15.9878 10.7393L15.6567 11.7324L15.188 12.0312V9.21875C15.188 8.96094 14.977 8.75 14.7192 8.75H10.0317C9.77388 8.75 9.56295 8.96094 9.56295 9.21875V12.0312L9.09126 11.7324L8.76021 10.7393C8.51705 10.0068 8.01607 9.3916 7.35103 8.99902C6.84712 8.70605 6.24947 8.66797 5.70747 8.90234C5.15376 9.13965 4.7436 9.63184 4.60884 10.2178L4.06978 12.5674C3.93501 13.1533 4.09028 13.7744 4.49165 14.2285L6.4604 16.4521L6.7563 19.165C6.80904 19.6426 7.21333 20 7.68794 20C7.7231 20 7.75533 19.9971 7.79048 19.9941C8.30611 19.9385 8.67525 19.4756 8.61959 18.96L8.32369 16.2412C8.27974 15.8604 8.12154 15.5059 7.86665 15.2158L6.5981 13.7803L7.11372 11.7207L7.31294 12.3184C7.43306 12.6846 7.66158 13.0039 8.03072 13.2734L9.52779 14.2256C9.66255 14.3105 9.88228 14.3604 10.0317 14.3721H14.7192C14.8686 14.3604 15.0883 14.3105 15.2231 14.2256L16.7202 13.2734C17.0893 13.0039 17.3178 12.6875 17.438 12.3184L17.6372 11.7207L18.1528 13.7803L16.8842 15.2158C16.6294 15.5059 16.4712 15.8604 16.4272 16.2412L16.1313 18.96C16.0756 19.4756 16.4477 19.9385 16.9604 19.9941C16.9956 19.9971 17.0278 20 17.063 20C17.5346 20 17.9419 19.6455 17.9946 19.165L18.2905 16.4521L20.2592 14.2285C20.6577 13.7744 20.8159 13.1533 20.6811 12.5674ZM4.35689 15.4912L3.06782 18.7139C2.87446 19.1943 3.10884 19.7393 3.58931 19.9326C4.08149 20.126 4.61763 19.8828 4.80806 19.4111L5.61958 17.3838L5.56099 16.8506L4.35689 15.4912Z" fill="white"/>
</svg>
