<svg width="48" height="49" viewBox="0 0 48 49" fill="none" xmlns="http://www.w3.org/2000/svg">
<path d="M24 4.81757C20.1433 4.81757 16.3731 5.96122 13.1664 8.10391C9.95963 10.2466 7.46027 13.2921 5.98436 16.8552C4.50845 20.4184 4.12228 24.3392 4.8747 28.1218C5.62711 31.9045 7.4843 35.379 10.2114 38.1061C12.9386 40.8333 16.4131 42.6905 20.1957 43.4429C23.9784 44.1953 27.8992 43.8091 31.4623 42.3332C35.0255 40.8573 38.071 38.3579 40.2137 35.1512C42.3564 31.9444 43.5 28.1743 43.5 24.3176C43.4901 19.1489 41.4325 14.1947 37.7776 10.5399C34.1228 6.88512 29.1687 4.82748 24 4.81757ZM33.2813 20.9051L22.2938 31.4051C22.0097 31.6723 21.6337 31.82 21.2438 31.8176C21.0531 31.8203 20.8639 31.7853 20.6869 31.7145C20.5099 31.6437 20.3487 31.5385 20.2125 31.4051L14.7188 26.1551C14.5664 26.0221 14.4425 25.8597 14.3544 25.6777C14.2664 25.4956 14.2161 25.2977 14.2066 25.0957C14.197 24.8937 14.2284 24.6918 14.2988 24.5023C14.3693 24.3127 14.4773 24.1394 14.6164 23.9926C14.7556 23.8459 14.923 23.7288 15.1085 23.6484C15.2941 23.568 15.494 23.526 15.6962 23.5248C15.8984 23.5236 16.0988 23.5634 16.2852 23.6416C16.4717 23.7198 16.6404 23.835 16.7813 23.9801L21.2438 28.2363L31.2188 18.7301C31.5104 18.4756 31.8891 18.3437 32.2758 18.362C32.6624 18.3803 33.027 18.5474 33.2933 18.8282C33.5597 19.1091 33.7071 19.482 33.7049 19.8691C33.7026 20.2561 33.5508 20.6273 33.2813 20.9051Z" fill="#B4E57F"/>
</svg>
