<svg width="51" height="50" viewBox="0 0 51 50" fill="none" xmlns="http://www.w3.org/2000/svg">
<path d="M40.0837 14.5833C40.0837 12.2917 38.2087 10.4167 35.917 10.4167H31.7503C30.6045 10.4167 29.667 11.3542 29.667 12.5C29.667 13.6458 30.6045 14.5833 31.7503 14.5833H35.917V20.1041L28.667 29.1666H21.3337V20.8333C21.3337 19.6875 20.3962 18.75 19.2503 18.75H13.0003C8.39616 18.75 4.66699 22.4791 4.66699 27.0833V31.25C4.66699 32.3958 5.60449 33.3333 6.75033 33.3333H8.83366C8.83366 36.7916 11.6253 39.5833 15.0837 39.5833C18.542 39.5833 21.3337 36.7916 21.3337 33.3333H28.667C29.9378 33.3333 31.1253 32.75 31.917 31.7708L39.167 22.7083C39.7712 21.9583 40.0837 21.0416 40.0837 20.1041V14.5833ZM15.0837 35.4166C13.9378 35.4166 13.0003 34.4791 13.0003 33.3333H17.167C17.167 34.4791 16.2295 35.4166 15.0837 35.4166Z" fill="#777777"/>
<path d="M13.0003 12.5H19.2503C20.3962 12.5 21.3337 13.4375 21.3337 14.5833C21.3337 15.7292 20.3962 16.6667 19.2503 16.6667H13.0003C11.8545 16.6667 10.917 15.7292 10.917 14.5833C10.917 13.4375 11.8545 12.5 13.0003 12.5ZM40.0836 27.0833C36.6253 27.0833 33.8336 29.875 33.8336 33.3333C33.8336 36.7917 36.6253 39.5833 40.0836 39.5833C43.542 39.5833 46.3336 36.7917 46.3336 33.3333C46.3336 29.875 43.542 27.0833 40.0836 27.0833ZM40.0836 35.4167C38.9378 35.4167 38.0003 34.4792 38.0003 33.3333C38.0003 32.1875 38.9378 31.25 40.0836 31.25C41.2295 31.25 42.167 32.1875 42.167 33.3333C42.167 34.4792 41.2295 35.4167 40.0836 35.4167Z" fill="#777777"/>
</svg>
