<svg width="51" height="50" viewBox="0 0 51 50" fill="none" xmlns="http://www.w3.org/2000/svg">
<path d="M18 10V4C18 3.60218 18.158 3.22064 18.4393 2.93934C18.7206 2.65804 19.1022 2.5 19.5 2.5C19.8978 2.5 20.2794 2.65804 20.5607 2.93934C20.842 3.22064 21 3.60218 21 4V10C21 10.3978 20.842 10.7794 20.5607 11.0607C20.2794 11.342 19.8978 11.5 19.5 11.5C19.1022 11.5 18.7206 11.342 18.4393 11.0607C18.158 10.7794 18 10.3978 18 10ZM25.5 11.5C25.8978 11.5 26.2794 11.342 26.5607 11.0607C26.842 10.7794 27 10.3978 27 10V4C27 3.60218 26.842 3.22064 26.5607 2.93934C26.2794 2.65804 25.8978 2.5 25.5 2.5C25.1022 2.5 24.7206 2.65804 24.4393 2.93934C24.158 3.22064 24 3.60218 24 4V10C24 10.3978 24.158 10.7794 24.4393 11.0607C24.7206 11.342 25.1022 11.5 25.5 11.5ZM31.5 11.5C31.8978 11.5 32.2794 11.342 32.5607 11.0607C32.842 10.7794 33 10.3978 33 10V4C33 3.60218 32.842 3.22064 32.5607 2.93934C32.2794 2.65804 31.8978 2.5 31.5 2.5C31.1022 2.5 30.7206 2.65804 30.4393 2.93934C30.158 3.22064 30 3.60218 30 4V10C30 10.3978 30.158 10.7794 30.4393 11.0607C30.7206 11.342 31.1022 11.5 31.5 11.5ZM49.2 18.1C48.9613 17.7817 48.606 17.5713 48.2121 17.5151C47.8183 17.4588 47.4183 17.5613 47.1 17.8L43.5 20.5V17.5C43.5 16.7043 43.1839 15.9413 42.6213 15.3787C42.0587 14.8161 41.2957 14.5 40.5 14.5H10.5C9.70436 14.5 8.94129 14.8161 8.37869 15.3787C7.81608 15.9413 7.50001 16.7043 7.50001 17.5V20.5L3.90001 17.8C3.58175 17.5613 3.1817 17.4588 2.78787 17.5151C2.39405 17.5713 2.0387 17.7817 1.80001 18.1C1.56131 18.4183 1.45882 18.8183 1.51508 19.2121C1.57134 19.606 1.78175 19.9613 2.10001 20.2L7.50001 24.25V35.5C7.50495 37.0898 8.13868 38.613 9.26283 39.7372C10.387 40.8613 11.9102 41.4951 13.5 41.5H37.5C39.0898 41.4951 40.613 40.8613 41.7372 39.7372C42.8613 38.613 43.4951 37.0898 43.5 35.5V24.25L48.9 20.2C49.0576 20.0818 49.1903 19.9337 49.2907 19.7642C49.3911 19.5947 49.4571 19.4071 49.4849 19.2121C49.5128 19.0171 49.502 18.8185 49.4531 18.6277C49.4042 18.4369 49.3182 18.2576 49.2 18.1Z" fill="white"/>
</svg>
