<svg width="24" height="24" viewBox="0 0 24 24" fill="none" xmlns="http://www.w3.org/2000/svg">
<path d="M1.88875 6.34319L10.8888 11.178C11.1912 11.34 11.5824 11.4168 11.976 11.4168C12.3696 11.4168 12.7608 11.34 13.0632 11.178L22.0632 6.34319C22.65 6.02759 23.2044 4.79999 22.128 4.79999H1.82515C0.748753 4.79999 1.30315 6.02759 1.88875 6.34319ZM22.3356 8.98679L13.0632 13.8192C12.6552 14.0328 12.3696 14.058 11.976 14.058C11.5824 14.058 11.2968 14.0328 10.8888 13.8192C10.4808 13.6056 2.32915 9.33239 1.66315 8.98559C1.19515 8.74079 1.19995 9.02759 1.19995 9.24839V18C1.19995 18.504 1.87915 19.2 2.39995 19.2H21.6C22.1208 19.2 22.8 18.504 22.8 18V9.24959C22.8 9.02879 22.8048 8.74199 22.3356 8.98679Z" fill="#202020"/>
</svg>
