<svg width="51" height="50" viewBox="0 0 51 50" fill="none" xmlns="http://www.w3.org/2000/svg">
<path d="M44.25 14.9807L35.5977 6.30881C35.0151 5.7114 34.2246 5.36163 33.3906 5.33225C32.9674 5.3225 32.5466 5.39885 32.1538 5.55664C31.761 5.71444 31.4043 5.95041 31.1055 6.25022L25.9492 11.3869L7.66797 29.6877C7.37676 29.9767 7.14569 30.3206 6.98813 30.6994C6.83057 31.0782 6.74964 31.4845 6.75 31.8947V40.6252C6.75 41.454 7.07924 42.2489 7.66529 42.8349C8.25134 43.421 9.0462 43.7502 9.875 43.7502H18.6055C19.4333 43.7467 20.2263 43.4168 20.8125 42.8322L44.25 19.3947C44.8297 18.8064 45.1546 18.0137 45.1546 17.1877C45.1546 16.3618 44.8297 15.569 44.25 14.9807V14.9807ZM38 21.2307L29.2695 12.5002L33.3125 8.45725L42.043 17.1877L38 21.2307Z" fill="white"/>
</svg>
