<svg width="28" height="28" viewBox="0 0 28 28" fill="none" xmlns="http://www.w3.org/2000/svg">
<path d="M28 13.9854C28 13.6616 27.8421 13.3769 27.6017 13.1983L27.6068 13.1896L24.2213 11.22L26.17 7.81868L26.1635 7.81465C26.225 7.67447 26.2529 7.52165 26.2449 7.36857C26.2369 7.21549 26.1932 7.06647 26.1174 6.93359C26.041 6.80084 25.9345 6.68811 25.8068 6.60458C25.679 6.52104 25.5335 6.46904 25.3821 6.45281V6.4433H21.4723V2.51475H21.4643C21.448 2.36234 21.3964 2.21593 21.3135 2.0874C21.2306 1.95886 21.1188 1.85181 20.9872 1.77493C20.8551 1.69826 20.707 1.65416 20.5548 1.64621C20.4025 1.63826 20.2506 1.66669 20.1114 1.72919L20.1067 1.72077L16.6642 3.72365L14.758 0.396257L14.7511 0.400282C14.6613 0.276513 14.5439 0.175779 14.4084 0.106238C14.2728 0.0366959 14.1229 0.000301247 13.9708 0C13.6494 0 13.3666 0.159161 13.1898 0.40138L13.181 0.396257L11.2432 3.77853L7.90637 1.83713L7.90238 1.84408C7.76327 1.78205 7.61161 1.75393 7.4597 1.76201C7.3078 1.77008 7.15991 1.81412 7.02805 1.89055C6.89622 1.96748 6.78427 2.07467 6.70131 2.20342C6.61834 2.33216 6.5667 2.47882 6.55058 2.63147H6.54078V6.53697H2.68762V6.54465C2.53637 6.56105 2.39109 6.61312 2.26353 6.69665C2.13598 6.78018 2.02975 6.89281 1.95345 7.02543C1.87757 7.15844 1.83388 7.3076 1.82593 7.46081C1.81798 7.61402 1.846 7.76696 1.9077 7.90722L1.89935 7.91234L3.80414 11.2372L0.393231 13.2218L0.397225 13.2287C0.274401 13.3191 0.174437 13.4374 0.105426 13.5741C0.036416 13.7107 0.000298946 13.8617 0 14.015C0 14.3388 0.157946 14.6238 0.398314 14.802L0.393231 14.8108L3.77872 16.7804L1.82999 20.1817L1.83653 20.1853C1.77498 20.3255 1.74707 20.4784 1.75509 20.6314C1.7631 20.7845 1.8068 20.9335 1.88264 21.0664C1.95905 21.1992 2.06545 21.3119 2.19321 21.3954C2.32096 21.479 2.46647 21.531 2.61791 21.5472V21.5571H6.52734V25.4852H6.53533C6.56874 25.7838 6.73467 26.0634 7.01244 26.2251C7.14453 26.3017 7.2927 26.3457 7.44489 26.3537C7.59708 26.3616 7.74898 26.3332 7.88822 26.2708L7.89294 26.2792L11.3354 24.2764L13.2417 27.6037L13.2486 27.5997C13.3383 27.7235 13.4557 27.8242 13.5913 27.8938C13.7268 27.9633 13.8768 27.9997 14.0289 28C14.3502 28 14.6331 27.8408 14.8099 27.599L14.8182 27.6037L16.7561 24.2215L20.0933 26.1629L20.0973 26.1559C20.2364 26.2179 20.388 26.2461 20.5399 26.238C20.6918 26.2299 20.8397 26.1859 20.9716 26.1095C21.1034 26.0325 21.2154 25.9253 21.2983 25.7966C21.3813 25.6678 21.4329 25.5212 21.4491 25.3685H21.4589V21.4634H25.3124V21.4557C25.4636 21.4393 25.6089 21.3872 25.7365 21.3037C25.864 21.2202 25.9703 21.1076 26.0466 20.9749C26.1224 20.8419 26.1661 20.6926 26.174 20.5394C26.182 20.3861 26.154 20.2331 26.0923 20.0928L26.1007 20.088L24.1959 16.7632L27.6068 14.7786L27.6028 14.7717C27.7256 14.6813 27.8256 14.563 27.8947 14.4264C27.9637 14.2897 27.9998 14.1387 28 13.9854ZM11.7178 18.1547L8.14275 16.5631L9.72039 19.3164L8.82863 19.8352L6.4097 15.6139L7.32651 15.0801L10.7868 16.6029L9.26725 13.951L10.1594 13.4321L12.5776 17.6534L11.7178 18.1547ZM13.4069 17.1719L10.9883 12.9503L13.953 11.2258L14.4061 12.0169L12.3332 13.2225L12.8408 14.1087L14.8694 12.9287L15.3226 13.719L13.294 14.8997L13.8451 15.8616L15.918 14.656L16.3712 15.4471L13.4069 17.1719ZM20.2715 13.1782L17.8758 10.707L18.8079 14.0293L17.8599 14.581L14.2416 11.0579L15.2401 10.4769L17.723 13.0995L16.7728 9.58519L17.4699 9.17978L20.009 11.7699L18.996 8.29177L19.9945 7.71074L21.2199 12.6268L20.2715 13.1782Z" fill="#F5B335"/>
</svg>
