<svg width="101" height="88" viewBox="0 0 101 88" fill="none" xmlns="http://www.w3.org/2000/svg">
<path fill-rule="evenodd" clip-rule="evenodd" d="M0.738281 4C0.738281 1.79086 2.52914 0 4.73828 0H96.2621C98.4712 0 100.262 1.79086 100.262 4V43.4921C100.262 45.7012 97.9934 47.531 97.0805 49.5427C96.8811 49.9821 96.77 50.4701 96.77 50.9841C96.77 51.4981 96.8811 51.9862 97.0805 52.4256C97.9934 54.4373 100.262 56.267 100.262 58.4762V84C100.262 86.2091 98.4712 88 96.2621 88H4.73828C2.52914 88 0.738281 86.2091 0.738281 84V58.4762C0.738281 56.267 3.00702 54.4373 3.91989 52.4256C4.1193 51.9862 4.23034 51.4981 4.23034 50.9841C4.23034 50.4701 4.1193 49.9821 3.91989 49.5427C3.00702 47.531 0.738281 45.7012 0.738281 43.4921V4Z" fill="#D9D9D6"/>
<path d="M4 51L97 51" stroke="white" stroke-dasharray="4 4"/>
</svg>
