<svg width="17" height="16" viewBox="0 0 17 16" fill="none" xmlns="http://www.w3.org/2000/svg">
<g clip-path="url(#clip0)">
<path d="M16.5 7.992C16.5 3.58 12.916 0 8.5 0C4.084 0 0.5 3.58 0.5 7.992C0.5 10.422 1.604 12.612 3.332 14.082C3.348 14.098 3.364 14.098 3.364 14.114C3.508 14.226 3.652 14.338 3.812 14.45C3.892 14.498 3.956 14.561 4.036 14.625C5.35807 15.5214 6.91871 16.0004 8.516 16C10.1133 16.0004 11.6739 15.5214 12.996 14.625C13.076 14.577 13.14 14.514 13.22 14.465C13.364 14.354 13.524 14.242 13.668 14.13C13.684 14.114 13.7 14.114 13.7 14.098C15.396 12.611 16.5 10.422 16.5 7.992ZM8.5 14.993C6.996 14.993 5.62 14.513 4.484 13.714C4.5 13.586 4.532 13.459 4.564 13.331C4.65934 12.9841 4.79917 12.651 4.98 12.34C5.156 12.036 5.364 11.764 5.62 11.524C5.86 11.284 6.148 11.061 6.436 10.885C6.74 10.709 7.06 10.581 7.412 10.485C7.76674 10.3894 8.1326 10.3413 8.5 10.342C9.59065 10.3343 10.6412 10.7526 11.428 11.508C11.796 11.876 12.084 12.308 12.292 12.803C12.404 13.091 12.484 13.395 12.532 13.714C11.3512 14.5442 9.94343 14.9907 8.5 14.993ZM6.052 7.593C5.91102 7.27022 5.84013 6.9212 5.844 6.569C5.844 6.218 5.908 5.866 6.052 5.546C6.196 5.226 6.388 4.939 6.628 4.699C6.868 4.459 7.156 4.268 7.476 4.124C7.796 3.98 8.148 3.916 8.5 3.916C8.868 3.916 9.204 3.98 9.524 4.124C9.844 4.268 10.132 4.46 10.372 4.699C10.612 4.939 10.804 5.227 10.948 5.546C11.092 5.866 11.156 6.218 11.156 6.569C11.156 6.937 11.092 7.273 10.948 7.592C10.809 7.90727 10.6138 8.19461 10.372 8.44C10.1265 8.68149 9.83919 8.87633 9.524 9.015C8.86283 9.28671 8.12117 9.28671 7.46 9.015C7.14481 8.87633 6.85747 8.68149 6.612 8.44C6.36981 8.19819 6.17929 7.90968 6.052 7.592V7.593ZM13.476 12.899C13.476 12.867 13.46 12.851 13.46 12.819C13.3026 12.3184 13.0707 11.8444 12.772 11.413C12.473 10.9784 12.1056 10.5951 11.684 10.278C11.362 10.0358 11.013 9.83175 10.644 9.67C10.8119 9.55925 10.9674 9.43085 11.108 9.287C11.3465 9.0515 11.556 8.7883 11.732 8.503C12.0864 7.92081 12.2694 7.25049 12.26 6.569C12.2649 6.06451 12.167 5.56432 11.972 5.099C11.7795 4.65064 11.5025 4.24356 11.156 3.9C10.81 3.56003 10.4029 3.28859 9.956 3.1C9.48991 2.90539 8.98906 2.80774 8.484 2.813C7.97887 2.80806 7.47802 2.90605 7.012 3.101C6.56125 3.28919 6.15311 3.56638 5.812 3.916C5.47204 4.26159 5.20059 4.66842 5.012 5.115C4.81705 5.58032 4.71905 6.08051 4.724 6.585C4.724 6.937 4.772 7.273 4.868 7.592C4.964 7.928 5.092 8.232 5.268 8.519C5.428 8.807 5.652 9.063 5.892 9.303C6.036 9.447 6.196 9.574 6.372 9.686C6.00184 9.85206 5.65272 10.0615 5.332 10.31C4.916 10.63 4.548 11.013 4.244 11.429C3.94226 11.8586 3.71008 12.3331 3.556 12.835C3.54 12.867 3.54 12.899 3.54 12.915C2.276 11.636 1.492 9.91 1.492 7.992C1.492 4.14 4.644 0.991 8.5 0.991C12.356 0.991 15.508 4.14 15.508 7.992C15.5059 9.83196 14.7753 11.5962 13.476 12.899Z" fill="black"/>
</g>
<defs>
<clipPath id="clip0">
<rect width="16" height="16" fill="white" transform="translate(0.5)"/>
</clipPath>
</defs>
</svg>
