<svg width="76" height="72" viewBox="0 0 76 72" fill="none" xmlns="http://www.w3.org/2000/svg">
<g clip-path="url(#clip1)">
<path d="M61.7174 28.4624C61.7174 28.4624 67.8764 19.9733 70.9642 12.0303C70.9642 12.0303 72.1695 10.2597 73.3914 8.50557C74.6133 6.75149 74.4977 1.67128 71.41 1.43961C68.3222 1.20794 5.03141 0.893526 5.03141 0.893526C5.03141 0.893526 3.26462 -6.13332e-05 2.04272 5.08015C0.820829 10.1604 2.93438 11.749 5.24607 14.6448C7.55776 17.5407 15.6982 27.2544 15.6982 27.2544C15.6982 27.2544 0.837341 56.1636 0.837341 59.6883C0.837341 63.213 0.952926 68.6242 4.58558 70.3948C8.21824 72.1654 70.089 70.3948 70.089 70.3948C70.089 70.3948 74.828 69.1868 75.0426 60.6812C75.2573 52.1755 61.7174 28.4624 61.7174 28.4624Z" fill="#F1F1F1" class="stamp-pizza-fill"/>
<path d="M23.3433 72C6.00561 72 4.71766 71.3712 4.2223 71.1395C0.0117188 69.0876 0.0117188 62.9649 0.0117188 59.6884C0.0117188 59.0927 0.0117188 57.2889 7.52472 41.7835C10.6455 35.3298 13.8158 29.1244 14.7075 27.3703C13.1223 25.4673 6.60004 17.6898 4.58557 15.1745C4.30486 14.827 4.02416 14.496 3.75996 14.1816C1.79502 11.7987 0.0942792 9.74676 1.25012 4.88167C1.87758 2.25056 2.73621 0.728147 3.87555 0.182066C4.42044 -0.0827012 4.88278 -0.0165095 5.16349 0.0496822C9.20895 0.0662301 68.4378 0.380641 71.4595 0.595764C72.7144 0.678503 73.7382 1.42316 74.3326 2.66425C75.2243 4.51762 75.0922 7.4466 74.0684 8.95246L71.6907 12.411C68.9497 19.4107 63.996 26.6587 62.6916 28.5121C64.64 31.9706 76.0664 52.639 75.8517 60.6978C75.6205 69.7164 70.5018 71.123 70.2706 71.1892C70.2046 71.2057 70.155 71.2057 70.089 71.2223C69.9404 71.2223 54.4355 71.6691 38.683 71.8842C32.524 71.9669 27.4713 72 23.3433 72ZM4.70115 1.65483C4.45347 1.65483 3.57833 2.21746 2.8518 5.27882C1.87758 9.33307 3.14901 10.8389 5.0479 13.106C5.32861 13.4369 5.60931 13.7679 5.89002 14.132C8.16869 16.9948 16.2596 26.6256 16.3422 26.7249C16.5568 26.9731 16.5898 27.3372 16.4412 27.6351C10.4969 39.1855 1.66293 57.2393 1.66293 59.6884C1.66293 62.6174 1.66293 68.0451 4.93232 69.6502C5.55978 69.9481 10.1171 70.6266 38.6665 70.2294C53.676 70.0143 68.4708 69.6171 69.9239 69.5675C70.1716 69.4847 71.0467 69.1041 71.9218 68.0782C73.3254 66.4399 74.1014 63.875 74.2005 60.6647C74.4152 52.49 61.1229 29.1244 60.9908 28.8762C60.8257 28.5948 60.8422 28.2473 61.0404 27.9826C61.1064 27.8998 67.1829 19.4769 70.1881 11.7325C70.2046 11.6663 70.2376 11.6167 70.2706 11.567L72.6979 8.04233C73.3254 7.13219 73.5235 4.84858 72.8465 3.40891C72.4998 2.69735 72.0044 2.31675 71.3439 2.2671C68.3222 2.05198 5.65885 1.72102 5.01488 1.72102C4.91581 1.72102 4.81673 1.68793 4.70115 1.65483C4.71766 1.65483 4.70115 1.65483 4.70115 1.65483Z" fill="#2D3340"/>
<path d="M61.7174 28.1149C49.6141 28.1314 37.5107 28.0652 25.4074 27.9163C22.0884 27.8832 18.7695 27.8336 15.5166 27.2047C15.2029 27.1385 15.0708 27.6184 15.3845 27.6846C18.1751 28.2142 20.9986 28.3465 23.8387 28.3962C26.8439 28.4458 29.8491 28.4624 32.8378 28.4955C38.9968 28.5451 45.1558 28.5948 51.3148 28.6113C54.7824 28.6279 58.2499 28.6279 61.7174 28.6279C62.0312 28.6113 62.0312 28.1149 61.7174 28.1149Z" fill="#2D3340"/>
<path d="M71.9385 9.99495C66.5225 9.81292 61.1066 9.63089 55.6906 9.44887C53.0156 9.36613 50.3242 9.26684 47.6492 9.1841C46.8401 9.151 45.7668 8.88624 45.1559 9.5647C44.8752 9.86257 44.7266 10.2928 44.5284 10.6238C44.2147 11.1533 43.8184 11.6497 43.3891 12.0965C40.2023 15.3565 34.9349 15.3896 31.6985 12.1462C30.3941 10.8389 29.8987 8.91933 27.8017 8.73731C26.5963 8.62147 25.3579 8.75385 24.1525 8.78695C22.7325 8.82005 21.3289 8.86969 19.9089 8.90279C13.9315 9.06826 7.93765 9.2172 1.96027 9.38268C1.64654 9.39922 1.64654 9.89566 1.96027 9.87911C7.34321 9.73018 12.7262 9.5978 18.1091 9.44887C20.7675 9.38268 23.4425 9.29994 26.1009 9.23374C27.3559 9.20065 28.6603 9.06826 29.552 10.1439C30.2455 10.9713 30.7078 11.9145 31.5004 12.6757C34.2744 15.2903 38.452 15.8529 41.7544 13.9499C42.4644 13.5362 43.1249 13.0398 43.7028 12.444C44 12.1462 44.2642 11.8152 44.5119 11.4843C44.8256 11.0375 45.0238 10.4583 45.3705 10.0611C45.9154 9.43232 46.8897 9.66399 47.6162 9.69709C48.2767 9.71363 48.9372 9.74673 49.5811 9.76328C51.0012 9.81292 52.4212 9.86257 53.8578 9.91221C59.8847 10.1108 65.8951 10.3259 71.922 10.5245C72.2522 10.5079 72.2522 10.0115 71.9385 9.99495Z" fill="#2D3340"/>
<path d="M66.2908 10.1605C66.2082 11.4513 65.3001 12.411 64.5405 13.3708C63.8305 14.2644 63.2856 15.2407 62.7902 16.2833C61.783 18.4179 60.9739 20.8339 58.9594 22.2571C58.6953 22.4391 58.9429 22.8693 59.2071 22.6873C61.3042 21.198 62.1628 18.782 63.203 16.5315C63.8305 15.2076 64.6066 14.0824 65.5147 12.924C66.1752 12.0801 66.7201 11.2361 66.7862 10.144C66.8192 9.84612 66.3238 9.84612 66.2908 10.1605Z" fill="#2D3340"/>
<path d="M8.72959 9.46547C11.0908 14.2147 13.7988 18.7819 16.8535 23.1175C17.0352 23.3823 17.4645 23.134 17.2828 22.8693C14.2281 18.5337 11.5201 13.9665 9.15891 9.21725C9.02681 8.93594 8.5975 9.18416 8.72959 9.46547Z" fill="#2D3340"/>
<path d="M61.3375 28.0488C61.1063 27.1387 60.8586 26.212 60.6274 25.3019C60.4458 24.5738 60.3302 23.7298 59.967 23.0679C59.356 21.9427 58.0846 21.8765 56.9452 21.8765C53.1144 21.893 49.2836 21.9096 45.4363 21.9427C37.7087 21.9758 29.981 22.0254 22.2699 22.0585C21.1801 22.0585 20.0738 22.0585 18.984 22.075C18.3895 22.0916 17.729 22.1081 17.2667 22.5384C16.7713 23.0183 16.6558 23.796 16.5567 24.4414C16.4081 25.4012 16.3916 26.3775 16.4906 27.3538C16.5237 27.6682 17.019 27.6682 16.986 27.3538C16.8539 26.03 16.6062 22.9355 18.3235 22.6046C19.0665 22.4556 19.8921 22.5549 20.6352 22.5549C21.5103 22.5549 22.3855 22.5384 23.2606 22.5384C26.6621 22.5218 30.0471 22.5053 33.4485 22.4887C40.235 22.4556 47.038 22.4225 53.8245 22.3729C54.7491 22.3729 55.6903 22.3564 56.615 22.3564C57.3911 22.3564 58.3157 22.2571 59.0093 22.6873C59.8349 23.2168 59.9339 24.5407 60.1651 25.4177C60.3963 26.3279 60.6439 27.2545 60.8751 28.1647C60.9412 28.4791 61.42 28.3467 61.3375 28.0488Z" fill="#2D3340"/>
<path d="M63.7159 51.3317C65.3671 46.6155 64.2608 41.3698 60.8758 37.5969C57.4743 33.8074 50.985 29.8194 38.8652 30.3324C16.3592 31.2921 13.0568 39.9302 11.0753 44.7125C11.0753 44.7125 5.67588 57.1731 25.7216 62.0713C45.7672 66.9695 57.9697 59.4071 61.7179 54.9391C62.6426 53.8139 63.2865 52.5728 63.7159 51.3317Z" fill="#F1F1F1" class="stamp-pizza-fill" />
<path d="M38.2868 64.1729C34.2414 64.1729 30.0143 63.6269 25.6056 62.5512C18.076 60.7144 13.1885 57.6034 11.0584 53.3175C8.81277 48.7999 10.5465 44.6795 10.6291 44.514L10.6951 44.3485C11.7189 41.8829 13.1059 38.4906 17.1349 35.5781C21.8903 32.1362 28.9905 30.2497 38.8648 29.836C45.7833 29.5381 55.2778 30.5972 61.2717 37.266C64.7887 41.1713 65.9115 46.6321 64.2108 51.4972C63.7154 52.9204 63.0054 54.178 62.1138 55.2536C61.1726 56.3623 57.5564 60.1849 49.9939 62.485C46.2952 63.6103 42.3983 64.1729 38.2868 64.1729ZM40.8957 30.7958C40.2188 30.7958 39.5418 30.8123 38.8978 30.8454C29.3538 31.2591 22.2206 33.1125 17.7128 36.4055C13.9315 39.1525 12.594 42.3793 11.6198 44.7457L11.5538 44.9112C11.5373 44.9608 9.93559 48.7999 11.9666 52.9038C13.9645 56.9084 18.6375 59.8374 25.8532 61.5915C34.5716 63.7261 42.5965 63.7096 49.6967 61.5418C56.995 59.3244 60.4626 55.6839 61.3542 54.6248C62.1633 53.6485 62.8073 52.4901 63.2696 51.1828C64.8548 46.6652 63.798 41.585 60.5286 37.9445C55.3273 32.1693 47.3189 30.7958 40.8957 30.7958Z" fill="#2D3340"/>
<path d="M54.122 32.6822C55.0632 32.6657 56.0209 32.6492 56.962 32.6326C57.5895 32.6161 58.3491 32.7153 58.9435 32.4506C59.4389 32.2355 59.7691 31.7721 60.0168 31.2922C60.2149 30.9116 60.3966 30.531 60.5782 30.1504C60.7433 29.7864 60.991 28.9424 61.3708 28.7438C61.6515 28.5949 61.4038 28.1647 61.1231 28.3136C60.6442 28.5618 60.4956 29.1575 60.281 29.6209C59.9672 30.2828 59.6865 31.1267 59.1912 31.6728C58.5967 32.3182 57.4574 32.1362 56.6648 32.1362C55.8227 32.1527 54.9806 32.1693 54.1385 32.1858C53.7917 32.1858 53.7917 32.6822 54.122 32.6822Z" fill="#2D3340"/>
<path d="M15.2853 28.7107C16.1274 30.5806 16.7383 32.3347 15.7641 34.2708C14.922 35.9587 14.0634 37.6135 13.2047 39.3014C13.0066 39.682 13.5845 40.0129 13.7827 39.6323C14.7569 37.7293 15.9127 35.8097 16.7053 33.824C17.4318 31.9706 16.6393 30.0676 15.8632 28.3797C15.665 27.9991 15.1036 28.3301 15.2853 28.7107Z" fill="#2D3340"/>
<path d="M16.8871 33.0793C19.0337 33.0297 21.1968 33.129 23.3268 33.3441C23.7562 33.3937 23.7397 32.7318 23.3268 32.6822C21.1803 32.4505 19.0337 32.3678 16.8871 32.4174C16.4578 32.4174 16.4578 33.0793 16.8871 33.0793Z" fill="#2D3340"/>
<path d="M59.1085 31.9707C59.5708 33.129 60.0166 34.2874 60.479 35.4457C60.6936 36.0084 60.9083 36.5544 61.1394 37.1171C61.3871 37.7459 61.7504 38.4409 61.8164 39.1194C61.866 39.5331 62.5265 39.5496 62.4769 39.1194C62.3613 37.9114 61.6678 36.7034 61.2385 35.5781C60.7432 34.3205 60.2478 33.0628 59.7524 31.7886C59.5873 31.3915 58.9433 31.5735 59.1085 31.9707Z" fill="#2D3340"/>
<path d="M64.3431 45.1427C64.954 48.4522 66.0273 51.6625 67.5795 54.6577C68.2565 55.9484 68.9995 57.173 69.5279 58.5299C70.0232 59.7545 70.436 61.0286 70.8323 62.2863C70.9479 62.7 71.5919 62.518 71.4763 62.1043C71.0965 60.8797 70.7002 59.6552 70.2214 58.4637C69.726 57.1895 69.0821 56.0477 68.4381 54.8397C66.7704 51.7453 65.631 48.4191 65.0036 44.9606C64.9045 44.5469 64.277 44.729 64.3431 45.1427Z" fill="#2D3340"/>
<path d="M10.101 46.6153C8.03698 51.3646 6.07205 56.1635 4.23921 60.9955C4.0906 61.3926 4.71806 61.5581 4.88318 61.1775C6.69951 56.3951 8.63142 51.6459 10.6789 46.9463C10.844 46.5491 10.2826 46.2182 10.101 46.6153Z" fill="#2D3340"/>
<path d="M1.53051 61.6245C10.7112 62.0878 19.8754 62.7663 29.0231 63.6268C29.5515 63.6764 29.5515 62.849 29.0231 62.7994C19.8754 61.9389 10.7112 61.2604 1.53051 60.7971C0.985613 60.764 1.00213 61.5914 1.53051 61.6245Z" fill="#2D3340"/>
<path d="M28.6765 63.2626C29.7333 67.3665 34.0594 68.9882 37.9068 68.9717C41.5889 68.9551 46.6747 67.7471 46.9554 63.2461C46.9884 62.7165 46.1628 62.7165 46.1298 63.2461C45.8656 67.3334 40.8459 68.1774 37.626 68.1443C34.2246 68.0946 30.4103 66.655 29.4856 63.031C29.337 62.5345 28.5444 62.7496 28.6765 63.2626Z" fill="#2D3340"/>
<path d="M46.6421 64.1729C51.1334 62.6671 55.9549 63.3124 60.6113 63.2959C65.3833 63.2959 70.1553 62.9318 74.8943 62.2534C75.4227 62.1872 75.1915 61.3763 74.6796 61.459C69.8086 62.1541 64.888 62.485 59.9674 62.4685C55.4431 62.4519 50.8032 61.9058 46.4275 63.3786C45.9156 63.5441 46.1302 64.355 46.6421 64.1729Z" fill="#2D3340"/>
<path d="M55.9049 35.7437C55.9049 35.7437 59.8512 37.7625 61.4364 41.8829C63.0381 46.0034 65.713 58.4308 39.0295 61.8728C39.0295 61.8728 22.8807 62.3362 15.0705 54.7076C15.0705 54.7076 9.58847 49.0151 14.7568 41.2872C19.925 33.5593 32.3421 32.5168 37.7416 32.1859C43.141 31.8549 49.4321 32.5499 55.9049 35.7437Z" fill="#F1F1F1" class="stamp-pizza-fill" />
<path d="M38.5777 63C37.3055 63 33.874 62.9301 29.8733 62.2308C25.2031 61.4091 18.7585 59.556 14.6406 55.3427C14.5737 55.2728 13.2011 53.7518 12.4478 51.1994C11.7615 48.8393 11.5272 45.133 14.2891 40.8149C19.8131 32.231 33.3383 31.3569 37.791 31.0772C44.3527 30.6576 50.5797 31.9513 56.3213 34.8884C56.4886 34.9758 60.4224 37.1086 62.0461 41.5142C62.883 43.7694 63.9208 48.175 61.4937 52.4581C58.4137 57.8602 50.8977 61.4091 39.1301 62.9825H39.1134C39.0966 63 38.9125 63 38.5777 63ZM40.1847 31.5317C39.3979 31.5317 38.6112 31.5492 37.8077 31.6017C33.422 31.8814 20.0809 32.738 14.6909 41.1121C12.565 44.4162 11.9624 47.7554 12.8998 51.0246C13.6028 53.4721 14.9587 54.9581 14.9754 54.9756C22.6252 62.7727 38.5275 62.493 39.0631 62.4755C50.6634 60.9196 58.0454 57.4581 61.0417 52.1959C63.3685 48.105 62.3641 43.8743 61.5606 41.7065C60.0039 37.5282 56.1539 35.4128 56.0702 35.3604C51.1321 32.8254 45.7923 31.5317 40.1847 31.5317Z" fill="#2D3340"/>
<path d="M37.4284 30.4977C37.3953 35.9916 37.1477 41.5186 37.7916 46.996C38.4191 52.4237 39.4759 57.9342 38.4686 63.3784C38.3861 63.7921 39.03 63.9742 39.1126 63.5605C40.1198 58.1493 39.1291 52.705 38.5016 47.3104C37.8412 41.7338 38.0723 36.1075 38.1054 30.4977C38.0888 30.0675 37.4284 30.0675 37.4284 30.4977Z" fill="#2D3340"/>
<path d="M33.3827 45.9535C30.0968 47.6248 26.6623 48.9983 23.3103 50.5372C19.8758 52.1093 16.4578 53.6813 13.0233 55.2699C12.6435 55.452 12.9738 56.0146 13.3535 55.8491C16.7881 54.2771 20.2061 52.705 23.6406 51.1164C26.9925 49.5775 30.427 48.204 33.7129 46.5326C34.0927 46.3341 33.7625 45.7714 33.3827 45.9535Z" fill="#2D3340"/>
<path d="M25.127 38.1265C26.6296 38.7057 27.934 39.6324 29.288 40.4763C30.5925 41.2706 31.963 41.9491 33.35 42.611C36.3387 44.0341 39.3273 45.5069 42.316 46.9466C48.3595 49.8921 54.4029 52.8707 60.4298 55.8659C60.8096 56.0479 61.1398 55.4853 60.76 55.2867C54.634 52.2253 48.5081 49.2136 42.3656 46.2184C39.3934 44.7622 36.4047 43.3226 33.416 41.8829C31.9464 41.1713 30.4934 40.4432 29.1064 39.5496C27.8845 38.7553 26.6626 37.9941 25.2921 37.4646C24.8958 37.3488 24.7307 37.9776 25.127 38.1265Z" fill="#2D3340"/>
<path d="M32.5905 53.5326C33.3666 53.1355 33.8619 52.3577 33.7463 51.4807C33.6142 50.4713 32.8052 49.9252 31.8805 49.7432C30.8567 49.5446 29.7009 49.4453 28.7927 50.0741C28.0332 50.6036 27.5213 51.5469 27.4222 52.457C27.3231 53.4499 27.868 54.1945 28.7927 54.4924C29.2551 54.6413 29.7504 54.6579 30.2128 54.5586C30.609 54.4759 30.4769 54.4428 30.6751 54.6579C30.7577 54.7572 30.7907 54.9888 30.8732 55.1047C31.4016 55.7831 32.4914 55.5515 33.1024 55.1047C33.7959 54.5751 32.9538 53.6319 32.574 53.152C32.3098 52.8211 31.8475 53.2844 32.1116 53.6154C32.2107 53.7312 32.6896 54.2938 32.6896 54.4924C32.6731 54.8895 31.9795 54.7903 31.6988 54.6579C31.1705 54.3931 31.4347 54.4593 31.187 54.0787C31.1374 53.996 31.0714 53.8967 30.9888 53.847C30.7081 53.665 30.4439 53.8139 30.1632 53.8801C29.3046 54.0622 28.1653 53.7974 28.0662 52.7714C27.9176 51.2987 29.3211 50.1899 30.6586 50.2396C31.286 50.2727 32.1612 50.3223 32.6565 50.7526C33.3996 51.431 33.0693 52.5232 32.2437 52.9369C31.8805 53.152 32.2272 53.7312 32.5905 53.5326Z" fill="#2D3340"/>
<path d="M34.5384 36.7362C35.2484 37.0175 35.7107 37.7622 35.4961 38.5234C35.2484 39.3673 34.4228 39.6487 33.6302 39.6818C33.0853 39.7149 32.4743 39.6487 31.9955 39.3508C31.1038 38.8213 31.1369 37.514 32.1441 37.1003C32.2762 37.0506 32.3918 36.9348 32.3918 36.7859C32.3753 36.2232 32.1771 35.793 32.8046 35.7103C33.2834 35.6441 33.8118 35.6937 34.2907 35.6772C34.1916 35.5944 34.076 35.5117 33.9769 35.4289C34.0595 35.7434 34.1421 36.0578 34.2411 36.3722C34.3732 36.7693 35.0172 36.6038 34.8851 36.1901C34.786 35.8757 34.687 35.5613 34.6209 35.2469C34.5879 35.1145 34.4393 34.9987 34.3072 34.9987C33.5807 35.0152 32.689 34.8829 31.979 35.098C31.8799 35.1311 31.7808 35.2138 31.7478 35.3297C31.6487 35.793 31.7313 36.306 31.7478 36.7693C31.8304 36.67 31.9129 36.5542 31.9955 36.4549C31.0213 36.8686 30.4103 37.878 30.8231 38.9371C31.269 40.0458 32.5734 40.3768 33.6467 40.3437C34.8026 40.3106 35.8923 39.7976 36.1731 38.5896C36.4372 37.4809 35.7437 36.488 34.7365 36.0909C34.3237 35.9419 34.1421 36.5707 34.5384 36.7362Z" fill="#2D3340"/>
<path d="M16.9201 43.0412C17.465 42.3958 18.1585 41.7339 19.0832 41.9655C19.9088 42.1641 20.5528 42.9088 20.8335 43.6865C21.1472 44.5305 21.1142 45.5233 20.4702 46.2018C20.1895 46.4997 19.8097 46.7313 19.4134 46.8472C19.0171 46.963 17.6301 47.1285 17.8448 46.1853C17.8943 45.9867 17.7457 45.7385 17.5311 45.7716C16.6889 45.8543 15.8798 46.0032 15.0708 46.2349C15.2029 46.3176 15.3349 46.3838 15.4836 46.4666C15.4175 46.0032 15.3845 45.5564 15.368 45.0931C15.2854 45.1924 15.2029 45.3082 15.1203 45.4075C15.9294 45.1924 16.7385 44.9773 17.5476 44.7621C17.7952 44.6959 17.8613 44.3815 17.6962 44.2161C17.3659 43.8851 16.7055 43.3059 17.2008 42.7433C17.4815 42.4289 17.0192 41.949 16.7385 42.2799C15.9954 43.1239 16.5568 44.0175 17.2338 44.6794C17.2834 44.4974 17.3329 44.3153 17.3824 44.1333C16.5734 44.3484 15.7643 44.5636 14.9552 44.7787C14.8231 44.8118 14.7075 44.9607 14.7075 45.0931C14.724 45.6226 14.7735 46.1356 14.8396 46.6486C14.8726 46.8306 15.0873 46.9299 15.2524 46.8803C16.0119 46.6651 16.755 46.5162 17.5311 46.4335C17.432 46.3011 17.3164 46.1522 17.2173 46.0198C16.9201 47.3105 18.3236 47.7739 19.3639 47.5587C20.6518 47.294 21.6426 46.2184 21.6921 44.8945C21.7416 43.5872 21.0316 42.2138 19.8758 41.6015C18.5383 40.8899 17.3494 41.5353 16.4578 42.5944C16.1771 42.8922 16.6394 43.3556 16.9201 43.0412Z" fill="#2D3340"/>
<path d="M45.0405 34.4196C46.3285 34.3534 47.6494 34.5851 48.0788 36.0082C48.442 37.2493 47.5669 38.4407 46.378 38.7221C46.4771 38.9041 46.5927 39.0861 46.6917 39.2681C47.4018 38.4738 47.9962 37.1831 47.6164 36.1075C47.3027 35.1974 45.7506 34.4362 44.8589 34.4196C45.2882 34.4362 45.2882 33.7742 44.8589 33.7577C43.9177 33.7246 43.8682 34.6678 44.6607 35.0153C45.3543 35.3297 46.345 35.4125 46.8404 36.0578C47.4513 36.8521 46.8073 38.176 46.2294 38.8214C46.0147 39.0696 46.2294 39.4502 46.5431 39.3674C48.0127 39.0199 49.086 37.5803 48.7723 36.0578C48.3925 34.2045 46.7083 33.6749 45.0405 33.7742C44.6112 33.7908 44.6112 34.4527 45.0405 34.4196Z" fill="#2D3340"/>
<path d="M57.5894 39.02C56.5492 40.3769 55.9382 42.2137 56.285 43.9347C56.5987 45.4902 58.2664 46.4997 59.736 46.7644C59.9837 46.8141 60.2974 46.5328 60.1158 46.2846C59.1911 45.0269 58.6627 43.521 58.6792 41.949C58.6792 40.9561 59.3232 39.5992 58.5471 38.7552C58.2499 38.4408 57.7876 38.9042 58.0848 39.2186C58.5306 39.6985 58.1013 40.7079 58.0518 41.2871C58.0022 41.8828 58.0187 42.4785 58.1013 43.0577C58.2829 44.3484 58.7948 45.5399 59.5544 46.599C59.6865 46.4335 59.8021 46.268 59.9342 46.1191C58.4646 45.8543 56.995 44.878 56.8959 43.2894C56.8134 41.8497 57.3252 40.4762 58.1839 39.351C58.415 39.02 57.8536 38.689 57.5894 39.02Z" fill="#2D3340"/>
<path d="M51.15 53.1022C52.0912 54.5419 50.6547 55.8492 49.5153 56.5442C48.987 56.8586 48.4256 57.1896 47.8146 57.3054C46.956 57.4709 46.1139 57.1896 45.3048 56.9248C45.3048 57.1399 45.3048 57.3551 45.3048 57.5702C47.8311 56.7428 49.7961 54.8729 50.8033 52.4072C50.6382 52.4734 50.4731 52.5396 50.3244 52.6058C50.5886 52.7382 50.8033 52.9202 50.9849 53.1684C51.2326 53.4994 51.8105 53.1684 51.5628 52.8375C51.2987 52.49 51.051 52.2583 50.6712 52.0432C50.473 51.9273 50.2584 52.0432 50.1923 52.2417C49.2842 54.4757 47.4348 56.1802 45.1562 56.9414C44.8424 57.0407 44.8424 57.4709 45.1562 57.5867C46.0808 57.8846 47.0385 58.1659 48.0293 57.9673C48.9209 57.7853 49.7795 57.2558 50.5061 56.7262C51.7445 55.8327 52.7022 54.244 51.7445 52.7878C51.4803 52.4072 50.9189 52.7547 51.15 53.1022Z" fill="#2D3340"/>
<path d="M37.1311 59.4899C35.9918 56.2134 31.3354 55.8659 29.0567 58.1495C28.8586 58.3481 28.9907 58.7287 29.2879 58.7122C30.5098 58.646 31.7152 58.6625 32.9371 58.7949C33.8948 58.8942 35.9753 58.9604 36.5037 59.9367C36.7018 60.3173 37.2798 59.9698 37.0816 59.6058C36.5037 58.5302 35.0176 58.4309 33.9443 58.2654C32.4087 58.0337 30.8566 57.9675 29.3044 58.0503C29.387 58.2323 29.453 58.4309 29.5356 58.6129C31.4345 56.7099 35.546 56.8423 36.5202 59.6554C36.6358 60.0526 37.2632 59.8871 37.1311 59.4899Z" fill="#2D3340"/>
<path d="M27.1079 35.2306C23.9872 34.4363 21.5599 38.7553 23.2771 41.2375C23.4753 41.5188 23.8551 41.3865 23.8881 41.072C24.0367 39.9302 24.6641 39.0366 25.3411 38.1265C25.9521 37.3157 26.464 36.4386 27.2565 35.7767C27.5868 35.5119 27.1079 35.0486 26.7942 35.3133C25.9026 36.058 25.3081 37.0674 24.6146 37.9941C23.9211 38.9374 23.3927 39.8806 23.2276 41.072C23.4257 41.0224 23.6404 40.9562 23.8385 40.9066C22.4846 38.9208 24.3504 35.2141 26.9263 35.876C27.3391 35.9753 27.5207 35.3299 27.1079 35.2306Z" fill="#2D3340"/>
<path d="M29.6507 42.3296C28.6765 41.618 27.3885 41.6677 26.4804 42.5282C25.4566 43.5045 25.4731 45.2255 26.3978 46.268C27.2729 47.2609 29.3369 47.4429 30.1791 46.3342C31.1037 45.1262 30.6414 43.4218 29.7167 42.3792C29.436 42.0648 28.9737 42.5282 29.2544 42.8426C29.8984 43.5707 30.2947 44.696 29.8323 45.6392C29.2214 46.8637 27.2564 46.5162 26.6455 45.4737C25.6052 43.67 27.6692 41.7008 29.3369 42.9088C29.6672 43.157 29.9974 42.5778 29.6507 42.3296Z" fill="#2D3340"/>
<path d="M45.7006 51.0172C45.2052 50.4545 44.1484 50.5538 43.4714 50.6366C42.6623 50.7358 41.8863 51.0502 41.3083 51.646C40.2846 52.6719 40.235 54.4922 41.556 55.3031C42.8935 56.1305 44.6768 55.6175 45.585 54.3929C46.229 53.5159 46.8564 51.2819 45.4529 50.7855C45.0566 50.6366 44.875 51.2819 45.2713 51.4308C46.1959 51.7618 45.2878 53.7476 44.908 54.1778C44.2145 54.9886 42.943 55.3362 41.9853 54.7901C40.912 54.1944 41.0441 52.7878 41.8532 52.0431C42.2165 51.6956 42.6954 51.4805 43.1742 51.3647C43.62 51.2654 44.875 51.0833 45.2217 51.497C45.5024 51.7949 45.9813 51.3316 45.7006 51.0172Z" fill="#2D3340"/>
<path d="M59.2075 49.5115C59.8185 48.1711 58.0186 47.3437 56.9454 47.3106C55.5749 47.2775 54.2704 48.3035 54.1548 49.71C54.0558 51.0504 55.063 52.275 56.4335 52.275C58.0352 52.275 58.8277 50.5705 59.2075 49.2467C59.3231 48.833 58.6791 48.6675 58.5635 49.0647C58.3489 49.8093 58.0352 50.6367 57.4737 51.1828C56.6481 51.9771 55.2776 51.5965 54.9144 50.5209C54.5841 49.5611 55.0795 48.6179 55.9546 48.1876C56.3674 47.9891 56.8298 47.9394 57.2756 48.0387C57.6554 48.1049 58.9268 48.5351 58.6296 49.1971C58.4645 49.5611 59.0424 49.8921 59.2075 49.5115Z" fill="#2D3340"/>
<path d="M44.2637 37.8451C44.0656 37.299 43.95 36.968 43.4051 36.6867C42.7446 36.3392 41.8695 36.1406 41.1429 36.273C39.6238 36.5378 38.534 38.0436 38.8643 39.566C39.1945 41.0554 40.6476 42.0317 42.1502 41.6842C43.9665 41.2705 44.594 39.4667 44.2472 37.7954C44.1647 37.3817 43.5207 37.5472 43.6032 37.9774C43.8674 39.2516 43.4546 40.6582 42.0676 41.0223C40.8787 41.3367 39.7394 40.592 39.4752 39.384C39.2275 38.2422 40.0531 37.1335 41.176 36.9184C41.7374 36.8025 42.3813 36.968 42.9097 37.1997C43.4051 37.4148 43.4381 37.5472 43.6032 38.0105C43.7684 38.4077 44.3958 38.2422 44.2637 37.8451Z" fill="#2D3340"/>
<path d="M25.3409 52.9368C25.2583 52.2418 24.4162 52.0928 23.8217 52.0432C22.9961 51.977 22.121 52.2583 21.51 52.821C20.2551 53.9628 20.2221 56.0478 21.477 57.2061C22.7154 58.3479 24.6308 58.2321 25.7041 56.9414C26.7114 55.7168 26.5462 53.5491 25.2253 52.6058C24.8785 52.3576 24.5483 52.9368 24.895 53.185C25.8197 53.8469 25.9188 55.4852 25.3243 56.3622C24.6308 57.3716 23.2934 57.6364 22.2696 56.9745C21.2293 56.3126 20.9321 54.9556 21.5431 53.88C21.8403 53.367 22.3191 52.9699 22.8806 52.8044C23.0952 52.7382 24.6639 52.5562 24.6969 52.9368C24.7299 53.3505 25.3904 53.3505 25.3409 52.9368Z" fill="#2D3340"/>
<path d="M14.6086 48.0386C15.913 47.8235 17.3496 48.3696 17.7789 49.7265C18.1587 50.9511 17.3661 52.0432 16.4414 52.7382C16.59 52.8872 16.7386 53.0361 16.8873 53.185C17.3991 52.0267 17.4982 51.1331 17.1019 49.9251C16.6891 48.7005 15.7149 48.0717 14.6911 47.3767C14.3444 47.1285 14.0142 47.7077 14.3609 47.9559C15.2195 48.5516 16.1277 49.0811 16.4744 50.1071C16.8047 51.1165 16.7552 51.8943 16.3258 52.8541C16.2103 53.1188 16.4744 53.5325 16.7717 53.3009C18.0101 52.3576 18.9678 50.9014 18.3238 49.3128C17.6798 47.7242 16.0121 47.1285 14.427 47.3933C14.0142 47.476 14.1958 48.1048 14.6086 48.0386Z" fill="#2D3340"/>
<path d="M39.9381 47.8895C39.9546 48.4852 39.9712 49.0809 39.9877 49.6767C40.0042 50.0076 39.8886 50.6199 40.2188 50.835C40.516 51.0336 40.8793 50.8019 41.1435 50.6861C41.6554 50.4544 42.1673 50.2062 42.6626 49.9414C42.8608 49.8256 42.8608 49.5774 42.7287 49.4285C42.1342 48.7003 41.1765 48.4356 40.5326 47.7737C40.2353 47.4758 39.773 47.9391 40.0702 48.237C40.7307 48.8989 41.6719 49.1802 42.2663 49.8918C42.2828 49.7263 42.3159 49.5443 42.3324 49.3788C42.0352 49.5443 41.7214 49.6932 41.4077 49.8421C41.2261 49.9249 40.6647 50.3055 40.4665 50.2393C40.5491 50.322 40.6151 50.3882 40.6977 50.471C40.5821 50.0573 40.6481 49.5774 40.6316 49.1637C40.6151 48.75 40.5986 48.3197 40.5986 47.906C40.5986 47.4592 39.9381 47.4592 39.9381 47.8895Z" fill="#2D3340"/>
<path d="M55.1124 39.1358C54.2868 39.1193 53.4447 39.1027 52.6191 39.0862C52.3714 39.0862 52.2063 39.3675 52.3384 39.5826C52.8007 40.41 53.2795 41.2374 53.7749 42.0483C53.907 42.2634 54.2042 42.2469 54.3528 42.0483C54.8317 41.3202 55.2115 40.559 55.5252 39.7481C55.6738 39.351 55.0463 39.1855 54.8812 39.5661C54.6005 40.3273 54.2207 41.0389 53.7749 41.7173C53.9731 41.7173 54.1547 41.7173 54.3528 41.7173C53.8575 40.9065 53.3786 40.0791 52.9163 39.2517C52.8172 39.4171 52.7181 39.5826 52.6356 39.7481C53.4612 39.7647 54.3033 39.7812 55.1289 39.7977C55.5252 39.8143 55.5252 39.1524 55.1124 39.1358Z" fill="#2D3340"/>
<path d="M40.12 33.1457C40.7805 33.6421 41.4575 34.1385 42.118 34.635C42.118 34.4364 42.118 34.2544 42.118 34.0558C41.4575 34.5191 40.731 34.8336 39.9219 34.9328C40.0209 35.0652 40.1365 35.2142 40.2356 35.3465C40.3512 34.5191 40.4998 33.6917 40.6319 32.8643C40.6979 32.4506 40.054 32.2686 39.9879 32.6823C39.8558 33.5097 39.7237 34.3371 39.5916 35.1645C39.5586 35.3465 39.6742 35.6113 39.9054 35.5782C40.83 35.4789 41.6721 35.1645 42.4317 34.6184C42.6464 34.4695 42.6464 34.2047 42.4317 34.0392C41.7712 33.5428 41.0942 33.0464 40.4337 32.5499C40.1035 32.3183 39.7733 32.8974 40.12 33.1457Z" fill="#2D3340"/>
<path d="M23.8718 46.0363C24.2515 46.6321 24.6148 47.2112 24.9781 47.8235C25.0771 47.658 25.1762 47.4926 25.2588 47.3271C24.879 47.3602 24.5157 47.3933 24.136 47.4429C23.8718 47.476 23.459 47.4595 23.2608 47.658C23.4094 47.658 23.5746 47.658 23.7232 47.658C23.8553 47.7739 23.8222 47.5257 23.8387 47.3933C23.8718 47.2112 23.9213 47.0127 23.9543 46.8306C24.0369 46.4831 24.136 46.1356 24.235 45.8047C24.3671 45.391 23.7232 45.2255 23.5911 45.6226C23.4259 46.1191 23.2938 46.6155 23.1948 47.1285C23.1287 47.4264 22.9471 47.8732 23.2278 48.1048C23.3599 48.2207 23.558 48.2372 23.6901 48.1048C23.6571 48.1379 23.9213 48.1048 23.9543 48.1048C24.1029 48.0883 24.2681 48.0552 24.4167 48.0386C24.6809 48.0055 24.9451 47.989 25.2092 47.9559C25.4569 47.9394 25.6386 47.6911 25.49 47.4595C25.1267 46.8637 24.7634 46.268 24.3836 45.6723C24.202 45.3579 23.6406 45.6888 23.8718 46.0363Z" fill="#2D3340"/>
<path d="M21.0812 37.9278C20.3217 37.9609 19.5621 38.0602 18.8356 38.2588C18.5714 38.3249 18.5384 38.6228 18.687 38.8048C19.2154 39.4502 19.8428 40.079 20.1731 40.8568C20.2722 41.0885 20.6354 41.0554 20.751 40.8568C21.1968 40.1121 21.494 39.3178 21.6261 38.4573C21.6922 38.0436 21.0482 37.8616 20.9822 38.2753C20.8501 39.0696 20.5859 39.8143 20.1731 40.5093C20.3712 40.5093 20.5529 40.5093 20.751 40.5093C20.4042 39.6819 19.7107 39.02 19.1493 38.3249C19.0998 38.507 19.0503 38.689 19.0007 38.871C19.6777 38.689 20.3712 38.5897 21.0812 38.5566C21.494 38.5732 21.494 37.9112 21.0812 37.9278Z" fill="#2D3340"/>
<path d="M32.6069 44.4642C35.0507 44.9275 36.0579 47.6745 34.5553 49.6437C34.7535 49.7264 34.9516 49.8092 35.1663 49.8919C35.3149 48.7501 35.2984 47.5752 34.7535 46.5327C34.159 45.3909 33.0197 44.7786 31.9134 44.2491C31.8804 44.4476 31.8639 44.6462 31.8308 44.8613C32.1115 44.7786 32.3922 44.6793 32.6729 44.5966C33.0692 44.4642 32.9041 43.8188 32.4913 43.9512C32.2106 44.0339 31.9299 44.1332 31.6492 44.216C31.4015 44.2987 31.3024 44.6959 31.5666 44.8282C32.4913 45.275 33.482 45.7384 34.06 46.6485C34.6214 47.5587 34.6709 48.6839 34.5223 49.7264C34.4728 50.107 34.8856 50.2891 35.1333 49.9747C36.9 47.6745 35.6286 44.3649 32.7885 43.8354C32.3592 43.7526 32.1941 44.3815 32.6069 44.4642Z" fill="#2D3340"/>
<path d="M35.4964 45.8377C37.4118 45.0103 39.2447 44.0506 41.094 43.0908C42.9599 42.131 44.9083 41.4029 46.8732 40.6583C48.64 39.9798 50.4233 39.2848 52.0911 38.3746C53.9734 37.3487 55.7898 36.1903 57.6391 35.0816C58.0024 34.8665 57.6721 34.2873 57.3089 34.5024C55.5091 35.578 53.7423 36.7199 51.8929 37.7293C50.0601 38.7387 48.0951 39.4834 46.1467 40.228C44.3799 40.9065 42.5966 41.5849 40.8959 42.4454C38.997 43.4052 37.1146 44.3981 35.1662 45.2586C34.7699 45.4406 35.1001 46.0032 35.4964 45.8377Z" fill="#2D3340"/>
<path d="M23.6073 36.6371C22.3194 35.9586 21.0149 35.3132 19.694 34.6844C19.3142 34.5024 18.984 35.065 19.3637 35.2636C20.6847 35.8924 21.9892 36.5378 23.2771 37.2163C23.6569 37.3983 23.9871 36.8356 23.6073 36.6371Z" fill="#2D3340"/>
<path d="M51.3313 46.4831C52.7513 46.4666 53.7751 44.9442 52.933 43.67C52.0743 42.3793 50.1589 42.28 48.7884 42.462C47.4179 42.644 45.6346 43.4218 45.7997 45.1097C45.9649 46.8968 48.0124 47.2278 49.4159 46.7976C49.2838 46.7148 49.1517 46.6486 49.0031 46.5659C49.1022 47.0954 49.2343 47.9228 49.7461 48.2372C50.2745 48.5682 50.869 48.1876 51.3973 48.1048C51.5294 48.0883 51.645 47.9228 51.645 47.7904C51.645 47.1616 51.5625 46.5824 51.3973 45.9867C51.2818 45.573 50.6543 45.755 50.7534 46.1687C50.902 46.7148 50.968 47.2443 50.968 47.7904C51.0506 47.6911 51.1332 47.5753 51.2157 47.476C50.902 47.5257 50.291 47.8732 50.0103 47.6084C49.7792 47.3933 49.6966 46.6983 49.6306 46.4004C49.5975 46.2349 49.3829 46.1191 49.2178 46.1687C48.26 46.4666 46.6914 46.45 46.4437 45.1759C46.1795 43.8355 47.8307 43.2728 48.838 43.1405C49.6801 43.0246 50.5883 43.0081 51.3808 43.3556C51.8432 43.5542 52.3385 43.8686 52.5037 44.3816C52.7348 45.1759 52.0578 45.8378 51.2983 45.8543C50.902 45.8378 50.902 46.4997 51.3313 46.4831Z" fill="#2D3340"/>
<path d="M51.2155 43.8189C51.4962 44.1498 51.6943 44.4808 51.8595 44.8779C52.0246 44.7456 52.2062 44.6132 52.3713 44.4808C52.0411 44.0671 51.6943 43.6534 51.3641 43.2397C51.1164 42.9418 50.6706 43.3224 50.8522 43.6368C51.1164 44.1167 51.3311 44.5966 51.4632 45.1262C51.6448 45.0269 51.8264 44.911 52.0081 44.8117C51.4632 44.3484 50.9843 43.8354 50.5715 43.2397C50.3403 42.8922 49.7789 43.2066 49.9936 43.5706C50.3899 44.216 50.8192 44.8283 51.298 45.4075C51.4467 45.2585 51.6118 45.0931 51.7604 44.9441C51.0339 44.3153 50.4064 43.6037 49.7789 42.8756C49.5313 42.5778 49.0854 42.9584 49.2671 43.2728C49.6964 44.0671 50.1917 44.8117 50.7531 45.5233C50.8357 45.3413 50.9018 45.1427 50.9843 44.9607C50.3899 45.0103 49.7129 43.9843 50.1257 43.5045C50.3403 43.2562 51.3971 43.6865 51.6283 43.7858C51.7109 43.5872 51.7934 43.3886 51.876 43.1735C51.1329 42.9915 50.4064 42.7763 49.6799 42.5447C49.3826 42.4454 49.1019 42.8756 49.3661 43.0908C49.9441 43.5872 50.5715 43.5375 51.298 43.6534C51.8099 43.7361 52.4374 44.2326 52.1237 44.7456C51.8925 45.1427 50.7697 45.1593 50.3899 45.1427C50.4229 45.3578 50.4559 45.573 50.4724 45.7881C51.0339 45.5895 51.876 45.4737 52.3548 45.1262C52.5695 44.9772 52.7016 44.7952 52.6851 44.5139C52.5695 43.2562 50.555 43.9678 49.9936 43.339C49.7624 43.0908 49.3496 43.3555 49.4487 43.6534C49.5973 44.1995 49.7789 44.729 49.9936 45.242C50.1752 45.1427 50.3569 45.0269 50.5385 44.9276C50.0431 44.4146 49.3496 43.2231 48.524 43.3886C48.3589 43.4217 48.2433 43.6368 48.2928 43.8023C48.5901 44.6297 49.135 45.2254 49.7624 45.8212C50.0596 46.119 50.5385 45.6557 50.2248 45.3578C49.5973 44.729 48.9368 44.1498 48.2433 43.5706C47.9461 43.3224 47.5663 43.6203 47.7314 43.9678C48.0121 44.6132 48.3754 45.1758 48.8377 45.7219C49.1185 46.0528 49.5643 45.573 49.3001 45.2585C48.8708 44.7125 48.3754 44.216 47.847 43.7692C47.5498 43.521 47.17 43.8189 47.3351 44.1664C47.6158 44.7456 47.9461 45.2751 48.3424 45.7881C48.4745 45.6226 48.6066 45.4406 48.7387 45.2751C48.1607 44.8448 47.6654 44.3484 47.203 43.8023C47.0049 43.5541 46.526 43.8189 46.6581 44.1167C46.9223 44.7456 47.2691 45.2916 47.6654 45.8377C47.8305 45.7053 48.0121 45.573 48.1773 45.4406C47.7149 45.06 47.2361 44.6628 46.7737 44.2822C46.5426 44.1002 46.0967 44.2657 46.2288 44.5966C46.4105 45.1096 46.6416 45.573 46.9719 46.0032C47.1535 46.268 47.5663 46.1852 47.5828 45.8377C47.5993 45.4075 47.4837 45.1262 47.2196 44.7952C47.0214 44.547 46.5426 44.8117 46.6747 45.1096C46.8563 45.5564 47.104 46.1025 47.6324 46.1852C48.3094 46.3011 48.524 45.6391 49.0194 45.3578C48.8873 45.3413 48.7552 45.3247 48.6231 45.3082C49.0194 45.8212 50.1092 47.0954 50.6376 45.9205C50.4394 45.8874 50.2413 45.8708 50.0266 45.8377C50.1752 46.268 50.3238 46.6817 50.4724 47.1119C50.6045 47.5091 51.2155 47.3601 51.1164 46.9299C51.0173 46.5493 50.8852 46.2018 50.7201 45.8377C50.522 45.9536 50.3403 46.0528 50.1422 46.1687C50.3899 46.5824 50.5055 46.9961 50.522 47.4925C50.6871 47.3932 50.8522 47.2939 51.0173 47.2112C50.6706 46.9464 50.3899 46.6651 50.1422 46.3011C49.8945 45.9536 49.3826 46.2514 49.5643 46.632C49.7294 46.963 49.8615 47.2939 49.9606 47.658C50.0431 47.9724 50.5055 47.9724 50.6045 47.658C50.7862 47.0126 50.7036 46.3342 50.3403 45.755C50.1917 45.5233 49.9936 45.3578 49.7954 45.1593C49.5147 44.8945 49.5313 45.0269 49.5808 44.6297C49.6138 44.4477 49.6799 44.2822 49.6964 44.1002C49.7624 43.6203 49.7789 43.0411 49.201 42.9418C48.4745 42.826 47.6158 43.2728 47.0709 43.703C46.8728 43.852 46.8398 44.2491 47.1535 44.3153C47.4177 44.3649 47.5663 44.365 47.7975 44.1995C48.0782 44.0009 48.1773 43.4548 48.491 43.339C48.4249 43.1239 48.3754 42.9087 48.3094 42.6936C47.7645 42.9087 47.2196 43.1073 46.6747 43.3224C46.2784 43.4714 46.46 44.1167 46.8563 43.9678C47.4012 43.7527 47.9461 43.5541 48.491 43.339C48.8873 43.19 48.7222 42.5447 48.3094 42.6936C48.0947 42.7763 47.9956 42.8094 47.847 42.9915C47.7314 43.1073 47.5333 43.703 47.3351 43.6699C47.3682 43.8685 47.3847 44.0671 47.4177 44.2822C47.7149 44.0671 48.7882 43.2893 49.0854 43.8189C49.2836 44.1664 48.7056 44.7621 48.8377 45.1593C48.9368 45.4571 49.201 45.5564 49.4322 45.7384C49.9771 46.1687 50.1587 46.8306 49.9771 47.4925C50.1917 47.4925 50.4064 47.4925 50.6211 47.4925C50.5055 47.0788 50.3569 46.6982 50.1587 46.3011C49.9606 46.4169 49.7789 46.5162 49.5808 46.632C49.8945 47.0788 50.2578 47.4429 50.6871 47.7738C50.8852 47.9228 51.1825 47.7242 51.1825 47.4925C51.1825 46.8802 51.0339 46.3673 50.7201 45.8377C50.489 45.4737 49.9771 45.7881 50.1422 46.1687C50.2908 46.4831 50.3899 46.7644 50.4724 47.0954C50.6871 47.0292 50.9018 46.9795 51.1164 46.9133C50.9678 46.4831 50.8192 46.0694 50.6706 45.6391C50.588 45.3909 50.1917 45.2751 50.0596 45.5564C49.878 45.9536 49.135 44.8779 49.0854 44.8117C48.9864 44.6959 48.8047 44.6959 48.6891 44.7621C48.2103 45.0103 47.6819 45.8543 47.3021 44.8945C47.1205 44.9938 46.9389 45.1096 46.7572 45.2089C46.8233 45.4075 46.8728 45.5895 46.9389 45.7881C47.137 45.7384 47.3517 45.6722 47.5498 45.6226C47.2691 45.2254 47.0544 44.8283 46.8728 44.365C46.6912 44.4642 46.5095 44.5801 46.3279 44.6794C46.7902 45.06 47.2691 45.4571 47.7314 45.8377C47.9956 46.0528 48.491 45.7715 48.2433 45.4406C47.88 44.9441 47.5333 44.4477 47.3021 43.8851C47.1205 43.9843 46.9389 44.1002 46.7572 44.1995C47.2526 44.7952 47.7975 45.3247 48.4249 45.7881C48.7552 46.0363 49.0359 45.5399 48.8212 45.2751C48.458 44.8117 48.1607 44.3153 47.9131 43.7858C47.7479 43.9182 47.5663 44.0505 47.4012 44.1829C47.9461 44.6297 48.4249 45.1262 48.8543 45.6722C49.0029 45.5233 49.168 45.3578 49.3166 45.2089C48.9038 44.7125 48.5736 44.1829 48.3259 43.5872C48.1607 43.7196 47.9791 43.852 47.814 43.9843C48.491 44.547 49.1515 45.1427 49.7954 45.7715C49.9441 45.6226 50.1092 45.4571 50.2578 45.3082C49.7294 44.7952 49.2175 44.2822 48.9698 43.5706C48.8873 43.703 48.8212 43.8354 48.7387 43.9843C48.9533 43.9347 49.9606 45.1923 50.1092 45.3578C50.3238 45.573 50.7862 45.3578 50.6541 45.0434C50.4394 44.5139 50.2578 43.9843 50.1092 43.4548C49.9275 43.5541 49.7459 43.6699 49.5643 43.7692C50.0101 44.2491 50.6871 44.1167 51.265 44.2326C51.4136 44.2657 51.6613 44.2822 51.7934 44.365C52.0906 44.5635 51.942 44.4973 51.7274 44.6297C51.3476 44.8614 50.7697 44.9607 50.3403 45.0931C49.9936 45.2089 50.0431 45.7384 50.4229 45.7384C51.0999 45.755 51.7769 45.6391 52.3878 45.3247C52.9327 45.0434 52.9658 44.8283 52.8502 44.2822C52.7511 43.7361 52.619 43.3721 52.0906 43.1073C51.3971 42.7598 50.4559 43.0577 49.8615 42.5447C49.7624 42.7267 49.6468 42.9087 49.5478 43.0908C50.2743 43.3224 51.0008 43.5376 51.7439 43.7196C52.0906 43.8023 52.3548 43.2728 51.9916 43.1073C51.3806 42.8425 49.6138 42.131 49.4322 43.19C49.2505 44.2326 49.7789 45.6226 51.0008 45.5068C51.298 45.4737 51.4136 45.1758 51.232 44.9441C50.7036 44.2822 50.2578 43.5706 49.8615 42.826C49.6964 42.9584 49.5147 43.0908 49.3496 43.2231C49.9771 43.9513 50.6045 44.6628 51.3311 45.2916C51.6613 45.573 52.0576 45.1593 51.7934 44.8283C51.3476 44.2822 50.9678 43.7196 50.6045 43.1239C50.4064 43.2397 50.2248 43.339 50.0266 43.4548C50.4724 44.1002 50.9678 44.6628 51.5622 45.1758C51.8099 45.3744 52.2062 45.1923 52.1071 44.8614C51.942 44.2822 51.7274 43.7527 51.4301 43.2231C51.265 43.3555 51.0834 43.4879 50.9183 43.6203C51.2485 44.034 51.5953 44.4477 51.9255 44.8614C52.1897 45.1758 52.586 44.7787 52.4374 44.4642C52.2392 44.0174 52.0081 43.6368 51.6943 43.2728C51.4136 43.0246 50.9513 43.4879 51.2155 43.8189Z" fill="#2D3340"/>
<path d="M49.0853 45.3909C48.8046 45.4075 48.623 45.5233 48.4248 45.6888C48.1276 45.9205 47.9129 45.8046 47.5992 45.6061C47.2359 45.3744 46.9057 45.9536 47.269 46.1852C47.5662 46.3838 47.9129 46.5658 48.2927 46.4997C48.4413 46.4666 48.5734 46.4004 48.689 46.3176C48.8046 46.2349 48.9367 46.0694 49.0853 46.0529C49.5146 46.0363 49.5146 45.3744 49.0853 45.3909Z" fill="#2D3340"/>
<path d="M20.3878 44.0175C20.9657 43.7693 20.5695 43.0908 20.2722 42.7764C19.7273 42.1972 18.9348 41.949 18.1587 42.0317C17.7789 42.0814 17.7129 42.5447 18.0761 42.6771C18.7366 42.9419 19.4301 42.6275 19.9915 43.1404C20.2392 43.3556 20.4208 43.6203 20.5364 43.9347C20.7181 44.4808 20.2722 43.6369 20.1897 43.521C19.7108 42.9088 18.7531 41.8993 17.878 41.9821C17.1349 42.0483 17.1184 42.8922 17.6138 43.3059C17.9275 43.5707 18.3403 43.5872 18.7366 43.6203C19.2485 43.6865 19.6778 43.7196 19.9585 44.2326C19.9915 44.2822 20.2062 45.0931 20.3053 45.0435C20.4208 45.0435 20.5199 45.0435 20.6355 45.0435C20.3053 44.878 20.0246 44.0837 19.8264 43.7858C19.5952 43.4383 19.3476 43.0908 19.0503 42.8095C18.7201 42.4951 17.9936 41.8332 17.5477 42.2965C17.0524 42.826 17.944 43.4052 18.2578 43.6865C19.2155 44.4974 20.1071 45.3579 20.3218 46.6486C20.5199 46.5659 20.7181 46.4831 20.9327 46.4004C20.4704 45.4571 19.8925 44.5967 19.1824 43.8189C18.6706 43.2728 17.9936 42.462 17.168 42.7267C16.9863 42.7929 16.8377 43.0246 16.9698 43.2066C17.7459 44.3319 19.1164 45.0765 19.4466 46.4666C19.6283 46.3673 19.8099 46.2514 19.9915 46.1522C19.2485 45.3744 18.4889 44.5801 17.7459 43.8024C17.5973 43.9513 17.4322 44.1168 17.2836 44.2657C18.0431 44.9938 18.5385 45.8543 18.7531 46.8803C18.9348 46.781 19.1164 46.6651 19.298 46.5659C18.7201 45.9867 18.1917 45.391 17.6964 44.7456C17.4487 44.4146 16.9203 44.6959 17.1184 45.0765C17.3496 45.5068 17.5312 45.8874 17.5973 46.3673C17.7954 46.2845 17.9936 46.2018 18.2082 46.1191C17.7954 45.5233 17.3331 44.9773 16.8047 44.4974C16.59 44.2988 16.2433 44.4312 16.2433 44.729C16.2433 45.2255 16.3589 45.6061 16.6561 46.0032C16.8212 45.8708 17.0028 45.7385 17.168 45.6061C16.7717 45.2917 16.3589 44.9773 15.9626 44.6628C15.7644 44.5139 15.3682 44.5801 15.4012 44.8945C15.4342 45.1758 15.4672 45.4406 15.5498 45.7219C15.7479 45.6392 15.9461 45.5564 16.1607 45.4737C15.9296 45.1593 15.5828 44.8118 15.1535 45.0269C14.8398 45.1924 14.7572 45.5564 14.9553 45.8378C15.0874 45.6723 15.203 45.5068 15.3351 45.3579C15.2691 45.3248 15.203 45.3082 15.1535 45.2751C14.7572 45.1262 14.5921 45.755 14.9719 45.9205C15.0379 45.9536 15.104 45.9701 15.1535 46.0032C15.4177 46.1025 15.6819 45.7385 15.5333 45.5233C15.5498 45.6226 15.5828 45.7219 15.5993 45.8212C15.814 46.1025 16.3093 45.9536 16.2103 45.573C16.1442 45.3579 16.0947 45.1427 16.0782 44.9276C15.8965 45.0104 15.6984 45.0765 15.5168 45.1593C15.9131 45.4737 16.3259 45.7881 16.7221 46.1025C16.9863 46.3176 17.4817 46.0363 17.234 45.7054C17.0028 45.4075 16.9203 45.1427 16.9203 44.7621C16.7387 44.8449 16.5405 44.9111 16.3589 44.9938C16.8542 45.4406 17.2836 45.937 17.6633 46.4831C17.878 46.7975 18.3238 46.599 18.2743 46.2349C18.1917 45.7054 17.9771 45.2586 17.7294 44.7787C17.5312 44.8945 17.3496 44.9938 17.1515 45.1096C17.6798 45.8047 18.2413 46.45 18.8522 47.0623C19.0999 47.3105 19.4631 47.0623 19.3971 46.7479C19.1494 45.6061 18.6045 44.6298 17.7624 43.8354C17.4487 43.5376 17.0028 44.0009 17.3001 44.2988C18.0431 45.0765 18.8027 45.8708 19.5457 46.6486C19.7769 46.8968 20.1732 46.6321 20.0906 46.3342C19.7439 44.8449 18.3733 44.1002 17.5477 42.9088C17.4817 43.0742 17.4156 43.2397 17.3496 43.3887C17.9771 43.1901 18.8852 44.4808 19.232 44.9111C19.6778 45.4902 20.0576 46.1025 20.3713 46.7479C20.5529 47.1119 21.0318 46.8306 20.9823 46.4997C20.8502 45.755 20.5364 45.1096 20.0576 44.5305C19.7604 44.1664 19.4301 43.8355 19.0834 43.5376C18.9017 43.3721 18.6375 43.0908 18.4229 42.9915C18.1752 42.8591 18.0761 42.7598 18.2908 43.0742C18.5385 43.4217 18.9513 43.6865 19.2155 44.0837C19.4301 44.4146 19.6283 44.7621 19.8264 45.0931C20.0576 45.4737 20.2722 45.8377 20.7511 45.6392C20.8667 45.5895 20.8997 45.4572 20.9162 45.3579C20.9823 44.3484 20.3218 43.2728 19.3145 43.0742C19.0173 43.0246 18.6375 43.0908 18.3733 42.975C18.2578 42.8922 18.1587 42.7929 18.0431 42.7102C18.1752 42.7598 18.3073 42.8095 18.4229 42.8591C18.6541 42.975 18.8687 43.1404 19.0669 43.3059C19.5622 43.7196 19.7934 44.4146 20.2888 44.7952C21.1474 45.4572 21.329 44.1168 21.0978 43.5541C20.8997 43.0742 20.4704 42.6605 20.0246 42.3792C19.4136 42.0152 18.8852 42.3296 18.2578 42.0814C18.2247 42.2965 18.1917 42.5116 18.1752 42.7267C18.522 42.6936 18.8357 42.7102 19.1659 42.8426C19.3311 42.9088 20.0246 43.5045 20.0741 43.4879C19.6613 43.6203 19.9915 44.183 20.3878 44.0175Z" fill="#2D3340"/>
<path d="M17.4977 46.3839C17.894 46.8804 18.3728 47.3437 19.0333 47.3933C19.7929 47.4595 20.4864 47.0127 21.1964 46.8307C21.6092 46.7149 21.4276 46.0861 21.0148 46.1854C20.5194 46.3177 20.0571 46.5659 19.5617 46.6818C18.8352 46.8473 18.3728 46.4667 17.96 45.9206C17.7124 45.5731 17.25 46.053 17.4977 46.3839Z" fill="#2D3340"/>
<path d="M32.9041 51.1993C32.8876 50.6532 32.6729 50.2726 32.2106 49.9913C31.8803 49.7927 31.5501 50.2395 31.8143 50.5043C32.2601 50.9676 32.6894 51.4475 33.0857 51.9605C33.1517 51.795 33.2178 51.6295 33.2838 51.4806C32.871 51.5468 31.9299 50.7856 31.5831 50.5705C31.2529 50.3719 30.9226 50.8187 31.1868 51.0835C31.5501 51.4641 31.9299 51.8281 32.2931 52.2087C32.3922 52.0267 32.5078 51.8447 32.6068 51.6626C31.8143 51.3813 31.2859 50.6698 30.5428 50.3057C30.2126 50.1402 29.8658 50.5539 30.1465 50.8187C30.6584 51.3317 31.1043 51.8943 31.484 52.5231C31.5171 52.3742 31.5666 52.2253 31.5996 52.0763C31.3189 52.2087 30.1465 50.8518 29.9319 50.6367C29.6182 50.3222 29.2054 50.7856 29.4696 51.1C30.031 51.8116 30.5759 52.5397 31.1373 53.2512C31.2694 53.0857 31.4015 52.9037 31.5336 52.7382C30.8235 52.2914 30.1465 51.8116 29.4861 51.282C29.1558 51.0173 28.71 51.4475 29.0237 51.7454C29.5191 52.2253 29.9979 52.7051 30.2786 53.3505C30.3777 53.2181 30.4933 53.0692 30.5924 52.9368C30.2621 52.9534 29.8824 52.4238 29.6677 52.2087C29.387 51.9439 29.1228 51.6792 28.8421 51.3979C28.5779 51.1331 28.1321 51.4641 28.3302 51.795C28.644 52.3411 28.9742 52.9037 29.2879 53.4498C29.4365 53.3009 29.5851 53.1519 29.7337 53.003C29.2549 52.672 28.8586 52.2914 28.5119 51.8281C28.2642 51.5137 27.8514 51.9108 28 52.2253C28.1981 52.6555 28.3963 53.0692 28.5944 53.4994C28.743 53.3505 28.8916 53.2016 29.0402 53.0527C28.776 52.8541 28.6109 52.639 28.4623 52.3576C28.2972 52.0598 27.8514 52.2087 27.8514 52.5231C27.8018 54.1283 30.0145 54.1283 31.0877 53.7477C31.0217 53.5325 30.9722 53.3174 30.9061 53.1023C30.774 53.1519 30.6419 53.2181 30.4933 53.2678C30.1796 53.4002 30.1796 53.9462 30.5759 53.9131C31.2694 53.8635 31.5005 54.4261 31.7317 54.9226C31.8968 55.2535 32.4748 55.0218 32.3427 54.6743C32.194 54.2937 32.0454 53.9131 31.8968 53.5325C31.7152 53.6318 31.5336 53.7477 31.3519 53.8469C31.6326 54.1448 31.9299 54.4261 32.2106 54.724C32.5078 55.0218 32.9536 54.5751 32.6729 54.2606C32.4417 53.9959 32.3096 53.7808 32.1775 53.4663C32.0124 53.5987 31.8308 53.7311 31.6657 53.8635C31.8968 54.0455 32.0454 54.2275 32.161 54.4923C32.3096 54.8233 32.7555 54.6247 32.772 54.3268C32.805 53.7146 32.5408 53.2347 32.0124 52.9534C32.0289 53.1188 32.0619 53.3009 32.0785 53.4663C32.4913 53.0692 32.9041 52.6555 33.3169 52.2583C33.5315 52.0432 33.3169 51.5799 33.0031 51.7123C32.2436 52.0101 31.5996 52.4073 31.0217 52.9865C31.1703 53.1354 31.3354 53.3009 31.484 53.4498C32.0454 52.821 32.6894 51.8281 32.5903 50.9345C32.4913 49.9913 31.6326 50.5539 31.1043 50.5705C31.2033 50.7029 31.3189 50.8518 31.418 50.9842C31.4675 50.9014 31.5171 50.8021 31.5666 50.7194C31.7317 50.5208 31.6657 50.2395 31.418 50.1733C30.1796 49.7596 29.2054 50.587 28.4623 51.4972C28.1981 51.8281 28.644 52.2914 28.9247 51.9605C29.2879 51.5302 29.6677 51.1 30.031 50.6698C30.2621 50.405 29.9649 49.9416 29.6347 50.1568C29.0733 50.5208 28.6605 50.9676 28.3963 51.5799C28.2311 51.9605 28.7926 52.308 28.9742 51.9108C29.2054 51.3979 29.5026 51.0338 29.9814 50.7194C29.8493 50.5539 29.7172 50.3719 29.5851 50.2064C29.2219 50.6367 28.8421 51.0669 28.4788 51.4972C28.6274 51.6461 28.7926 51.8116 28.9412 51.9605C29.5191 51.2489 30.2291 50.4712 31.2529 50.8021C31.2033 50.6201 31.1538 50.4381 31.1043 50.2561C30.9061 50.4712 30.8731 50.5374 30.7905 50.8187C30.7245 51.0173 30.9061 51.2489 31.1043 51.2324C31.4345 51.2324 31.8143 50.9511 31.8638 51.4144C31.9133 51.9108 31.3189 52.6555 31.0217 52.9865C30.741 53.3009 31.1868 53.7477 31.484 53.4498C31.9794 52.9699 32.5243 52.6059 33.1683 52.3576C33.0692 52.1756 32.9536 51.9936 32.8545 51.8116C32.4417 52.2087 32.0289 52.6224 31.6161 53.0196C31.4675 53.1685 31.5005 53.4333 31.6822 53.5325C32.0454 53.7146 32.194 53.9793 32.128 54.3434C32.3261 54.2937 32.5408 54.2275 32.7389 54.1779C32.5903 53.8469 32.4252 53.6318 32.1445 53.4167C31.8473 53.185 31.4675 53.4663 31.6326 53.8139C31.7812 54.1614 31.9794 54.4592 32.2271 54.7405C32.3757 54.5916 32.5408 54.4261 32.6894 54.2772C32.4087 53.9793 32.1115 53.698 31.8308 53.4002C31.6161 53.185 31.1538 53.4002 31.2859 53.7146C31.4345 54.0952 31.5831 54.4758 31.7317 54.8564C31.9299 54.7736 32.128 54.6909 32.3427 54.6082C31.9959 53.8635 31.5171 53.2016 30.6089 53.2678C30.6419 53.4829 30.6749 53.698 30.6914 53.9131C30.8235 53.8635 30.9556 53.7973 31.1043 53.7477C31.484 53.5987 31.3354 52.9699 30.9226 53.1023C30.3447 53.3009 28.4953 53.6318 28.5284 52.5066C28.3302 52.5562 28.1156 52.6224 27.9174 52.672C28.1321 53.0692 28.3798 53.334 28.7265 53.5987C29.0237 53.8139 29.3044 53.4167 29.1723 53.1519C28.9742 52.7217 28.776 52.308 28.5779 51.8778C28.4128 52.0101 28.2311 52.1425 28.066 52.2749C28.4623 52.7713 28.9081 53.185 29.42 53.5491C29.7007 53.7477 30.031 53.3671 29.8658 53.1023C29.5521 52.5562 29.2219 51.9936 28.9081 51.4475C28.743 51.5799 28.5614 51.7123 28.3963 51.8447C28.8421 52.2749 29.2714 52.7217 29.7337 53.1519C30.0145 53.4167 30.2126 53.5987 30.6089 53.5656C30.7905 53.5491 31.0217 53.3671 30.9226 53.1519C30.6089 52.3907 30.097 51.8281 29.5026 51.2655C29.354 51.4144 29.1889 51.5799 29.0402 51.7288C29.7337 52.2914 30.4603 52.8044 31.2198 53.2843C31.5666 53.4994 31.8308 53.0361 31.6161 52.7713C31.0547 52.0598 30.5098 51.3317 29.9484 50.6201C29.7998 50.769 29.6347 50.9345 29.4861 51.0835C30.0145 51.613 31.0877 53.0526 31.9629 52.6224C32.128 52.5397 32.161 52.308 32.0785 52.1756C31.6657 51.5137 31.1868 50.9014 30.6419 50.3388C30.5098 50.5043 30.3777 50.6863 30.2456 50.8518C31.0547 51.2489 31.5996 51.977 32.4582 52.2749C32.772 52.3907 33.0031 51.9439 32.772 51.7288C32.4087 51.3482 32.0289 50.9842 31.6657 50.6036C31.5336 50.769 31.4015 50.9511 31.2694 51.1165C31.9299 51.4971 32.6894 52.2087 33.482 52.0929C33.6801 52.0598 33.7957 51.7619 33.6801 51.613C33.2508 51.0504 32.805 50.5208 32.3096 50.0244C32.1775 50.1899 32.0454 50.3719 31.9133 50.5374C32.0289 50.7525 32.161 50.9676 32.2766 51.1827C32.2601 51.613 32.9206 51.613 32.9041 51.1993Z" fill="#2D3340"/>
<path d="M34.1091 35.8263C34.1091 35.8097 34.1091 35.7766 34.0926 35.7601C34.043 35.8925 33.9935 36.0083 33.9439 36.1407C33.9605 36.1241 33.977 36.1076 33.9935 36.091C33.8779 36.091 33.7788 36.091 33.6632 36.091C33.8449 36.2069 33.9109 36.3889 33.8779 36.6206C34.0595 36.5378 34.2577 36.4716 34.4393 36.3889C34.2412 36.2565 34.1091 36.0745 34.0265 35.8428C33.8284 35.9256 33.6302 36.0083 33.4156 36.091C33.7953 36.7861 34.3402 37.299 34.9182 37.812C35.2154 38.0768 35.5786 37.7458 35.43 37.4149C35.2649 37.0508 35.0337 36.8523 34.6374 36.7861C34.3402 36.7364 34.1421 37.0012 34.2577 37.2659C34.4888 37.7789 34.7365 38.2919 34.9677 38.8049C35.1328 38.6725 35.3144 38.5401 35.4796 38.4078C35.1328 37.961 34.8521 37.4976 34.6044 36.9846C34.4393 37.117 34.2577 37.2494 34.0926 37.3818C34.4888 37.812 35.0172 38.4574 35.0503 39.0697C35.0998 38.9704 35.1658 38.8711 35.2154 38.7884C35.0668 38.8876 34.3567 37.8286 34.2742 37.6796C34.0265 37.2494 33.8779 36.8026 33.7788 36.3227C33.5807 36.4055 33.3825 36.4882 33.1679 36.5709C33.6137 37.5307 34.1586 38.4905 34.4228 39.5165C34.5879 39.3841 34.753 39.2682 34.9016 39.1359C34.4393 38.8546 34.0926 37.9941 33.8449 37.5307C33.5642 36.9846 33.3 36.4386 33.0523 35.8759C32.9037 35.5284 32.3588 35.7766 32.4413 36.1241C32.689 37.1998 33.3495 38.143 33.4321 39.2517C33.6302 39.2021 33.8449 39.1359 34.043 39.0862C33.6302 38.2257 33.2009 37.3818 32.7551 36.5378C32.59 36.2234 32.1772 36.4055 32.1441 36.7033C32.0285 37.7789 32.8376 38.8876 33.333 39.7978C33.4321 39.6323 33.5311 39.4668 33.6137 39.3013C33.366 39.3013 32.59 37.4976 32.4579 37.2329C32.3258 37.0012 32.0285 37.0508 31.8799 37.2329C31.6983 37.4811 31.7974 37.7293 31.8964 37.9941C32.0781 38.5567 32.2762 39.1193 32.4744 39.6819C32.6725 39.5992 32.8707 39.5165 33.0853 39.4337C32.7386 38.8546 32.3918 38.2919 32.0451 37.7127C31.8964 37.4811 31.5002 37.5142 31.4341 37.7955C31.3185 38.3085 31.4011 38.7056 31.5662 39.2021C31.7644 39.1193 31.9625 39.0366 32.1772 38.9538C31.979 38.5401 31.8139 38.1264 31.7148 37.6796C31.6323 37.3487 31.1699 37.3818 31.0708 37.6796C30.9222 38.1264 30.8397 38.838 31.335 39.1193C31.6653 39.3013 32.2102 39.2352 32.5734 39.2848C33.1679 39.3675 33.7293 39.5165 34.3072 39.715C34.4888 39.7812 34.654 39.6489 34.72 39.4834C34.8191 39.2186 34.753 39.02 34.5714 38.8049C34.2907 38.4905 33.8118 38.9538 34.1091 39.2683C34.1091 39.2848 34.0926 39.2848 34.0926 39.3013C34.2246 39.2186 34.3567 39.1524 34.5054 39.0697C33.977 38.8876 33.4321 38.7553 32.8707 38.656C32.689 38.6229 32.5074 38.6063 32.3258 38.5732C31.7974 38.507 31.4506 38.6891 31.7313 37.8451C31.5167 37.8451 31.302 37.8451 31.0874 37.8451C31.2195 38.3416 31.3846 38.8049 31.6157 39.2683C31.7809 39.5992 32.3423 39.3675 32.2267 39.02C32.1111 38.656 32.012 38.3747 32.0946 37.9775C31.8964 38.0106 31.6983 38.0272 31.4836 38.0602C31.8304 38.6394 32.1772 39.2021 32.5239 39.7812C32.7055 40.0956 33.2504 39.8971 33.1349 39.533C33.0688 39.3179 32.3753 37.7458 32.4909 37.5804C32.2927 37.5804 32.1111 37.5804 31.913 37.5804C32.2597 38.2257 32.5569 38.9704 32.9697 39.5661C33.1514 39.8143 33.3 39.9798 33.6302 39.9633C33.8779 39.9633 34.043 39.6819 33.9109 39.4668C33.4816 38.6725 32.7055 37.6466 32.8046 36.7033C32.6065 36.753 32.3918 36.8192 32.1937 36.8688C32.623 37.7127 33.0523 38.5567 33.4816 39.4172C33.6302 39.6985 34.1256 39.5661 34.0926 39.2517C33.9935 38.0768 33.333 37.0839 33.0688 35.9587C32.8707 36.0414 32.6725 36.1241 32.4579 36.2069C32.7716 36.935 33.1183 37.6631 33.5146 38.3581C33.7953 38.838 34.043 39.4172 34.5384 39.715C34.7861 39.864 35.0998 39.6158 35.0172 39.3344C34.7365 38.2423 34.1751 37.2329 33.6963 36.2234C33.5311 35.8594 33.0193 36.1241 33.0853 36.4716C33.2339 37.2163 33.5311 37.9113 33.9935 38.5236C34.2412 38.8546 34.7035 39.5165 35.1989 39.4668C36.4373 39.3344 34.8026 37.2329 34.4888 36.9019C34.2246 36.6206 33.8118 36.9846 33.977 37.299C34.2577 37.8617 34.5714 38.3581 34.9512 38.8546C35.1989 39.169 35.6117 38.7718 35.4631 38.4574C35.2319 37.9444 34.9842 37.4314 34.753 36.9184C34.6209 37.0839 34.5054 37.2494 34.3733 37.3983C34.5054 37.5142 34.6375 37.6135 34.7695 37.7293C34.9347 37.5969 35.1163 37.4645 35.2814 37.3321C34.7365 36.8523 34.2246 36.3889 33.8779 35.7435C33.6963 35.4291 33.1349 35.6442 33.2669 35.9918C33.399 36.3393 33.5477 36.5875 33.8449 36.8192C34.0595 36.9846 34.4228 36.9019 34.4063 36.5875C34.3898 36.1572 34.2577 35.7104 33.8614 35.4953C33.7623 35.4457 33.6137 35.4291 33.5311 35.4953C33.5146 35.5119 33.4981 35.5284 33.4816 35.545C33.3495 35.6442 33.3 35.7601 33.333 35.9256C33.333 35.9421 33.333 35.9752 33.3495 35.9918C33.5477 36.422 34.1751 36.24 34.1091 35.8263Z" fill="#2D3340"/>
<path d="M33.6966 35.5119C33.2838 35.3795 32.8545 35.3795 32.4417 35.4953C32.095 35.6111 32.1445 36.1407 32.5243 36.1407C32.7059 36.1407 32.8875 36.1407 33.0692 36.1407C33.0196 35.9421 32.9536 35.727 32.9041 35.5284C32.6729 35.6442 32.4252 35.7601 32.194 35.8759C31.9298 36.0083 32.0124 36.4054 32.2766 36.4882C32.5243 36.5544 32.7885 36.6206 33.0362 36.6868C33.449 36.786 33.6306 36.1572 33.2178 36.0414C32.9701 35.9752 32.7059 35.909 32.4582 35.8428C32.4913 36.0414 32.5078 36.24 32.5408 36.4551C32.772 36.3393 33.0196 36.2234 33.2508 36.1076C33.548 35.9587 33.3994 35.4953 33.0857 35.4953C32.9041 35.4953 32.7224 35.4953 32.5408 35.4953C32.5738 35.7104 32.6068 35.9256 32.6234 36.1407C32.9371 36.0414 33.2178 36.0579 33.5315 36.1572C33.9278 36.2896 34.0929 35.6442 33.6966 35.5119Z" fill="#2D3340"/>
</g>
<defs>
<clipPath id="clip0">
<rect width="75.84" height="72" fill="white" transform="translate(0.0117188)"/>
</clipPath>
</defs>
</svg>
