<svg width="14" height="14" viewBox="0 0 14 14" fill="none" xmlns="http://www.w3.org/2000/svg">
<path d="M6.681 13.255C10.404 13.255 13.056 10.586 13.056 6.812C13.056 3.038 10.404 0.368999 6.681 0.368999C2.958 0.368999 0.306 3.038 0.306 6.812C0.306 10.586 2.958 13.255 6.681 13.255ZM6.681 11.164C4.199 11.164 2.465 9.294 2.465 6.812C2.465 4.33 4.199 2.46 6.681 2.46C9.163 2.46 10.897 4.33 10.897 6.812C10.897 9.294 9.163 11.164 6.681 11.164ZM4.352 9.6H6.29V7.509L7.225 9.6H9.384L8.194 7.407C8.84 7.254 9.316 6.744 9.316 5.741C9.316 4.891 8.993 4.228 8.194 3.939C7.888 3.837 7.531 3.786 7.021 3.786H4.352V9.6ZM6.29 5.469H6.868C7.106 5.469 7.208 5.503 7.276 5.554C7.378 5.639 7.429 5.741 7.429 5.928C7.429 6.115 7.378 6.217 7.276 6.302C7.208 6.353 7.106 6.387 6.868 6.387H6.29V5.469Z" fill="#252932"/>
</svg>
