<svg width="10" height="10" viewBox="0 0 10 10" fill="none" xmlns="http://www.w3.org/2000/svg">
<path d="M0.90843 4.99004C0.90843 7.42604 2.87643 9.43004 5.32443 9.43004C7.77243 9.43004 9.76443 7.42604 9.76443 4.99004C9.76443 2.54204 7.77243 0.538037 5.32443 0.538037C2.87643 0.538037 0.90843 2.54204 0.90843 4.99004ZM1.92843 4.99004C1.92843 3.02204 3.41643 1.48604 5.32443 1.48604C7.23243 1.48604 8.72043 3.02204 8.72043 4.99004C8.72043 6.94604 7.23243 8.48204 5.32443 8.48204C3.41643 8.48204 1.92843 6.94604 1.92843 4.99004ZM6.04443 7.35404H7.30443L6.34443 5.50604C6.89643 5.26604 7.26843 4.75004 7.26843 4.11404C7.26843 3.25004 6.54843 2.55404 5.62443 2.55404H3.72843V7.35404H4.86843V5.68604H5.21643L6.04443 7.35404ZM4.86843 4.75004V3.49004H5.42043C5.85243 3.49004 6.11643 3.73004 6.11643 4.12604C6.11643 4.51004 5.85243 4.75004 5.42043 4.75004H4.86843Z" fill="#000614"/>
</svg>
