<svg width="20" height="20" viewBox="0 0 20 20" fill="none" xmlns="http://www.w3.org/2000/svg">
<path d="M0.901407 14.1887L1.04387 14.1203L1.21516 14.0395L1.32379 13.9884C1.34277 13.9793 1.36383 13.97 1.38281 13.9602L1.43586 13.9294C1.51467 13.8834 1.59381 13.8379 1.67328 13.793C1.75633 13.7468 1.85523 13.6869 1.95781 13.6255C2.06051 13.5638 2.1691 13.5006 2.28086 13.426L2.45273 13.3162L2.54106 13.2596L2.63004 13.1982C2.86996 13.0356 3.12137 12.8503 3.37918 12.6488L3.57352 12.4949C3.63871 12.4431 3.70297 12.3859 3.76863 12.3319C3.83387 12.2764 3.90023 12.2236 3.96539 12.1651L4.1618 11.9898C4.22774 11.9323 4.29274 11.8705 4.35816 11.8092L4.55449 11.6248L4.74875 11.4321C4.78109 11.3999 4.81344 11.3678 4.84578 11.3356L4.94195 11.2359C5.20004 10.9753 5.44895 10.692 5.69414 10.4122C5.81555 10.269 5.93613 10.1279 6.05297 9.98127C6.17129 9.83885 6.2859 9.68995 6.39961 9.54655C6.51176 9.39795 6.62305 9.25483 6.73012 9.10659C6.83859 8.96217 6.94348 8.81491 7.04617 8.67147C7.09754 8.59987 7.14762 8.5262 7.19746 8.45498C7.24718 8.38417 7.29617 8.31283 7.34441 8.241L7.48777 8.03108L7.62641 7.82327C7.71746 7.68717 7.80504 7.55088 7.88973 7.42073C7.97441 7.28827 8.05488 7.16139 8.13594 7.03924C8.29699 6.79787 8.45539 6.5792 8.6048 6.39248C8.67504 6.30393 8.74736 6.21706 8.82172 6.13194C8.89168 6.05116 8.95863 5.97979 9.01945 5.91545C9.14465 5.7844 9.24902 5.68784 9.32625 5.62061C9.40203 5.55448 9.44606 5.52276 9.44606 5.52276C11.3217 4.17174 13.9374 4.59701 15.2884 6.47268C16.3547 7.95303 16.3145 9.89436 15.328 11.3111L15.3063 11.3402C15.3063 11.3402 15.2762 11.3833 15.213 11.4574C15.1512 11.5304 15.0518 11.6395 14.9175 11.7701C14.8484 11.8364 14.7714 11.9096 14.6847 11.9863C14.5891 12.0707 14.4915 12.1531 14.3922 12.2331C14.1762 12.4069 13.9222 12.5949 13.6255 12.7889C13.3298 12.9817 12.9949 13.1815 12.6398 13.3927C12.2857 13.604 11.9004 13.8195 11.4989 14.0349C11.0966 14.2509 10.6718 14.4639 10.2351 14.6693C9.79594 14.8737 9.34449 15.0699 8.88477 15.2499C8.77082 15.2958 8.65355 15.3383 8.53867 15.382C8.42352 15.4256 8.30832 15.468 8.19102 15.5078L7.84289 15.6274L7.49344 15.7387L7.3202 15.793L7.14531 15.843L6.79945 15.9403L6.45469 16.028L6.28477 16.0705C6.22836 16.0843 6.1707 16.0959 6.11426 16.1085L5.77836 16.181C5.66797 16.205 5.55586 16.2236 5.44707 16.2443C5.33766 16.2641 5.23059 16.2845 5.12313 16.301L4.80523 16.3477C4.3884 16.4086 3.99063 16.4414 3.62672 16.4645C3.26191 16.4853 2.92981 16.4944 2.63473 16.4863C2.48754 16.484 2.35344 16.4827 2.21777 16.4759C2.09726 16.4712 1.9768 16.4652 1.85641 16.4579L1.77754 16.4533C1.75363 16.451 1.73277 16.4478 1.71129 16.4452L1.59219 16.4301L1.40434 16.4059L1.24777 16.3847C0.612696 16.2987 0.16754 15.7142 0.253555 15.0791C0.307462 14.6803 0.56504 14.3531 0.901407 14.1887Z" fill="#FF473E"/>
<path d="M19.6392 5.99651L19.6281 5.98373L19.4273 5.75143C19.3952 5.71463 19.3548 5.67674 19.3133 5.63405C19.2707 5.59209 19.227 5.54514 19.1757 5.49819L19.0072 5.35237C18.9921 5.33979 18.9779 5.32623 18.9615 5.31405L18.9115 5.27729L18.808 5.20162C18.6659 5.09987 18.4981 5.00299 18.3105 4.91791C18.2877 4.90616 18.2634 4.89686 18.2386 4.88795L18.1641 4.86037L18.0887 4.83284C18.0634 4.82287 18.0375 4.81465 18.0111 4.80823L17.8504 4.76655C17.8369 4.76323 17.8234 4.75944 17.8097 4.75651L17.768 4.74971L17.684 4.73639C17.6277 4.72752 17.5711 4.71787 17.5134 4.71623C17.4559 4.71299 17.3979 4.70869 17.3397 4.70709L17.1649 4.71276L17.1209 4.71448L17.0775 4.71952L16.9906 4.72991C16.759 4.76002 16.5306 4.81694 16.3179 4.89869C16.1048 4.97944 15.9004 5.07451 15.7127 5.18338C15.6104 5.24218 15.5097 5.30381 15.4108 5.36819C14.7037 4.73088 13.7165 4.53975 12.8381 4.82635C12.8358 4.83584 12.8383 4.8433 12.8351 4.85307C12.7524 5.10658 12.6841 5.37069 13.7807 6.56393C14.8772 7.75717 15.8804 8.79724 16.0585 8.3492C16.3528 7.60869 16.3415 6.76358 15.9501 6.04811C16.0128 6.01752 16.0761 5.9881 16.1399 5.95987C16.3045 5.88627 16.4725 5.83162 16.6359 5.78998C16.7997 5.74713 16.9588 5.73022 17.1063 5.72971L17.1612 5.72994L17.1884 5.72983L17.2149 5.73283C17.2501 5.7367 17.2848 5.74006 17.319 5.74287L17.418 5.76237C17.4508 5.76658 17.4818 5.77776 17.5125 5.78725L17.5583 5.8008L17.5809 5.80721C17.5884 5.80998 17.5956 5.8135 17.6029 5.81654C17.6319 5.82916 17.6605 5.841 17.6888 5.85217C17.6958 5.8551 17.703 5.85737 17.7098 5.86076L17.7302 5.87213L17.7706 5.89408L17.8103 5.91498C17.8235 5.92143 17.8366 5.92819 17.8491 5.93764C17.9504 6.00276 18.0434 6.07244 18.1258 6.14979L18.186 6.20682L18.2152 6.23389C18.2248 6.24287 18.2336 6.25416 18.2426 6.26389L18.3446 6.37658C18.3761 6.41322 18.4038 6.45229 18.4304 6.48533C18.4565 6.51975 18.4816 6.54826 18.5023 6.57885L18.6323 6.7699C18.6459 6.78975 18.6609 6.80951 18.677 6.82811C18.9066 7.09377 19.3081 7.12299 19.5738 6.89338C19.8396 6.66373 19.8688 6.26221 19.6392 5.99651ZM15.5454 5.49822C15.5499 5.50283 15.5542 5.50768 15.5586 5.51233C15.5542 5.50764 15.5499 5.50283 15.5454 5.49822ZM15.8161 5.83006C15.82 5.83576 15.8239 5.84143 15.8278 5.84713C15.8239 5.84139 15.82 5.83572 15.8161 5.83006ZM15.7451 5.73158C15.7509 5.73912 15.7564 5.74674 15.762 5.75436C15.7564 5.74678 15.7508 5.73912 15.7451 5.73158Z" fill="#262C38"/>
</svg>
