<svg width="24" height="24" viewBox="0 0 24 24" fill="none" xmlns="http://www.w3.org/2000/svg">
<path d="M21.7497 5.9601C21.0325 6.26948 20.252 6.49214 19.4481 6.57886C20.2827 6.083 20.9078 5.29964 21.2059 4.37573C20.4227 4.84164 19.5647 5.16835 18.67 5.34135C18.296 4.94157 17.8437 4.62309 17.3413 4.40575C16.8389 4.18841 16.2971 4.07686 15.7497 4.07807C13.5348 4.07807 11.7536 5.87339 11.7536 8.07651C11.7536 8.38589 11.7911 8.69526 11.852 8.99292C8.5356 8.81948 5.57778 7.2351 3.61138 4.80932C3.25308 5.42131 3.06532 6.11813 3.06763 6.82729C3.06763 8.21479 3.7731 9.43823 4.84888 10.1578C4.2149 10.1328 3.59577 9.95854 3.04185 9.64917V9.69839C3.04185 11.6414 4.41528 13.2515 6.24575 13.6218C5.90206 13.7111 5.5485 13.7568 5.19341 13.7578C4.93325 13.7578 4.68716 13.732 4.43872 13.6968C4.94497 15.2812 6.41919 16.432 8.17466 16.4695C6.80122 17.5453 5.08091 18.1781 3.21294 18.1781C2.87778 18.1781 2.56841 18.1664 2.24731 18.1289C4.01919 19.2656 6.12153 19.9218 8.38559 19.9218C15.7356 19.9218 19.7575 13.8328 19.7575 8.54761C19.7575 8.37417 19.7575 8.20073 19.7458 8.02729C20.5239 7.45776 21.2059 6.75229 21.7497 5.9601Z" fill="#252932"/>
</svg>
