<svg width="65" height="64" viewBox="0 0 65 64" fill="none" xmlns="http://www.w3.org/2000/svg">
<g clip-path="url(#clip0_86_96642)">
<path d="M29.1219 1.40226C30.9859 -0.467421 34.0141 -0.467421 35.8781 1.40226V1.40226C37.244 2.77232 39.3021 3.1817 41.0883 2.43864V2.43864C43.5259 1.4246 46.3236 2.58343 47.3302 5.02411V5.02411C48.0678 6.81258 49.8126 7.97841 51.7472 7.97547V7.97547C54.3873 7.97145 56.5286 10.1127 56.5245 12.7528V12.7528C56.5216 14.6874 57.6874 16.4322 59.4759 17.1698V17.1698C61.9166 18.1764 63.0754 20.9741 62.0614 23.4117V23.4117C61.3183 25.1979 61.7277 27.256 63.0977 28.6219V28.6219C64.9674 30.4859 64.9674 33.5141 63.0977 35.3781V35.3781C61.7277 36.744 61.3183 38.8021 62.0614 40.5883V40.5883C63.0754 43.0259 61.9166 45.8236 59.4759 46.8302V46.8302C57.6874 47.5678 56.5216 49.3126 56.5245 51.2472V51.2472C56.5286 53.8873 54.3873 56.0286 51.7472 56.0245V56.0245C49.8126 56.0216 48.0678 57.1874 47.3302 58.9759V58.9759C46.3236 61.4166 43.5259 62.5754 41.0883 61.5614V61.5614C39.3021 60.8183 37.244 61.2277 35.8781 62.5977V62.5977C34.0141 64.4674 30.9859 64.4674 29.1219 62.5977V62.5977C27.756 61.2277 25.6979 60.8183 23.9117 61.5614V61.5614C21.4741 62.5754 18.6764 61.4166 17.6698 58.9759V58.9759C16.9322 57.1874 15.1874 56.0216 13.2528 56.0245V56.0245C10.6127 56.0286 8.47145 53.8873 8.47547 51.2472V51.2472C8.47841 49.3126 7.31258 47.5678 5.52411 46.8302V46.8302C3.08343 45.8236 1.9246 43.0259 2.93864 40.5883V40.5883C3.6817 38.8021 3.27232 36.744 1.90226 35.3781V35.3781C0.0325793 33.5141 0.0325789 30.4859 1.90226 28.6219V28.6219C3.27232 27.256 3.6817 25.1979 2.93864 23.4117V23.4117C1.9246 20.9741 3.08343 18.1764 5.52411 17.1698V17.1698C7.31258 16.4322 8.47841 14.6874 8.47547 12.7528V12.7528C8.47145 10.1127 10.6127 7.97145 13.2528 7.97547V7.97547C15.1874 7.97841 16.9322 6.81258 17.6698 5.02411V5.02411C18.6764 2.58343 21.4741 1.4246 23.9117 2.43864V2.43864C25.6979 3.1817 27.756 2.77232 29.1219 1.40226V1.40226Z" fill="#FFCC00"/>
<path d="M33 19C30.4288 19 27.9154 19.7624 25.7776 21.1909C23.6398 22.6194 21.9735 24.6497 20.9896 27.0251C20.0056 29.4006 19.7482 32.0144 20.2498 34.5362C20.7514 37.0579 21.9895 39.3743 23.8076 41.1924C25.6257 43.0105 27.9421 44.2486 30.4638 44.7502C32.9856 45.2518 35.5995 44.9944 37.9749 44.0104C40.3503 43.0265 42.3807 41.3603 43.8091 39.2224C45.2376 37.0846 46 34.5712 46 32C45.9934 28.5542 44.6216 25.2515 42.1851 22.8149C39.7486 20.3784 36.4458 19.0066 33 19V19ZM32 26C32 25.7348 32.1054 25.4804 32.2929 25.2929C32.4804 25.1054 32.7348 25 33 25C33.2652 25 33.5196 25.1054 33.7071 25.2929C33.8946 25.4804 34 25.7348 34 26V33C34 33.2652 33.8946 33.5196 33.7071 33.7071C33.5196 33.8946 33.2652 34 33 34C32.7348 34 32.4804 33.8946 32.2929 33.7071C32.1054 33.5196 32 33.2652 32 33V26ZM33 39C32.7033 39 32.4133 38.912 32.1667 38.7472C31.92 38.5824 31.7277 38.3481 31.6142 38.074C31.5007 37.7999 31.4709 37.4983 31.5288 37.2074C31.5867 36.9164 31.7296 36.6491 31.9393 36.4393C32.1491 36.2296 32.4164 36.0867 32.7074 36.0288C32.9983 35.9709 33.2999 36.0007 33.574 36.1142C33.8481 36.2277 34.0824 36.42 34.2472 36.6666C34.412 36.9133 34.5 37.2033 34.5 37.5C34.5 37.8978 34.342 38.2794 34.0607 38.5607C33.7794 38.842 33.3978 39 33 39Z" fill="white"/>
</g>
<defs>
<clipPath id="clip0_86_96642">
<rect width="64" height="64" fill="white" transform="translate(0.5)"/>
</clipPath>
</defs>
</svg>
