<svg width="106" height="114" viewBox="0 0 106 114" fill="none" xmlns="http://www.w3.org/2000/svg">
<g filter="url(#filter0_dd_194_143457)">
<circle cx="53" cy="55" r="37" fill="#939598"/>
</g>
<circle cx="53" cy="55" r="37" fill="#241F20"/>
<mask id="mask0_194_143457" style="mask-type:alpha" maskUnits="userSpaceOnUse" x="16" y="18" width="74" height="74">
<path d="M90 55C90 75.4345 73.4345 92 53 92C32.5655 92 16 75.4345 16 55C16 34.5655 32.5655 18 53 18C73.4345 18 90 34.5655 90 55Z" fill="#FC0000"/>
</mask>
<g mask="url(#mask0_194_143457)">
<path d="M51.9149 35.9747C88.3416 33.6192 125.351 93.3042 86.7543 181.412C65.6709 229.54 22.5129 212.887 -8.38408 183.778C-75.9562 120.116 -24.5369 109.149 6.61257 84.2123C29.9535 65.5264 26.9958 37.5861 51.9149 35.9747Z" stroke="white" stroke-width="2" stroke-dasharray="4 4"/>
</g>
<path opacity="0.2" d="M53 4.5C49.0218 4.5 45.2064 6.08035 42.3934 8.8934C39.5804 11.7064 38 15.5218 38 19.5C38 33 53 43.5 53 43.5C53 43.5 68 33 68 19.5C68 15.5218 66.4196 11.7064 63.6066 8.8934C60.7936 6.08035 56.9782 4.5 53 4.5ZM53 25.5C51.8133 25.5 50.6533 25.1481 49.6666 24.4888C48.6799 23.8295 47.9108 22.8925 47.4567 21.7961C47.0026 20.6997 46.8838 19.4933 47.1153 18.3295C47.3468 17.1656 47.9182 16.0965 48.7574 15.2574C49.5965 14.4182 50.6656 13.8468 51.8295 13.6153C52.9933 13.3838 54.1997 13.5026 55.2961 13.9567C56.3925 14.4108 57.3295 15.1799 57.9888 16.1666C58.6481 17.1533 59 18.3133 59 19.5C59 21.0913 58.3679 22.6174 57.2426 23.7426C56.1174 24.8679 54.5913 25.5 53 25.5Z" fill="#FC0000"/>
<path d="M68 19.5C68 33 53 43.5 53 43.5C53 43.5 38 33 38 19.5C38 15.5218 39.5804 11.7064 42.3934 8.8934C45.2064 6.08035 49.0218 4.5 53 4.5C56.9782 4.5 60.7936 6.08035 63.6066 8.8934C66.4196 11.7064 68 15.5218 68 19.5Z" fill="#FC0000" stroke="#241F20" stroke-width="3" stroke-linecap="round" stroke-linejoin="round"/>
<path d="M53 25.5C56.3137 25.5 59 22.8137 59 19.5C59 16.1863 56.3137 13.5 53 13.5C49.6863 13.5 47 16.1863 47 19.5C47 22.8137 49.6863 25.5 53 25.5Z" fill="white" stroke="#241F20" stroke-width="2" stroke-linecap="round" stroke-linejoin="round"/>
<path d="M40.7319 57.928C40.3639 58.432 40.1799 59.056 40.1799 59.8C40.1799 60.544 40.3639 61.168 40.7319 61.672C41.0999 62.176 41.6159 62.428 42.2799 62.428C42.9439 62.428 43.4599 62.18 43.8279 61.684C44.1959 61.18 44.3799 60.552 44.3799 59.8C44.3799 59.048 44.1959 58.424 43.8279 57.928C43.4599 57.424 42.9439 57.172 42.2799 57.172C41.6159 57.172 41.0999 57.424 40.7319 57.928ZM45.2799 56.716C46.0399 57.532 46.4199 58.56 46.4199 59.8C46.4199 61.04 46.0399 62.072 45.2799 62.896C44.5279 63.712 43.5279 64.12 42.2799 64.12C41.0319 64.12 40.0279 63.712 39.2679 62.896C38.5159 62.072 38.1399 61.04 38.1399 59.8C38.1399 58.56 38.5159 57.532 39.2679 56.716C40.0279 55.892 41.0319 55.48 42.2799 55.48C43.5279 55.48 44.5279 55.892 45.2799 56.716ZM47.4747 64V57.916H49.2147V58.816H49.2387C49.3507 58.544 49.5427 58.312 49.8147 58.12C50.0947 57.92 50.4267 57.82 50.8107 57.82H51.1827V59.68H50.6907C49.7467 59.68 49.2747 60.212 49.2747 61.276V64H47.4747ZM55.7693 58.408V55.6H57.5693V64H55.7693V63.508H55.7453C55.3693 63.916 54.8613 64.12 54.2213 64.12C53.4293 64.12 52.7893 63.82 52.3013 63.22C51.8133 62.612 51.5693 61.856 51.5693 60.952C51.5693 60.048 51.8133 59.296 52.3013 58.696C52.7893 58.096 53.4293 57.796 54.2213 57.796C54.8613 57.796 55.3653 58 55.7333 58.408H55.7693ZM54.6293 62.548C55.0053 62.548 55.2893 62.428 55.4813 62.188C55.6733 61.948 55.7693 61.636 55.7693 61.252V60.664C55.7693 60.28 55.6733 59.968 55.4813 59.728C55.2893 59.488 55.0053 59.368 54.6293 59.368C54.2293 59.368 53.9213 59.516 53.7053 59.812C53.4973 60.1 53.3933 60.48 53.3933 60.952C53.3933 61.432 53.4973 61.82 53.7053 62.116C53.9213 62.404 54.2293 62.548 54.6293 62.548ZM58.6002 61.024C58.6002 60.056 58.8802 59.276 59.4402 58.684C60.0082 58.092 60.7082 57.796 61.5402 57.796C62.3962 57.796 63.0842 58.088 63.6042 58.672C64.1242 59.256 64.3842 60 64.3842 60.904V61.492H60.4482C60.4802 61.828 60.6282 62.088 60.8922 62.272C61.1562 62.448 61.4562 62.536 61.7922 62.536C62.3042 62.536 62.7402 62.348 63.1002 61.972L64.1322 63.208C63.4682 63.816 62.6362 64.12 61.6362 64.12C60.7962 64.12 60.0802 63.844 59.4882 63.292C58.8962 62.732 58.6002 61.976 58.6002 61.024ZM60.4602 60.28H62.6082C62.5762 59.984 62.4602 59.748 62.2602 59.572C62.0602 59.388 61.8202 59.296 61.5402 59.296C61.2682 59.296 61.0322 59.388 60.8322 59.572C60.6322 59.748 60.5082 59.984 60.4602 60.28ZM65.381 64V57.916H67.121V58.816H67.145C67.257 58.544 67.449 58.312 67.721 58.12C68.001 57.92 68.333 57.82 68.717 57.82H69.089V59.68H68.597C67.653 59.68 67.181 60.212 67.181 61.276V64H65.381ZM35.8135 78V71.34H33.3295V69.6H40.2655V71.34H37.7815V78H35.8135ZM40.2794 78V71.916H42.0194V72.816H42.0434C42.1554 72.544 42.3474 72.312 42.6194 72.12C42.8994 71.92 43.2314 71.82 43.6154 71.82H43.9874V73.68H43.4954C42.5514 73.68 42.0794 74.212 42.0794 75.276V78H40.2794ZM45.3328 73.788L44.5288 72.444C45.3928 72.012 46.3248 71.796 47.3248 71.796C48.0048 71.796 48.5528 71.964 48.9688 72.3C49.3848 72.636 49.5928 73.108 49.5928 73.716V76.224C49.5928 76.592 49.7848 76.812 50.1688 76.884L49.4248 78.132C48.8168 78.132 48.3848 77.908 48.1288 77.46H48.1048C47.7128 77.9 47.1648 78.12 46.4608 78.12C45.8448 78.12 45.3368 77.932 44.9368 77.556C44.5448 77.18 44.3488 76.716 44.3488 76.164C44.3488 75.652 44.5288 75.228 44.8888 74.892C45.2488 74.556 45.7608 74.352 46.4248 74.28L47.7928 74.136V74.016C47.7928 73.584 47.5448 73.368 47.0488 73.368C46.5848 73.368 46.0128 73.508 45.3328 73.788ZM47.7928 75.372L46.8448 75.516C46.3968 75.588 46.1728 75.792 46.1728 76.128C46.1728 76.296 46.2368 76.44 46.3648 76.56C46.4928 76.672 46.6728 76.728 46.9048 76.728C47.1608 76.728 47.3728 76.644 47.5408 76.476C47.7088 76.308 47.7928 76.104 47.7928 75.864V75.372ZM52.5372 74.964C52.5372 75.444 52.6492 75.828 52.8732 76.116C53.0972 76.404 53.3972 76.548 53.7732 76.548C54.2852 76.548 54.6452 76.292 54.8532 75.78L56.3652 76.524C56.1092 77.02 55.7532 77.412 55.2972 77.7C54.8492 77.98 54.3212 78.12 53.7132 78.12C52.8092 78.12 52.0812 77.824 51.5292 77.232C50.9852 76.632 50.7132 75.876 50.7132 74.964C50.7132 74.052 50.9852 73.296 51.5292 72.696C52.0812 72.096 52.8092 71.796 53.7132 71.796C54.3212 71.796 54.8492 71.94 55.2972 72.228C55.7532 72.508 56.1092 72.896 56.3652 73.392L54.8532 74.136C54.6452 73.624 54.2852 73.368 53.7732 73.368C53.3972 73.368 53.0972 73.512 52.8732 73.8C52.6492 74.088 52.5372 74.476 52.5372 74.964ZM57.3068 78V69.6H59.1068V74.16H59.1308L60.8348 71.916H62.9468L60.9548 74.376L63.1388 78H60.9908L59.5988 75.6L59.1068 76.236V78H57.3068ZM63.1705 75.024C63.1705 74.056 63.4505 73.276 64.0105 72.684C64.5785 72.092 65.2785 71.796 66.1105 71.796C66.9665 71.796 67.6545 72.088 68.1745 72.672C68.6945 73.256 68.9545 74 68.9545 74.904V75.492H65.0185C65.0505 75.828 65.1985 76.088 65.4625 76.272C65.7265 76.448 66.0265 76.536 66.3625 76.536C66.8745 76.536 67.3105 76.348 67.6705 75.972L68.7025 77.208C68.0385 77.816 67.2065 78.12 66.2065 78.12C65.3665 78.12 64.6505 77.844 64.0585 77.292C63.4665 76.732 63.1705 75.976 63.1705 75.024ZM65.0305 74.28H67.1785C67.1465 73.984 67.0305 73.748 66.8305 73.572C66.6305 73.388 66.3905 73.296 66.1105 73.296C65.8385 73.296 65.6025 73.388 65.4025 73.572C65.2025 73.748 65.0785 73.984 65.0305 74.28ZM69.9513 78V71.916H71.6913V72.816H71.7153C71.8273 72.544 72.0193 72.312 72.2913 72.12C72.5713 71.92 72.9033 71.82 73.2873 71.82H73.6593V73.68H73.1673C72.2233 73.68 71.7513 74.212 71.7513 75.276V78H69.9513Z" fill="white"/>
<defs>
<filter id="filter0_dd_194_143457" x="0" y="15" width="106" height="106" filterUnits="userSpaceOnUse" color-interpolation-filters="sRGB">
<feFlood flood-opacity="0" result="BackgroundImageFix"/>
<feColorMatrix in="SourceAlpha" type="matrix" values="0 0 0 0 0 0 0 0 0 0 0 0 0 0 0 0 0 0 127 0" result="hardAlpha"/>
<feOffset dy="1"/>
<feGaussianBlur stdDeviation="2"/>
<feComposite in2="hardAlpha" operator="out"/>
<feColorMatrix type="matrix" values="0 0 0 0 0.0588235 0 0 0 0 0.0431373 0 0 0 0 0.0431373 0 0 0 0.24 0"/>
<feBlend mode="normal" in2="BackgroundImageFix" result="effect1_dropShadow_194_143457"/>
<feColorMatrix in="SourceAlpha" type="matrix" values="0 0 0 0 0 0 0 0 0 0 0 0 0 0 0 0 0 0 127 0" result="hardAlpha"/>
<feOffset dy="13"/>
<feGaussianBlur stdDeviation="8"/>
<feComposite in2="hardAlpha" operator="out"/>
<feColorMatrix type="matrix" values="0 0 0 0 0.0583333 0 0 0 0 0.0449653 0 0 0 0 0.0449653 0 0 0 0.25 0"/>
<feBlend mode="multiply" in2="effect1_dropShadow_194_143457" result="effect2_dropShadow_194_143457"/>
<feBlend mode="normal" in="SourceGraphic" in2="effect2_dropShadow_194_143457" result="shape"/>
</filter>
</defs>
</svg>
