<svg width="65" height="64" viewBox="0 0 65 64" fill="none" xmlns="http://www.w3.org/2000/svg">
<rect x="0.5" width="64" height="64" rx="32" fill="#FC0000"/>
<path d="M32.5 19C29.9288 19 27.4154 19.7624 25.2776 21.1909C23.1398 22.6194 21.4735 24.6497 20.4896 27.0251C19.5056 29.4006 19.2482 32.0144 19.7498 34.5362C20.2514 37.0579 21.4895 39.3743 23.3076 41.1924C25.1257 43.0105 27.4421 44.2486 29.9638 44.7502C32.4856 45.2518 35.0995 44.9944 37.4749 44.0104C39.8503 43.0265 41.8807 41.3603 43.3091 39.2224C44.7376 37.0846 45.5 34.5712 45.5 32C45.4934 28.5542 44.1216 25.2515 41.6851 22.8149C39.2486 20.3784 35.9458 19.0066 32.5 19ZM38.6875 29.725L31.3625 36.725C31.1731 36.9031 30.9225 37.0016 30.6625 37C30.5354 37.0018 30.4093 36.9785 30.2913 36.9313C30.1733 36.8841 30.0658 36.814 29.975 36.725L26.3125 33.225C26.2109 33.1364 26.1283 33.0281 26.0696 32.9067C26.0109 32.7854 25.9774 32.6534 25.971 32.5187C25.9647 32.3841 25.9856 32.2495 26.0326 32.1231C26.0795 31.9968 26.1515 31.8812 26.2443 31.7834C26.3371 31.6856 26.4486 31.6075 26.5723 31.5539C26.696 31.5003 26.8293 31.4723 26.9641 31.4715C27.0989 31.4707 27.2325 31.4972 27.3568 31.5493C27.4811 31.6015 27.5936 31.6783 27.6875 31.775L30.6625 34.6125L37.3125 28.275C37.5069 28.1054 37.7594 28.0174 38.0172 28.0296C38.2749 28.0418 38.518 28.1532 38.6955 28.3404C38.8731 28.5277 38.9714 28.7763 38.9699 29.0343C38.9684 29.2924 38.8672 29.5398 38.6875 29.725Z" fill="white"/>
</svg>
