<svg width="74" height="88" viewBox="0 0 74 88" fill="none" xmlns="http://www.w3.org/2000/svg">
<circle cx="37" cy="51" r="37" fill="#241F20"/>
<mask id="mask0_9_32" style="mask-type:alpha" maskUnits="userSpaceOnUse" x="0" y="14" width="74" height="74">
<path d="M74 51C74 71.4345 57.4345 88 37 88C16.5655 88 0 71.4345 0 51C0 30.5655 16.5655 14 37 14C57.4345 14 74 30.5655 74 51Z" fill="#FC0000"/>
</mask>
<g mask="url(#mask0_9_32)">
<path d="M35.9149 31.9747C72.3416 29.6192 109.351 89.3042 70.7543 177.412C49.6709 225.54 6.51287 208.887 -24.3841 179.778C-91.9562 116.116 -40.5369 105.149 -9.38743 80.2123C13.9535 61.5264 10.9958 33.5861 35.9149 31.9747Z" stroke="white" stroke-width="2" stroke-dasharray="4 4"/>
</g>
<path opacity="0.2" d="M37 4.5C33.0218 4.5 29.2064 6.08035 26.3934 8.8934C23.5804 11.7064 22 15.5218 22 19.5C22 33 37 43.5 37 43.5C37 43.5 52 33 52 19.5C52 15.5218 50.4196 11.7064 47.6066 8.8934C44.7936 6.08035 40.9782 4.5 37 4.5V4.5ZM37 25.5C35.8133 25.5 34.6533 25.1481 33.6666 24.4888C32.6799 23.8295 31.9108 22.8925 31.4567 21.7961C31.0026 20.6997 30.8838 19.4933 31.1153 18.3295C31.3468 17.1656 31.9182 16.0965 32.7574 15.2574C33.5965 14.4182 34.6656 13.8468 35.8295 13.6153C36.9933 13.3838 38.1997 13.5026 39.2961 13.9567C40.3925 14.4108 41.3295 15.1799 41.9888 16.1666C42.6481 17.1533 43 18.3133 43 19.5C43 21.0913 42.3679 22.6174 41.2426 23.7426C40.1174 24.8679 38.5913 25.5 37 25.5Z" fill="#FC0000"/>
<path d="M52 19.5C52 33 37 43.5 37 43.5C37 43.5 22 33 22 19.5C22 15.5218 23.5804 11.7064 26.3934 8.8934C29.2064 6.08035 33.0218 4.5 37 4.5C40.9782 4.5 44.7936 6.08035 47.6066 8.8934C50.4196 11.7064 52 15.5218 52 19.5Z" fill="#FC0000" stroke="#241F20" stroke-width="3" stroke-linecap="round" stroke-linejoin="round"/>
<path d="M37 25.5C40.3137 25.5 43 22.8137 43 19.5C43 16.1863 40.3137 13.5 37 13.5C33.6863 13.5 31 16.1863 31 19.5C31 22.8137 33.6863 25.5 37 25.5Z" fill="white" stroke="#241F20" stroke-width="2" stroke-linecap="round" stroke-linejoin="round"/>
<path d="M29.6386 54.8C29.6386 52.292 27.9466 50.48 25.4986 50.48C23.0506 50.48 21.3586 52.292 21.3586 54.8C21.3586 57.308 23.0506 59.12 25.4986 59.12C27.9466 59.12 29.6386 57.308 29.6386 54.8ZM23.4466 54.8C23.4466 53.3 24.2386 52.22 25.4986 52.22C26.7586 52.22 27.5506 53.3 27.5506 54.8C27.5506 56.3 26.7586 57.38 25.4986 57.38C24.2386 57.38 23.4466 56.3 23.4466 54.8ZM30.6232 59H32.4832V56.216C32.4832 55.136 32.9152 54.632 33.8872 54.632H34.4032V52.664H34.0792C33.3232 52.664 32.7232 53.108 32.4472 53.744H32.4232V52.772H30.6232V59ZM39.2255 53.276H39.1895C38.8415 52.88 38.2415 52.64 37.6175 52.64C35.9975 52.64 34.8815 54.02 34.8815 55.88C34.8815 57.752 35.9975 59.132 37.6175 59.132C38.2415 59.132 38.8535 58.88 39.2015 58.496H39.2255V59H41.0855V50.6H39.2255V53.276ZM38.0375 57.512C37.2455 57.512 36.7655 56.888 36.7655 55.88C36.7655 54.872 37.2455 54.26 38.0375 54.26C38.7815 54.26 39.2255 54.764 39.2255 55.58V56.192C39.2255 57.008 38.7815 57.512 38.0375 57.512ZM45.244 59.12C46.276 59.12 47.14 58.82 47.824 58.196L46.756 56.924C46.42 57.272 45.868 57.512 45.376 57.512C44.632 57.512 44.056 57.068 44.008 56.432H48.088V55.832C48.088 53.996 46.924 52.64 45.148 52.64C43.372 52.64 42.1 54.044 42.1 55.952C42.1 57.848 43.456 59.12 45.244 59.12ZM44.02 55.22C44.116 54.656 44.5 54.2 45.172 54.2C45.844 54.2 46.204 54.632 46.252 55.22H44.02ZM49.0802 59H50.9402V56.216C50.9402 55.136 51.3722 54.632 52.3442 54.632H52.8602V52.664H52.5362C51.7802 52.664 51.1802 53.108 50.9042 53.744H50.8802V52.772H49.0802V59ZM18.8911 73H20.9071V66.388H23.3671V64.6H16.4311V66.388H18.8911V73ZM23.3107 73H25.1707V70.216C25.1707 69.136 25.6027 68.632 26.5747 68.632H27.0907V66.664H26.7667C26.0107 66.664 25.4107 67.108 25.1347 67.744H25.1107V66.772H23.3107V73ZM28.3959 68.728C29.0679 68.428 29.6799 68.212 30.3159 68.212C30.8559 68.212 31.1199 68.44 31.1199 68.884V69.148L29.6679 69.304C28.3119 69.448 27.5679 70.108 27.5679 71.164C27.5679 72.328 28.5039 73.132 29.7639 73.132C30.5199 73.132 31.0959 72.904 31.4799 72.46H31.5039C31.7439 72.892 32.2599 73.144 32.8479 73.144L33.5799 71.86C33.1599 71.776 32.9799 71.572 32.9799 71.188V68.572C32.9799 67.372 32.1159 66.64 30.6279 66.64C29.4039 66.64 28.5399 66.94 27.6519 67.384L28.3959 68.728ZM31.1199 70.336V70.924C31.1199 71.428 30.7479 71.788 30.1719 71.788C29.7039 71.788 29.4399 71.488 29.4399 71.152C29.4399 70.816 29.6919 70.564 30.1359 70.492L31.1199 70.336ZM35.98 69.892C35.98 68.872 36.472 68.26 37.24 68.26C37.756 68.26 38.14 68.524 38.344 69.04L39.904 68.284C39.388 67.216 38.44 66.64 37.168 66.64C35.32 66.64 34.096 67.984 34.096 69.892C34.096 71.776 35.32 73.12 37.168 73.12C38.44 73.12 39.388 72.544 39.904 71.488L38.344 70.732C38.14 71.248 37.756 71.512 37.24 71.512C36.448 71.512 35.98 70.876 35.98 69.892ZM40.8068 73H42.6668V71.2L43.1708 70.54L44.6228 73H46.8428L44.5868 69.292L46.6388 66.772H44.4548L42.6908 69.064H42.6668V64.6H40.8068V73ZM49.9315 73.12C50.9635 73.12 51.8275 72.82 52.5115 72.196L51.4435 70.924C51.1075 71.272 50.5555 71.512 50.0635 71.512C49.3195 71.512 48.7435 71.068 48.6955 70.432H52.7755V69.832C52.7755 67.996 51.6115 66.64 49.8355 66.64C48.0595 66.64 46.7875 68.044 46.7875 69.952C46.7875 71.848 48.1435 73.12 49.9315 73.12ZM48.7075 69.22C48.8035 68.656 49.1875 68.2 49.8595 68.2C50.5315 68.2 50.8915 68.632 50.9395 69.22H48.7075ZM53.7677 73H55.6277V70.216C55.6277 69.136 56.0597 68.632 57.0317 68.632H57.5477V66.664H57.2237C56.4677 66.664 55.8677 67.108 55.5917 67.744H55.5677V66.772H53.7677V73Z" fill="white"/>
</svg>
