<svg width="106" height="107" viewBox="0 0 106 107" fill="none" xmlns="http://www.w3.org/2000/svg">
<g filter="url(#filter0_dd_194_143426)">
<circle cx="53" cy="51" r="37" fill="#939598"/>
</g>
<circle cx="53" cy="51" r="37" fill="#241F20"/>
<mask id="mask0_194_143426" style="mask-type:alpha" maskUnits="userSpaceOnUse" x="16" y="14" width="74" height="74">
<path d="M90 51C90 71.4345 73.4345 88 53 88C32.5655 88 16 71.4345 16 51C16 30.5655 32.5655 14 53 14C73.4345 14 90 30.5655 90 51Z" fill="#FC0000"/>
</mask>
<g mask="url(#mask0_194_143426)">
<path d="M51.9149 31.9747C88.3416 29.6192 125.351 89.3042 86.7543 177.412C65.6709 225.54 22.5129 208.887 -8.38408 179.778C-75.9562 116.116 -24.5369 105.149 6.61257 80.2123C29.9535 61.5264 26.9958 33.5861 51.9149 31.9747Z" stroke="white" stroke-width="2" stroke-dasharray="4 4"/>
</g>
<path opacity="0.2" d="M53 4.5C49.0218 4.5 45.2064 6.08035 42.3934 8.8934C39.5804 11.7064 38 15.5218 38 19.5C38 33 53 43.5 53 43.5C53 43.5 68 33 68 19.5C68 15.5218 66.4196 11.7064 63.6066 8.8934C60.7936 6.08035 56.9782 4.5 53 4.5V4.5ZM53 25.5C51.8133 25.5 50.6533 25.1481 49.6666 24.4888C48.6799 23.8295 47.9108 22.8925 47.4567 21.7961C47.0026 20.6997 46.8838 19.4933 47.1153 18.3295C47.3468 17.1656 47.9182 16.0965 48.7574 15.2574C49.5965 14.4182 50.6656 13.8468 51.8295 13.6153C52.9933 13.3838 54.1997 13.5026 55.2961 13.9567C56.3925 14.4108 57.3295 15.1799 57.9888 16.1666C58.6481 17.1533 59 18.3133 59 19.5C59 21.0913 58.3679 22.6174 57.2426 23.7426C56.1174 24.8679 54.5913 25.5 53 25.5Z" fill="#FC0000"/>
<path d="M68 19.5C68 33 53 43.5 53 43.5C53 43.5 38 33 38 19.5C38 15.5218 39.5804 11.7064 42.3934 8.8934C45.2064 6.08035 49.0218 4.5 53 4.5C56.9782 4.5 60.7936 6.08035 63.6066 8.8934C66.4196 11.7064 68 15.5218 68 19.5Z" fill="#FC0000" stroke="#241F20" stroke-width="3" stroke-linecap="round" stroke-linejoin="round"/>
<path d="M53 25.5C56.3137 25.5 59 22.8137 59 19.5C59 16.1863 56.3137 13.5 53 13.5C49.6863 13.5 47 16.1863 47 19.5C47 22.8137 49.6863 25.5 53 25.5Z" fill="white" stroke="#241F20" stroke-width="2" stroke-linecap="round" stroke-linejoin="round"/>
<path d="M40.7319 53.928C40.3639 54.432 40.1799 55.056 40.1799 55.8C40.1799 56.544 40.3639 57.168 40.7319 57.672C41.0999 58.176 41.6159 58.428 42.2799 58.428C42.9439 58.428 43.4599 58.18 43.8279 57.684C44.1959 57.18 44.3799 56.552 44.3799 55.8C44.3799 55.048 44.1959 54.424 43.8279 53.928C43.4599 53.424 42.9439 53.172 42.2799 53.172C41.6159 53.172 41.0999 53.424 40.7319 53.928ZM45.2799 52.716C46.0399 53.532 46.4199 54.56 46.4199 55.8C46.4199 57.04 46.0399 58.072 45.2799 58.896C44.5279 59.712 43.5279 60.12 42.2799 60.12C41.0319 60.12 40.0279 59.712 39.2679 58.896C38.5159 58.072 38.1399 57.04 38.1399 55.8C38.1399 54.56 38.5159 53.532 39.2679 52.716C40.0279 51.892 41.0319 51.48 42.2799 51.48C43.5279 51.48 44.5279 51.892 45.2799 52.716ZM47.4747 60V53.916H49.2147V54.816H49.2387C49.3507 54.544 49.5427 54.312 49.8147 54.12C50.0947 53.92 50.4267 53.82 50.8107 53.82H51.1827V55.68H50.6907C49.7467 55.68 49.2747 56.212 49.2747 57.276V60H47.4747ZM55.7693 54.408V51.6H57.5693V60H55.7693V59.508H55.7453C55.3693 59.916 54.8613 60.12 54.2213 60.12C53.4293 60.12 52.7893 59.82 52.3013 59.22C51.8133 58.612 51.5693 57.856 51.5693 56.952C51.5693 56.048 51.8133 55.296 52.3013 54.696C52.7893 54.096 53.4293 53.796 54.2213 53.796C54.8613 53.796 55.3653 54 55.7333 54.408H55.7693ZM54.6293 58.548C55.0053 58.548 55.2893 58.428 55.4813 58.188C55.6733 57.948 55.7693 57.636 55.7693 57.252V56.664C55.7693 56.28 55.6733 55.968 55.4813 55.728C55.2893 55.488 55.0053 55.368 54.6293 55.368C54.2293 55.368 53.9213 55.516 53.7053 55.812C53.4973 56.1 53.3933 56.48 53.3933 56.952C53.3933 57.432 53.4973 57.82 53.7053 58.116C53.9213 58.404 54.2293 58.548 54.6293 58.548ZM58.6002 57.024C58.6002 56.056 58.8802 55.276 59.4402 54.684C60.0082 54.092 60.7082 53.796 61.5402 53.796C62.3962 53.796 63.0842 54.088 63.6042 54.672C64.1242 55.256 64.3842 56 64.3842 56.904V57.492H60.4482C60.4802 57.828 60.6282 58.088 60.8922 58.272C61.1562 58.448 61.4562 58.536 61.7922 58.536C62.3042 58.536 62.7402 58.348 63.1002 57.972L64.1322 59.208C63.4682 59.816 62.6362 60.12 61.6362 60.12C60.7962 60.12 60.0802 59.844 59.4882 59.292C58.8962 58.732 58.6002 57.976 58.6002 57.024ZM60.4602 56.28H62.6082C62.5762 55.984 62.4602 55.748 62.2602 55.572C62.0602 55.388 61.8202 55.296 61.5402 55.296C61.2682 55.296 61.0322 55.388 60.8322 55.572C60.6322 55.748 60.5082 55.984 60.4602 56.28ZM65.381 60V53.916H67.121V54.816H67.145C67.257 54.544 67.449 54.312 67.721 54.12C68.001 53.92 68.333 53.82 68.717 53.82H69.089V55.68H68.597C67.653 55.68 67.181 56.212 67.181 57.276V60H65.381ZM35.8135 74V67.34H33.3295V65.6H40.2655V67.34H37.7815V74H35.8135ZM40.2794 74V67.916H42.0194V68.816H42.0434C42.1554 68.544 42.3474 68.312 42.6194 68.12C42.8994 67.92 43.2314 67.82 43.6154 67.82H43.9874V69.68H43.4954C42.5514 69.68 42.0794 70.212 42.0794 71.276V74H40.2794ZM45.3328 69.788L44.5288 68.444C45.3928 68.012 46.3248 67.796 47.3248 67.796C48.0048 67.796 48.5528 67.964 48.9688 68.3C49.3848 68.636 49.5928 69.108 49.5928 69.716V72.224C49.5928 72.592 49.7848 72.812 50.1688 72.884L49.4248 74.132C48.8168 74.132 48.3848 73.908 48.1288 73.46H48.1048C47.7128 73.9 47.1648 74.12 46.4608 74.12C45.8448 74.12 45.3368 73.932 44.9368 73.556C44.5448 73.18 44.3488 72.716 44.3488 72.164C44.3488 71.652 44.5288 71.228 44.8888 70.892C45.2488 70.556 45.7608 70.352 46.4248 70.28L47.7928 70.136V70.016C47.7928 69.584 47.5448 69.368 47.0488 69.368C46.5848 69.368 46.0128 69.508 45.3328 69.788ZM47.7928 71.372L46.8448 71.516C46.3968 71.588 46.1728 71.792 46.1728 72.128C46.1728 72.296 46.2368 72.44 46.3648 72.56C46.4928 72.672 46.6728 72.728 46.9048 72.728C47.1608 72.728 47.3728 72.644 47.5408 72.476C47.7088 72.308 47.7928 72.104 47.7928 71.864V71.372ZM52.5372 70.964C52.5372 71.444 52.6492 71.828 52.8732 72.116C53.0972 72.404 53.3972 72.548 53.7732 72.548C54.2852 72.548 54.6452 72.292 54.8532 71.78L56.3652 72.524C56.1092 73.02 55.7532 73.412 55.2972 73.7C54.8492 73.98 54.3212 74.12 53.7132 74.12C52.8092 74.12 52.0812 73.824 51.5292 73.232C50.9852 72.632 50.7132 71.876 50.7132 70.964C50.7132 70.052 50.9852 69.296 51.5292 68.696C52.0812 68.096 52.8092 67.796 53.7132 67.796C54.3212 67.796 54.8492 67.94 55.2972 68.228C55.7532 68.508 56.1092 68.896 56.3652 69.392L54.8532 70.136C54.6452 69.624 54.2852 69.368 53.7732 69.368C53.3972 69.368 53.0972 69.512 52.8732 69.8C52.6492 70.088 52.5372 70.476 52.5372 70.964ZM57.3068 74V65.6H59.1068V70.16H59.1308L60.8348 67.916H62.9468L60.9548 70.376L63.1388 74H60.9908L59.5988 71.6L59.1068 72.236V74H57.3068ZM63.1705 71.024C63.1705 70.056 63.4505 69.276 64.0105 68.684C64.5785 68.092 65.2785 67.796 66.1105 67.796C66.9665 67.796 67.6545 68.088 68.1745 68.672C68.6945 69.256 68.9545 70 68.9545 70.904V71.492H65.0185C65.0505 71.828 65.1985 72.088 65.4625 72.272C65.7265 72.448 66.0265 72.536 66.3625 72.536C66.8745 72.536 67.3105 72.348 67.6705 71.972L68.7025 73.208C68.0385 73.816 67.2065 74.12 66.2065 74.12C65.3665 74.12 64.6505 73.844 64.0585 73.292C63.4665 72.732 63.1705 71.976 63.1705 71.024ZM65.0305 70.28H67.1785C67.1465 69.984 67.0305 69.748 66.8305 69.572C66.6305 69.388 66.3905 69.296 66.1105 69.296C65.8385 69.296 65.6025 69.388 65.4025 69.572C65.2025 69.748 65.0785 69.984 65.0305 70.28ZM69.9513 74V67.916H71.6913V68.816H71.7153C71.8273 68.544 72.0193 68.312 72.2913 68.12C72.5713 67.92 72.9033 67.82 73.2873 67.82H73.6593V69.68H73.1673C72.2233 69.68 71.7513 70.212 71.7513 71.276V74H69.9513Z" fill="white"/>
<defs>
<filter id="filter0_dd_194_143426" x="0" y="11" width="106" height="106" filterUnits="userSpaceOnUse" color-interpolation-filters="sRGB">
<feFlood flood-opacity="0" result="BackgroundImageFix"/>
<feColorMatrix in="SourceAlpha" type="matrix" values="0 0 0 0 0 0 0 0 0 0 0 0 0 0 0 0 0 0 127 0" result="hardAlpha"/>
<feOffset dy="1"/>
<feGaussianBlur stdDeviation="2"/>
<feComposite in2="hardAlpha" operator="out"/>
<feColorMatrix type="matrix" values="0 0 0 0 0.0588235 0 0 0 0 0.0431373 0 0 0 0 0.0431373 0 0 0 0.24 0"/>
<feBlend mode="normal" in2="BackgroundImageFix" result="effect1_dropShadow_194_143426"/>
<feColorMatrix in="SourceAlpha" type="matrix" values="0 0 0 0 0 0 0 0 0 0 0 0 0 0 0 0 0 0 127 0" result="hardAlpha"/>
<feOffset dy="13"/>
<feGaussianBlur stdDeviation="8"/>
<feComposite in2="hardAlpha" operator="out"/>
<feColorMatrix type="matrix" values="0 0 0 0 0.0583333 0 0 0 0 0.0449653 0 0 0 0 0.0449653 0 0 0 0.25 0"/>
<feBlend mode="multiply" in2="effect1_dropShadow_194_143426" result="effect2_dropShadow_194_143426"/>
<feBlend mode="normal" in="SourceGraphic" in2="effect2_dropShadow_194_143426" result="shape"/>
</filter>
</defs>
</svg>
