<svg width="64" height="64" viewBox="0 0 64 64" fill="none" xmlns="http://www.w3.org/2000/svg">
<rect width="64" height="64" rx="32" fill="#F26522"/>
<path d="M32 19C29.4288 19 26.9154 19.7624 24.7776 21.1909C22.6398 22.6194 20.9735 24.6497 19.9896 27.0251C19.0056 29.4006 18.7482 32.0144 19.2498 34.5362C19.7514 37.0579 20.9895 39.3743 22.8076 41.1924C24.6257 43.0105 26.9421 44.2486 29.4638 44.7502C31.9856 45.2518 34.5995 44.9944 36.9749 44.0104C39.3503 43.0265 41.3807 41.3603 42.8091 39.2224C44.2376 37.0846 45 34.5712 45 32C44.9934 28.5542 43.6216 25.2515 41.1851 22.8149C38.7486 20.3784 35.4458 19.0066 32 19ZM31 26C31 25.7348 31.1054 25.4804 31.2929 25.2929C31.4804 25.1054 31.7348 25 32 25C32.2652 25 32.5196 25.1054 32.7071 25.2929C32.8946 25.4804 33 25.7348 33 26V33C33 33.2652 32.8946 33.5196 32.7071 33.7071C32.5196 33.8946 32.2652 34 32 34C31.7348 34 31.4804 33.8946 31.2929 33.7071C31.1054 33.5196 31 33.2652 31 33V26ZM32 39C31.7033 39 31.4133 38.912 31.1667 38.7472C30.92 38.5824 30.7277 38.3481 30.6142 38.074C30.5007 37.7999 30.471 37.4983 30.5288 37.2074C30.5867 36.9164 30.7296 36.6491 30.9393 36.4393C31.1491 36.2296 31.4164 36.0867 31.7074 36.0288C31.9983 35.9709 32.2999 36.0007 32.574 36.1142C32.8481 36.2277 33.0824 36.42 33.2472 36.6666C33.412 36.9133 33.5 37.2033 33.5 37.5C33.5 37.8978 33.342 38.2794 33.0607 38.5607C32.7794 38.842 32.3978 39 32 39Z" fill="white"/>
</svg>
