<svg width="27" height="20" viewBox="0 0 27 20" fill="none" xmlns="http://www.w3.org/2000/svg">
<path fill-rule="evenodd" clip-rule="evenodd" d="M23.4741 1.27029C24.6082 1.57532 25.5011 2.47408 25.8042 3.61543C26.3549 5.68404 26.3549 10.0001 26.3549 10.0001C26.3549 10.0001 26.3549 14.316 25.8042 16.3848C25.5011 17.526 24.6082 18.4248 23.4741 18.73C21.4189 19.2842 13.1775 19.2842 13.1775 19.2842C13.1775 19.2842 4.93605 19.2842 2.88076 18.73C1.74685 18.4248 0.853774 17.526 0.550717 16.3848C0 14.316 0 10.0001 0 10.0001C0 10.0001 0 5.68404 0.550717 3.61543C0.853774 2.47408 1.74685 1.57532 2.88076 1.27029C4.93605 0.715942 13.1775 0.715942 13.1775 0.715942C13.1775 0.715942 21.4189 0.715942 23.4741 1.27029ZM17.3701 10.0002L10.4819 13.9186V6.08139L17.3701 10.0002Z" fill="white"/>
</svg>
