<svg width="16" height="16" viewBox="0 0 16 16" fill="none" xmlns="http://www.w3.org/2000/svg">
<path d="M13.3599 11.238C15.0609 9.72 16.0009 8 16.0009 8C16.0009 8 13.0009 2.5 8.00094 2.5C7.04053 2.50331 6.09099 2.70342 5.21094 3.088L5.98094 3.859C6.62837 3.62315 7.31189 3.50168 8.00094 3.5C10.1209 3.5 11.8799 4.668 13.1689 5.957C13.7893 6.58069 14.3454 7.26513 14.8289 8C14.7709 8.087 14.7069 8.183 14.6339 8.288C14.2989 8.768 13.8039 9.408 13.1689 10.043C13.0039 10.208 12.8319 10.371 12.6519 10.529L13.3599 11.238Z" fill="black"/>
<path d="M11.2974 9.17635C11.5205 8.5522 11.5618 7.8775 11.4165 7.23077C11.2712 6.58405 10.9452 5.99188 10.4765 5.52317C10.0078 5.05447 9.41566 4.72849 8.76893 4.58318C8.12221 4.43787 7.44751 4.4792 6.82335 4.70235L7.64635 5.52535C8.03066 5.47035 8.4225 5.5056 8.79083 5.62832C9.15915 5.75104 9.49383 5.95785 9.76834 6.23237C10.0429 6.50688 10.2497 6.84156 10.3724 7.20988C10.4951 7.5782 10.5304 7.97004 10.4754 8.35435L11.2974 9.17635ZM8.35435 10.4754L9.17635 11.2974C8.5522 11.5205 7.8775 11.5618 7.23077 11.4165C6.58405 11.2712 5.99188 10.9452 5.52317 10.4765C5.05447 10.0078 4.72849 9.41566 4.58318 8.76893C4.43787 8.12221 4.4792 7.44751 4.70235 6.82335L5.52535 7.64635C5.47035 8.03066 5.5056 8.4225 5.62832 8.79083C5.75104 9.15915 5.95785 9.49383 6.23237 9.76834C6.50688 10.0429 6.84156 10.2497 7.20988 10.3724C7.5782 10.4951 7.97004 10.5304 8.35435 10.4754Z" fill="black"/>
<path d="M3.35 5.47048C3.17 5.63048 2.997 5.79248 2.832 5.95748C2.21165 6.58117 1.65552 7.26561 1.172 8.00048L1.367 8.28848C1.702 8.76848 2.197 9.40848 2.832 10.0435C4.121 11.3325 5.881 12.5005 8 12.5005C8.716 12.5005 9.39 12.3675 10.02 12.1405L10.79 12.9125C9.90994 13.297 8.9604 13.4971 8 13.5005C3 13.5005 0 8.00048 0 8.00048C0 8.00048 0.939 6.27948 2.641 4.76248L3.349 5.47148L3.35 5.47048ZM13.646 14.3545L1.646 2.35448L2.354 1.64648L14.354 13.6465L13.646 14.3545Z" fill="black"/>
</svg>
