<svg width="81" height="82" viewBox="0 0 81 82" fill="none" xmlns="http://www.w3.org/2000/svg">
<path d="M54.7844 79.4428C55.1406 79.3782 55.4212 79.3028 55.5723 79.2705C55.8098 79.2275 56.1334 79.2811 56.5541 79.3561C57.7191 79.5598 59.4989 79.8815 63.1688 79.1279C68.5549 78.019 71.6097 70.9361 74.0471 65.2397L74.3179 64.5949C76.636 59.2424 76.9362 53.9875 76.4878 51.1292C76.0609 48.3353 70.5146 42.051 67.8421 40.021C67.0231 39.3981 65.7508 38.8183 64.2626 38.346L62.6382 35.4129C62.5952 35.3377 62.5414 35.2303 62.4661 35.1121C62.38 34.9617 62.2509 34.7361 62.1326 34.489L62.1219 34.4567C60.476 31.5129 55.7423 23.2402 52.081 18.8895C48.1612 14.2487 44.2305 9.68307 41.8602 7.5885C39.0266 5.075 36.7193 4.03351 34.9705 4.50701C34.0313 4.76528 33.3289 5.41032 32.8632 6.44212C32.7657 6.63559 32.679 6.86129 32.6247 7.07623C31.3774 10.9453 35.9003 16.2092 39.2064 20.0335C39.7664 20.6888 40.2725 21.2904 40.7141 21.806C42.2969 23.7505 44.7511 27.285 46.5056 29.8527C44.5537 29.1764 42.5036 29.1772 40.8514 29.9408C39.9335 30.371 38.6048 31.2957 37.965 33.2087C36.4221 33.1126 34.986 33.7687 34.986 33.7687C33.6902 34.3065 32.1776 35.4891 31.3762 37.241C31.0188 38.0042 30.8232 38.8747 30.8215 39.8418C29.451 39.9391 28.4141 40.552 27.8631 41.0035L27.8523 41.025C27.809 41.0573 27.7982 41.0788 27.755 41.111C27.701 41.1648 27.6577 41.197 27.6037 41.2508C27.5497 41.3045 27.5064 41.3368 27.4848 41.3798L27.474 41.4013C27.4308 41.4336 27.4199 41.455 27.4199 41.455C27.1281 41.7668 26.8901 42.1323 26.7059 42.5514C25.9153 44.2819 25.9865 46.8716 26.9849 49.8694C28.2839 53.8235 30.7602 57.0464 33.1325 57.9051C33.5423 58.0554 33.9091 58.1305 34.2759 58.1519L34.823 60.0645C35.2947 61.8589 36.6032 66.5437 37.5265 69.3158C38.8472 73.1732 40.9645 78.1263 43.6053 79.7372C45.707 81.1334 50.4344 80.3686 54.7844 79.4428Z" fill="black" stroke="black" stroke-miterlimit="10" stroke-linecap="round" stroke-linejoin="round"/>
<path d="M34.7408 58.8907C34.8491 58.6757 35.0112 58.5144 35.2594 58.4498C35.6911 58.3421 36.133 58.589 36.24 59.0187C36.2615 59.0832 37.9752 65.5294 39.1231 68.8706C40.8288 73.8877 42.7963 77.368 44.488 78.3986C46.3198 79.5258 52.4389 78.2433 54.457 77.823C54.8455 77.7476 55.1477 77.6829 55.2988 77.6506C55.8276 77.5643 56.3021 77.6392 56.8628 77.7571C57.8981 77.9499 59.4834 78.2283 62.8289 77.5278C67.34 76.601 70.3198 69.6684 72.487 64.6167L72.7688 63.9503C75.0984 58.5761 75.162 53.5257 74.8316 51.3983C74.512 49.3031 69.3776 43.3318 66.8354 41.3669C64.4225 39.5201 56.8413 38.1385 54.5535 38.559C53.9276 38.6776 53.5387 38.9679 53.3761 39.3979C53.0291 40.3007 53.6196 41.8047 54.9218 43.448C57.2141 46.3371 62.0356 46.6673 62.0895 46.6673C62.5102 46.6885 62.8224 47.0322 62.8432 47.419C62.9877 50.8252 65.6153 53.2629 65.6369 53.2736C65.8415 53.4561 65.9273 53.714 65.8944 53.9934C65.8399 54.262 65.6669 54.4986 65.4294 54.5954C54.1361 59.4592 55.4284 66.2603 55.4499 66.3248C55.5354 66.7438 55.2649 67.1738 54.8331 67.2815C54.4123 67.3677 53.9813 67.0993 53.8742 66.6696C53.7993 66.3365 52.3787 58.9337 63.7484 53.5971C62.8766 52.5446 61.5965 50.6434 61.2991 48.1829C59.7353 47.9689 55.8639 47.1976 53.6685 44.4373C51.9681 42.3 51.3246 40.3125 51.8776 38.84C52.2247 37.8834 53.0889 37.2382 54.2544 37.0118C56.9092 36.5052 65.008 37.9832 67.798 40.0983C70.4479 42.1169 76.0024 48.3781 76.4071 51.161C76.8331 54.0082 76.5427 59.2415 74.2239 64.5941L73.953 65.239C71.5257 70.9141 68.4808 77.9757 63.128 79.075C59.4587 79.8294 57.7009 79.5189 56.5362 79.3154C56.0941 79.2297 55.7706 79.1762 55.5331 79.2193C55.3821 79.2516 55.1123 79.3055 54.7453 79.3917C50.4285 80.3077 45.702 81.0735 43.6008 79.7853C40.8424 78.0892 38.6199 72.5459 37.5579 69.4088C36.4101 66.0139 34.6749 59.5032 34.6534 59.4388C34.6538 59.2239 34.665 59.0412 34.7408 58.8907Z" fill="white"/>
<path d="M26.7383 42.629C27.0633 41.9302 27.5068 41.371 28.1118 40.973C28.4792 40.7255 28.9646 40.8327 29.2121 41.198C29.4595 41.5633 29.3507 42.047 28.9834 42.2945C27.5788 43.2089 27.4116 46.0036 28.5166 49.3779C29.6432 52.7629 31.7741 55.7066 33.6289 56.3612C35.117 56.8869 35.7663 55.9192 35.7663 55.9192C36.0044 55.5536 36.5117 55.4566 36.8781 55.6928C37.2446 55.9291 37.3407 56.4342 37.1026 56.7998C36.6373 57.5094 35.2108 58.6281 33.0649 57.8555C30.7573 57.0293 28.2601 53.7418 26.9726 49.8732C26.0395 46.9073 25.9796 44.3492 26.7383 42.629Z" fill="white"/>
<path d="M31.4589 37.3276C32.3691 35.3066 34.2272 34.0803 35.609 33.6925C36.0408 33.5848 36.4827 33.8317 36.6006 34.24C36.7077 34.6699 36.4587 35.1107 36.0485 35.2291C35.0337 35.5307 32.193 37.1015 32.5211 40.4652C32.8595 44.076 34.608 49.3841 37.1708 52.1123C39.4858 54.5828 42.3372 53.0442 42.4452 52.9904C42.8233 52.7752 43.3193 52.9146 43.5344 53.2906C43.7495 53.6667 43.6082 54.1611 43.2302 54.3763C41.8477 55.1402 38.5554 55.8945 36.0034 53.1985C33.1715 50.2017 31.3048 44.5928 30.9239 40.6381C30.8185 39.3485 31.0471 38.2521 31.4589 37.3276Z" fill="white"/>
<path d="M32.9556 6.49706C33.4107 5.48653 34.1024 4.86277 35.0092 4.61503C36.7257 4.15185 39.0111 5.18221 41.8225 7.68463C44.1707 9.76819 48.1218 14.3442 52.0188 18.9739C56.4434 24.2159 62.3893 35.1101 62.6365 35.5828C62.8408 35.9804 62.7104 36.4533 62.3108 36.6578C61.9327 36.8729 61.4367 36.7335 61.2324 36.336C61.1787 36.2286 55.1037 25.1088 50.7976 20.0064C48.1923 16.9342 43.3479 11.1873 40.7628 8.87823C38.49 6.85911 36.539 5.86079 35.4379 6.17313C35.2435 6.23773 34.6498 6.39931 34.2374 7.64625C33.2822 10.6131 37.6209 15.651 40.4846 18.9594C41.0444 19.6147 41.5719 20.2269 42.0241 20.7748C44.7905 24.1693 49.8686 31.8613 50.0838 32.1836C50.3205 32.5166 50.2334 32.9573 49.9307 33.2369C49.6173 33.4843 49.1642 33.4738 48.8626 33.216C46.7515 31.2506 43.6886 30.5323 41.5719 31.5224C39.9844 32.2649 39.2262 33.8237 39.3406 36.0591C39.6416 42.3139 42.5689 46.2456 44.3123 48.6198L44.5167 48.9098C45.3776 50.0915 47.1782 50.7997 48.3442 50.4121C49.4454 50.046 49.6852 48.8207 49.687 47.8534C49.7171 43.404 46.0251 38.7419 45.9928 38.6989C45.8098 38.4733 45.7672 38.1832 45.8756 37.9144C45.984 37.6457 46.211 37.4629 46.4808 37.409L48.661 37.0422C49.1036 36.9667 49.5238 37.2566 49.5769 37.6865C49.6516 38.1271 49.3595 38.5464 48.9278 38.6004L48.0212 38.7407C49.2155 40.4918 51.3234 44.1231 51.2947 47.8202C51.2785 50.6898 49.7446 51.5935 48.8377 51.8949C47.0239 52.4979 44.5008 51.5644 43.2202 49.8241L43.0157 49.5341C41.1755 47.0311 38.0868 42.8307 37.722 36.1138C37.5353 32.2019 39.6207 30.6315 40.8842 30.0504C42.5797 29.2541 44.716 29.2958 46.7107 30.0469C44.9461 27.4471 42.396 23.7838 40.7597 21.7858C40.3507 21.2594 39.8124 20.6686 39.2526 20.0134C35.969 16.2001 31.4796 10.9796 32.717 7.1313C32.7714 6.91632 32.8581 6.69057 32.9556 6.49706Z" fill="white"/>
<path d="M23.3653 11.5827L3.42038 0.156346C3.18654 0.0224043 2.89426 0.0444023 2.68328 0.211763C2.47235 0.379173 2.38565 0.657952 2.46474 0.914647L9.2114 22.8133C9.28839 23.0632 9.50694 23.2422 9.76553 23.2712C9.77785 23.2726 9.79029 23.2737 9.80268 23.2744C10.0774 23.2896 10.3325 23.1329 10.442 22.8817L13.1173 16.7414C13.7362 15.3209 15.0186 14.3034 16.5478 14.0194L23.1581 12.792C23.4285 12.7417 23.6389 12.5291 23.6851 12.2592C23.7314 11.9893 23.6037 11.7193 23.3653 11.5827Z" fill="black"/>
</svg>
