<svg width="25" height="24" viewBox="0 0 25 24" fill="none" xmlns="http://www.w3.org/2000/svg">
<path d="M12.5 4.5V2.625M12.5 21.375V19.5M20 12H21.875M3.125 12H5M12.5 5.25C11.165 5.25 9.85993 5.64588 8.7499 6.38758C7.63987 7.12928 6.7747 8.18349 6.26381 9.41689C5.75292 10.6503 5.61925 12.0075 5.8797 13.3169C6.14015 14.6262 6.78302 15.829 7.72703 16.773C8.67103 17.717 9.87377 18.3599 11.1831 18.6203C12.4925 18.8808 13.8497 18.7471 15.0831 18.2362C16.3165 17.7253 17.3707 16.8601 18.1124 15.7501C18.8541 14.6401 19.25 13.335 19.25 12C19.25 10.2098 18.5388 8.4929 17.273 7.22703C16.0071 5.96116 14.2902 5.25 12.5 5.25Z" stroke="#F5B335" stroke-width="2.25" stroke-linecap="square" stroke-linejoin="round"/>
</svg>
