<svg width="16" height="16" viewBox="0 0 16 16" fill="none" xmlns="http://www.w3.org/2000/svg">
<path d="M5 3.00122V4.00122H14.5V5.98075L13.3906 9.50122H4.68538L3.43537 0.5H0.5V1.5H2.56463L3.81463 10.5012H14.124L15.5 6.13456V3.00122H5Z" fill="#202020"/>
<path d="M5.53027 11.5107C5.00002 11.5113 4.49167 11.7223 4.11673 12.0972C3.74178 12.4721 3.53088 12.9805 3.53027 13.5107C3.53027 14.0412 3.74099 14.5499 4.11606 14.925C4.49113 15.3 4.99984 15.5107 5.53027 15.5107C6.0607 15.5107 6.56941 15.3 6.94448 14.925C7.31956 14.5499 7.53027 14.0412 7.53027 13.5107C7.52967 12.9805 7.31877 12.4721 6.94383 12.0972C6.56888 11.7222 6.06052 11.5113 5.53027 11.5107ZM5.53027 14.5107C5.33249 14.5107 5.13915 14.4521 4.9747 14.3422C4.81025 14.2323 4.68208 14.0762 4.60639 13.8934C4.53071 13.7107 4.5109 13.5096 4.54949 13.3157C4.58807 13.1217 4.68331 12.9435 4.82317 12.8036C4.96302 12.6638 5.1412 12.5685 5.33518 12.53C5.52916 12.4914 5.73023 12.5112 5.91295 12.5869C6.09568 12.6626 6.25186 12.7907 6.36174 12.9552C6.47162 13.1196 6.53027 13.313 6.53027 13.5107C6.52996 13.7759 6.4245 14.03 6.23703 14.2175C6.04956 14.405 5.79539 14.5104 5.53027 14.5107Z" fill="#202020"/>
<path d="M12.5303 11.5107C12 11.5113 11.4917 11.7223 11.1167 12.0972C10.7418 12.4721 10.5309 12.9805 10.5303 13.5107C10.5303 14.0412 10.741 14.5499 11.1161 14.925C11.4911 15.3 11.9998 15.5107 12.5303 15.5107C13.0607 15.5107 13.5694 15.3 13.9445 14.925C14.3196 14.5499 14.5303 14.0412 14.5303 13.5107C14.5297 12.9805 14.3188 12.4721 13.9438 12.0972C13.5689 11.7222 13.0605 11.5113 12.5303 11.5107ZM12.5303 14.5107C12.3325 14.5107 12.1392 14.4521 11.9747 14.3422C11.8103 14.2323 11.6821 14.0762 11.6064 13.8934C11.5307 13.7107 11.5109 13.5096 11.5495 13.3157C11.5881 13.1217 11.6833 12.9435 11.8232 12.8036C11.963 12.6638 12.1412 12.5685 12.3352 12.53C12.5292 12.4914 12.7302 12.5112 12.913 12.5869C13.0957 12.6626 13.2519 12.7907 13.3617 12.9552C13.4716 13.1196 13.5303 13.313 13.5303 13.5107C13.53 13.7759 13.4245 14.03 13.237 14.2175C13.0496 14.405 12.7954 14.5104 12.5303 14.5107Z" fill="#202020"/>
</svg>
