<svg width="16" height="16" viewBox="0 0 16 16" fill="none" xmlns="http://www.w3.org/2000/svg">
<path d="M5 3.00122V4.00122H14.5V5.98075L13.3906 9.50122H4.68538L3.43537 0.5H0.5V1.5H2.56463L3.81463 10.5012H14.124L15.5 6.13456V3.00122H5Z" fill="white"/>
<path d="M5.53125 11.5107C5.001 11.5113 4.49264 11.7223 4.1177 12.0972C3.74276 12.4721 3.53185 12.9805 3.53125 13.5107C3.53125 14.0412 3.74196 14.5499 4.11704 14.925C4.49211 15.3 5.00082 15.5107 5.53125 15.5107C6.06168 15.5107 6.57039 15.3 6.94546 14.925C7.32053 14.5499 7.53124 14.0412 7.53124 13.5107C7.53065 12.9805 7.31975 12.4721 6.9448 12.0972C6.56986 11.7222 6.0615 11.5113 5.53125 11.5107ZM5.53125 14.5107C5.33347 14.5107 5.14013 14.4521 4.97568 14.3422C4.81123 14.2323 4.68306 14.0762 4.60737 13.8934C4.53168 13.7107 4.51188 13.5096 4.55046 13.3157C4.58905 13.1217 4.68429 12.9435 4.82414 12.8036C4.96399 12.6638 5.14218 12.5685 5.33616 12.53C5.53014 12.4914 5.7312 12.5112 5.91393 12.5869C6.09666 12.6626 6.25284 12.7907 6.36272 12.9552C6.4726 13.1196 6.53125 13.313 6.53125 13.5107C6.53093 13.7759 6.42547 14.03 6.23801 14.2175C6.05054 14.405 5.79637 14.5104 5.53125 14.5107Z" fill="white"/>
<path d="M12.5312 11.5107C12.001 11.5113 11.4926 11.7223 11.1177 12.0972C10.7428 12.4721 10.5319 12.9805 10.5312 13.5107C10.5312 14.0412 10.742 14.5499 11.117 14.925C11.4921 15.3 12.0008 15.5107 12.5312 15.5107C13.0617 15.5107 13.5704 15.3 13.9455 14.925C14.3205 14.5499 14.5312 14.0412 14.5312 13.5107C14.5307 12.9805 14.3197 12.4721 13.9448 12.0972C13.5699 11.7222 13.0615 11.5113 12.5312 11.5107ZM12.5312 14.5107C12.3335 14.5107 12.1401 14.4521 11.9757 14.3422C11.8112 14.2323 11.6831 14.0762 11.6074 13.8934C11.5317 13.7107 11.5119 13.5096 11.5505 13.3157C11.589 13.1217 11.6843 12.9435 11.8241 12.8036C11.964 12.6638 12.1422 12.5685 12.3362 12.53C12.5301 12.4914 12.7312 12.5112 12.9139 12.5869C13.0967 12.6626 13.2528 12.7907 13.3627 12.9552C13.4726 13.1196 13.5312 13.313 13.5312 13.5107C13.5309 13.7759 13.4255 14.03 13.238 14.2175C13.0505 14.405 12.7964 14.5104 12.5312 14.5107Z" fill="white"/>
</svg>
