<svg width="24" height="24" viewBox="0 0 24 24" fill="none" xmlns="http://www.w3.org/2000/svg">
<path d="M11.6025 2.78895L16.2612 20.1756L5.63604 23.0226C5.37986 23.0913 5.1069 23.0553 4.87722 22.9227C4.64753 22.7901 4.47993 22.5717 4.41129 22.3155L2.98779 17.0029C3.62824 16.8313 4.17428 16.4123 4.5058 15.8381C4.83732 15.2639 4.92716 14.5815 4.75555 13.9411C4.58395 13.3006 4.16495 12.7546 3.59074 12.423C3.01653 12.0915 2.33414 12.0017 1.69369 12.1733L0.270187 6.8607C0.201544 6.60452 0.237479 6.33157 0.370087 6.10188C0.502695 5.8722 0.721114 5.7046 0.977294 5.63596L11.6025 2.78895ZM13.5343 2.27131L18.364 0.977214C18.6201 0.90857 18.8931 0.944505 19.1228 1.07711C19.3525 1.20972 19.5201 1.42814 19.5887 1.68432L21.0122 6.99691C20.3718 7.16852 19.8257 7.58752 19.4942 8.16173C19.1627 8.73594 19.0728 9.41833 19.2444 10.0588C19.416 10.6992 19.835 11.2453 20.4093 11.5768C20.9835 11.9083 21.6659 11.9981 22.3063 11.8265L23.7298 17.1391C23.7985 17.3953 23.7625 17.6683 23.6299 17.898C23.4973 18.1276 23.2789 18.2952 23.0227 18.3639L18.1931 19.658L13.5343 2.27131Z" fill="#F18A00"/>
</svg>
