<svg width="24" height="24" viewBox="0 0 24 24" fill="none" xmlns="http://www.w3.org/2000/svg">
<g clip-path="url(#clip0)">
<path d="M15.6 20.4C15.5928 20.7196 15.6495 21.0374 15.7668 21.3348C15.8841 21.6322 16.0596 21.9031 16.283 22.1318C16.5065 22.3604 16.7734 22.5421 17.068 22.6661C17.3626 22.7902 17.6791 22.8541 17.9988 22.8542C18.3185 22.8543 18.635 22.7905 18.9297 22.6666C19.2243 22.5427 19.4913 22.3611 19.7149 22.1326C19.9385 21.9041 20.1141 21.6332 20.2316 21.3359C20.349 21.0386 20.4059 20.7208 20.3988 20.4012C20.3849 19.7741 20.1261 19.1774 19.6778 18.7387C19.2295 18.3001 18.6272 18.0544 18 18.0542C17.3728 18.0541 16.7704 18.2994 16.3218 18.7379C15.8733 19.1763 15.6142 19.7729 15.6 20.4ZM3.6 20.4C3.6 21.0365 3.85286 21.6469 4.30294 22.097C4.75303 22.5471 5.36348 22.8 6 22.8C6.63652 22.8 7.24697 22.5471 7.69706 22.097C8.14714 21.6469 8.4 21.0365 8.4 20.4C8.4 19.7634 8.14714 19.153 7.69706 18.7029C7.24697 18.2528 6.63652 18 6 18C5.36348 18 4.75303 18.2528 4.30294 18.7029C3.85286 19.153 3.6 19.7634 3.6 20.4ZM7.8564 14.6064L21.138 10.812C21.2679 10.7686 21.3815 10.687 21.464 10.5777C21.5465 10.4684 21.5939 10.3367 21.6 10.2V3.59995H4.8V1.67995C4.8 1.41595 4.5828 1.19995 4.3212 1.19995H0.4788C0.351802 1.20058 0.230203 1.2514 0.140513 1.34131C0.0508232 1.43123 0.00031513 1.55295 0 1.67995L0 3.59995H2.4L4.692 14.3484L4.8 15.48V17.4588C4.8 17.7216 5.016 17.9388 5.28 17.9388H21.12C21.384 17.9388 21.6 17.7204 21.6 17.4588V15.6H8.1024C6.7224 15.6 6.6936 14.9388 7.8564 14.6064Z" fill="#F5B335"/>
</g>
<defs>
<clipPath id="clip0">
<rect width="24" height="24" fill="white"/>
</clipPath>
</defs>
</svg>
