<svg width="20" height="20" viewBox="0 0 20 20" fill="none" xmlns="http://www.w3.org/2000/svg">
<path d="M16.0417 18.5834L14.375 16.9167L15.25 16.0417L16.9167 17.7084C17.1667 17.9584 17.1667 18.3334 16.9167 18.5834C16.7083 18.7917 16.2917 18.7917 16.0417 18.5834Z" fill="#37474F"/>
<path d="M3.95825 18.5834L5.62492 16.9167L4.74992 16.0417L3.08325 17.7084C2.83325 17.9584 2.83325 18.3334 3.08325 18.5834C3.29159 18.7917 3.70825 18.7917 3.95825 18.5834Z" fill="#37474F"/>
<path d="M10.0001 18.3334C14.6025 18.3334 18.3334 14.6024 18.3334 10C18.3334 5.39765 14.6025 1.66669 10.0001 1.66669C5.39771 1.66669 1.66675 5.39765 1.66675 10C1.66675 14.6024 5.39771 18.3334 10.0001 18.3334Z" fill="#C62828"/>
<path d="M9.99992 16.6666C13.6818 16.6666 16.6666 13.6819 16.6666 9.99998C16.6666 6.31808 13.6818 3.33331 9.99992 3.33331C6.31802 3.33331 3.33325 6.31808 3.33325 9.99998C3.33325 13.6819 6.31802 16.6666 9.99992 16.6666Z" fill="#EEEEEE"/>
<path d="M6.29003 13.95L6.0542 13.7142L9.88378 9.88458L10.1196 10.12L6.29003 13.95Z" fill="#E53935"/>
<path d="M9.58325 4.58331H10.4166V9.99998H9.58325V4.58331Z" fill="black"/>
<path d="M13.0355 12.3558L12.3584 13.0333L9.64844 10.3233L10.3259 9.64539L13.0355 12.3558Z" fill="black"/>
<path d="M10.0001 10.8334C10.4603 10.8334 10.8334 10.4603 10.8334 10C10.8334 9.53978 10.4603 9.16669 10.0001 9.16669C9.53984 9.16669 9.16675 9.53978 9.16675 10C9.16675 10.4603 9.53984 10.8334 10.0001 10.8334Z" fill="black"/>
<path d="M9.99992 10.4166C10.23 10.4166 10.4166 10.2301 10.4166 9.99998C10.4166 9.76986 10.23 9.58331 9.99992 9.58331C9.7698 9.58331 9.58325 9.76986 9.58325 9.99998C9.58325 10.2301 9.7698 10.4166 9.99992 10.4166Z" fill="#C62828"/>
<path d="M9.16675 0.416687H10.8334V1.66669H9.16675V0.416687Z" fill="#37474F"/>
<path d="M18.4998 6.74998C19.5415 5.29165 19.3748 3.24998 18.0832 1.95831C16.7915 0.666646 14.7498 0.49998 13.2915 1.54165L18.4998 6.74998Z" fill="#37474F"/>
<path d="M1.4999 6.74998C0.458232 5.29165 0.624898 3.24998 1.91657 1.95831C3.20823 0.666646 5.2499 0.49998 6.70823 1.54165L1.4999 6.74998Z" fill="#37474F"/>
</svg>
