<svg width="16" height="16" viewBox="0 0 16 16" fill="none" xmlns="http://www.w3.org/2000/svg">
<path d="M13.7505 1.50082V13.5008C13.7505 13.6334 13.6978 13.7606 13.604 13.8544C13.5103 13.9481 13.3831 14.0008 13.2505 14.0008C13.1179 14.0008 12.9907 13.9481 12.8969 13.8544C12.8032 13.7606 12.7505 13.6334 12.7505 13.5008V10.0008H9.75049C9.67972 10.0001 9.60987 9.98475 9.54532 9.95571C9.48078 9.92666 9.42296 9.88457 9.37549 9.83207C9.32897 9.77965 9.29383 9.71815 9.27232 9.65144C9.2508 9.58474 9.24337 9.5143 9.25049 9.44457C9.4054 8.19279 9.65189 6.95405 9.98799 5.73832C10.738 3.08832 11.7817 1.50082 13.0817 1.03207C13.157 1.00352 13.2382 0.993822 13.3181 1.00382C13.398 1.01382 13.4742 1.04321 13.5402 1.08943C13.6061 1.13565 13.6598 1.19731 13.6964 1.26901C13.7331 1.34072 13.7516 1.4203 13.7505 1.50082ZM8.49424 4.41957L7.99424 1.41957C7.98357 1.35473 7.96024 1.29263 7.92556 1.23681C7.89089 1.18099 7.84557 1.13254 7.79217 1.09424C7.73878 1.05593 7.67836 1.02852 7.61438 1.01356C7.55039 0.998608 7.48408 0.996403 7.41924 1.00707C7.28829 1.02862 7.17126 1.10131 7.09391 1.20914C7.01655 1.31697 6.98519 1.45112 7.00674 1.58207L7.41299 4.00082H6.25049V1.50082C6.25049 1.36821 6.19781 1.24104 6.10404 1.14727C6.01028 1.0535 5.8831 1.00082 5.75049 1.00082C5.61788 1.00082 5.49071 1.0535 5.39694 1.14727C5.30317 1.24104 5.25049 1.36821 5.25049 1.50082V4.00082H4.08799L4.49424 1.58207C4.50491 1.51723 4.50271 1.45093 4.48775 1.38694C4.47279 1.32295 4.44538 1.26253 4.40708 1.20914C4.36877 1.15575 4.32033 1.11042 4.26451 1.07575C4.20869 1.04108 4.14658 1.01774 4.08174 1.00707C4.0169 0.996403 3.95059 0.998608 3.88661 1.01356C3.82262 1.02852 3.7622 1.05593 3.70881 1.09424C3.65542 1.13254 3.61009 1.18099 3.57542 1.23681C3.54075 1.29263 3.51741 1.35473 3.50674 1.41957L3.00674 4.41957C3.00105 4.44626 2.99895 4.47358 3.00049 4.50082C3.00122 5.14346 3.22648 5.76565 3.63733 6.25981C4.04817 6.75397 4.61878 7.08904 5.25049 7.20707V13.5008C5.25049 13.6334 5.30317 13.7606 5.39694 13.8544C5.49071 13.9481 5.61788 14.0008 5.75049 14.0008C5.8831 14.0008 6.01028 13.9481 6.10404 13.8544C6.19781 13.7606 6.25049 13.6334 6.25049 13.5008V7.20707C6.8822 7.08904 7.45281 6.75397 7.86366 6.25981C8.27451 5.76565 8.49977 5.14346 8.50049 4.50082C8.5015 4.47566 8.4994 4.45047 8.49424 4.42582V4.41957Z" fill="#939598"/>
</svg>
