<svg width="17" height="16" viewBox="0 0 17 16" fill="none" xmlns="http://www.w3.org/2000/svg">
<path d="M8.5 10.25C10.0188 10.25 11.25 9.01878 11.25 7.5C11.25 5.98122 10.0188 4.75 8.5 4.75C6.98122 4.75 5.75 5.98122 5.75 7.5C5.75 9.01878 6.98122 10.25 8.5 10.25Z" fill="white"/>
<path d="M8.5 1.5C7.21442 1.5 5.95772 1.88122 4.8888 2.59545C3.81988 3.30968 2.98676 4.32484 2.49479 5.51256C2.00282 6.70028 1.87409 8.00721 2.1249 9.26809C2.3757 10.529 2.99477 11.6872 3.90381 12.5962C4.81285 13.5052 5.97104 14.1243 7.23192 14.3751C8.49279 14.6259 9.79973 14.4972 10.9874 14.0052C12.1752 13.5132 13.1903 12.6801 13.9046 11.6112C14.6188 10.5423 15 9.28558 15 8C14.9967 6.27711 14.3108 4.62573 13.0925 3.40746C11.8743 2.18918 10.2229 1.5033 8.5 1.5ZM12.6125 11.65C12.2078 11.0694 11.6862 10.5798 11.0813 10.2125C10.3867 10.8779 9.46191 11.2494 8.5 11.2494C7.53809 11.2494 6.61334 10.8779 5.91875 10.2125C5.3138 10.5798 4.79224 11.0694 4.3875 11.65C3.68361 10.8574 3.22378 9.87819 3.06335 8.83034C2.90292 7.78248 3.04873 6.71059 3.48322 5.74366C3.91772 4.77673 4.62238 3.95596 5.51242 3.38014C6.40246 2.80431 7.43994 2.49797 8.5 2.49797C9.56007 2.49797 10.5975 2.80431 11.4876 3.38014C12.3776 3.95596 13.0823 4.77673 13.5168 5.74366C13.9513 6.71059 14.0971 7.78248 13.9367 8.83034C13.7762 9.87819 13.3164 10.8574 12.6125 11.65Z" fill="white"/>
</svg>
