<svg width="32" height="32" viewBox="0 0 32 32" fill="none" xmlns="http://www.w3.org/2000/svg">
<path d="M27.3498 12.9625L17.3498 3.87495C16.9811 3.53765 16.4995 3.35059 15.9998 3.35059C15.5001 3.35059 15.0185 3.53765 14.6498 3.87495L4.64978 12.9625C4.44503 13.1498 4.28151 13.3776 4.16961 13.6316C4.0577 13.8855 3.99987 14.16 3.99978 14.4375V25.95C3.99165 26.4542 4.16966 26.9437 4.49978 27.325C4.68714 27.538 4.91794 27.7085 5.17667 27.8249C5.4354 27.9413 5.71606 28.001 5.99978 28H11.9998C12.265 28 12.5193 27.8946 12.7069 27.7071C12.8944 27.5195 12.9998 27.2652 12.9998 27V21C12.9998 20.7347 13.1051 20.4804 13.2927 20.2928C13.4802 20.1053 13.7346 20 13.9998 20H17.9998C18.265 20 18.5193 20.1053 18.7069 20.2928C18.8944 20.4804 18.9998 20.7347 18.9998 21V27C18.9998 27.2652 19.1051 27.5195 19.2927 27.7071C19.4802 27.8946 19.7346 28 19.9998 28H25.9998C26.3315 28.0029 26.6585 27.9211 26.9498 27.7625C27.2668 27.5898 27.5315 27.3351 27.7162 27.025C27.901 26.715 27.9989 26.3609 27.9998 26V14.4375C27.9997 14.16 27.9419 13.8855 27.83 13.6316C27.718 13.3776 27.5545 13.1498 27.3498 12.9625V12.9625Z" fill="white"/>
</svg>
