<svg width="18" height="18" viewBox="0 0 18 18" fill="none" xmlns="http://www.w3.org/2000/svg">
<path fill-rule="evenodd" clip-rule="evenodd" d="M8.15105 3.28125C5.46154 3.28125 3.28125 5.46154 3.28125 8.15105C3.28125 10.8406 5.46154 13.0209 8.15105 13.0209C10.8406 13.0209 13.0209 10.8406 13.0209 8.15105C13.0209 5.46154 10.8406 3.28125 8.15105 3.28125ZM1.6875 8.15105C1.6875 4.58133 4.58133 1.6875 8.15105 1.6875C11.7208 1.6875 14.6146 4.58133 14.6146 8.15105C14.6146 11.7208 11.7208 14.6146 8.15105 14.6146C4.58133 14.6146 1.6875 11.7208 1.6875 8.15105Z" fill="#9C9892"/>
<path fill-rule="evenodd" clip-rule="evenodd" d="M11.5889 11.5898C11.9001 11.2786 12.4046 11.2786 12.7158 11.5898L15.7971 14.6711C16.1083 14.9823 16.1083 15.4869 15.7971 15.7981C15.4859 16.1093 14.9813 16.1093 14.6701 15.7981L11.5889 12.7168C11.2777 12.4056 11.2777 11.901 11.5889 11.5898Z" fill="#9C9892"/>
</svg>
