<svg width="17" height="16" viewBox="0 0 17 16" fill="none" xmlns="http://www.w3.org/2000/svg">
<path d="M14.4937 4.0875L13.7312 8.26875C13.6683 8.61415 13.4863 8.92655 13.2168 9.15153C12.9472 9.37652 12.6073 9.49983 12.2563 9.5H5.00625L5.28125 11H12C12.2967 11 12.5867 11.088 12.8334 11.2528C13.08 11.4176 13.2723 11.6519 13.3858 11.926C13.4994 12.2001 13.5291 12.5017 13.4712 12.7926C13.4133 13.0836 13.2704 13.3509 13.0607 13.5607C12.8509 13.7704 12.5836 13.9133 12.2926 13.9712C12.0017 14.0291 11.7001 13.9994 11.426 13.8858C11.1519 13.7723 10.9176 13.58 10.7528 13.3334C10.588 13.0867 10.5 12.7967 10.5 12.5C10.5001 12.3295 10.5297 12.1604 10.5875 12H6.9125C6.97034 12.1604 6.99995 12.3295 7 12.5C7.00045 12.742 6.94234 12.9805 6.83062 13.1952C6.7189 13.4099 6.55689 13.5944 6.35843 13.7329C6.15996 13.8714 5.93093 13.9598 5.69088 13.9906C5.45084 14.0214 5.2069 13.9937 4.9799 13.9097C4.7529 13.8258 4.54957 13.6882 4.38728 13.5087C4.22498 13.3292 4.10854 13.113 4.04788 12.8787C3.98722 12.6445 3.98416 12.399 4.03894 12.1632C4.09373 11.9275 4.20474 11.7085 4.3625 11.525L2.63125 2H1.5C1.36739 2 1.24021 1.94732 1.14645 1.85355C1.05268 1.75979 1 1.63261 1 1.5C1 1.36739 1.05268 1.24021 1.14645 1.14645C1.24021 1.05268 1.36739 1 1.5 1H2.63125C2.86465 1.00051 3.09052 1.08265 3.26973 1.23218C3.44894 1.38171 3.5702 1.58922 3.6125 1.81875L3.91875 3.5H14C14.073 3.50015 14.145 3.51649 14.211 3.54783C14.2769 3.57917 14.3351 3.62474 14.3813 3.68125C14.4296 3.73599 14.4649 3.80102 14.4843 3.8714C14.5038 3.94179 14.5071 4.01569 14.4937 4.0875Z" fill="white"/>
</svg>
