<svg width="18" height="19" viewBox="0 0 18 19" fill="none" xmlns="http://www.w3.org/2000/svg">
<path fill-rule="evenodd" clip-rule="evenodd" d="M8.15105 3.78125C5.46154 3.78125 3.28125 5.96154 3.28125 8.65105C3.28125 11.3406 5.46154 13.5209 8.15105 13.5209C10.8406 13.5209 13.0209 11.3406 13.0209 8.65105C13.0209 5.96154 10.8406 3.78125 8.15105 3.78125ZM1.6875 8.65105C1.6875 5.08133 4.58133 2.1875 8.15105 2.1875C11.7208 2.1875 14.6146 5.08133 14.6146 8.65105C14.6146 12.2208 11.7208 15.1146 8.15105 15.1146C4.58133 15.1146 1.6875 12.2208 1.6875 8.65105Z" fill="white"/>
<path fill-rule="evenodd" clip-rule="evenodd" d="M11.5889 12.0898C11.9001 11.7786 12.4046 11.7786 12.7158 12.0898L15.7971 15.1711C16.1083 15.4823 16.1083 15.9869 15.7971 16.2981C15.4859 16.6093 14.9813 16.6093 14.6701 16.2981L11.5889 13.2168C11.2777 12.9056 11.2777 12.401 11.5889 12.0898Z" fill="white"/>
</svg>
