<svg width="33" height="33" viewBox="0 0 33 33" fill="none" xmlns="http://www.w3.org/2000/svg">
<rect x="0.5" y="0.5" width="32" height="32" rx="16" fill="#F5B335"/>
<g clip-path="url(#clip0)">
<path fill-rule="evenodd" clip-rule="evenodd" d="M19.639 24.279C19.5412 24.0312 19.494 23.7663 19.5 23.5C19.5118 22.9774 19.7277 22.4803 20.1015 22.1149C20.4753 21.7496 20.9773 21.5451 21.5 21.5452C22.0227 21.5453 22.5245 21.7501 22.8982 22.1156C23.2718 22.4812 23.4874 22.9784 23.499 23.501C23.5049 23.7673 23.4575 24.0322 23.3596 24.28C23.2618 24.5277 23.1154 24.7535 22.9291 24.9439C22.7428 25.1343 22.5203 25.2856 22.2747 25.3889C22.0291 25.4921 21.7654 25.5453 21.499 25.5452C21.2326 25.5451 20.9689 25.4919 20.7233 25.3885C20.4778 25.2851 20.2554 25.1337 20.0692 24.9432C19.883 24.7527 19.7367 24.5269 19.639 24.279ZM10.0858 24.9142C9.71071 24.5391 9.5 24.0304 9.5 23.5C9.5 22.9696 9.71071 22.4609 10.0858 22.0858C10.4609 21.7107 10.9696 21.5 11.5 21.5C12.0304 21.5 12.5391 21.7107 12.9142 22.0858C13.2893 22.4609 13.5 22.9696 13.5 23.5C13.5 24.0304 13.2893 24.5391 12.9142 24.9142C12.5391 25.2893 12.0304 25.5 11.5 25.5C10.9696 25.5 10.4609 25.2893 10.0858 24.9142ZM24.115 15.51L13.047 18.672C12.078 18.949 12.102 19.5 13.252 19.5H24.5V21.049C24.5 21.267 24.32 21.449 24.1 21.449H10.9C10.68 21.449 10.5 21.268 10.5 21.049V19.4L10.41 18.457L8.5 9.5H6.5V7.9C6.50026 7.79417 6.54235 7.69273 6.61709 7.6178C6.69184 7.54287 6.79317 7.50053 6.899 7.5H10.101C10.319 7.5 10.5 7.68 10.5 7.9V9.5H24.5V15C24.4949 15.114 24.4554 15.2237 24.3867 15.3148C24.318 15.4058 24.2232 15.4739 24.115 15.51ZM15.0094 13.3008L16.2175 14.4506L19.6573 11.1802C19.7223 11.1182 19.8106 11.0833 19.9027 11.0833C19.9948 11.0833 20.0831 11.1182 20.1482 11.1802C20.2839 11.3095 20.2839 11.5182 20.1482 11.6474L16.4647 15.1531C16.3289 15.2823 16.1096 15.2823 15.9738 15.1531L14.5185 13.768C14.3827 13.6388 14.3827 13.4301 14.5185 13.3008C14.5835 13.2388 14.6719 13.2039 14.764 13.2039C14.856 13.2039 14.9444 13.2388 15.0094 13.3008Z" fill="white"/>
</g>
<defs>
<clipPath id="clip0">
<rect width="20" height="20" fill="white" transform="translate(6.5 6.5)"/>
</clipPath>
</defs>
</svg>
