<svg width="24" height="24" viewBox="0 0 24 24" fill="none" xmlns="http://www.w3.org/2000/svg">
<path d="M18.504 9.61538L13.692 5H8.4V7.30769H12.708L15.108 9.61538H5.4C2.4 9.61538 0 11.9231 0 14.8077C0 17.6923 2.4 20 5.4 20C8.064 20 10.272 18.1308 10.704 15.6962L13.248 14.2308C13.2 14.4269 13.2 14.6115 13.2 14.8077C13.2 17.6923 15.6 20 18.6 20C21.6 20 24 17.6923 24 14.8077C24 11.9231 21.6 9.61538 18.6 9.61538H18.504ZM8.208 15.6846C7.8 16.85 6.696 17.6923 5.364 17.6923C4.56835 17.6923 3.80529 17.3884 3.24268 16.8474C2.68007 16.3065 2.364 15.5727 2.364 14.8077C2.364 14.0426 2.68007 13.3089 3.24268 12.768C3.80529 12.227 4.56835 11.9231 5.364 11.9231C6.708 11.9231 7.8 12.7769 8.208 13.9423H4.8V15.6731L8.208 15.6846ZM18.564 17.6923C17.7684 17.6923 17.0053 17.3884 16.4427 16.8474C15.8801 16.3065 15.564 15.5727 15.564 14.8077C15.564 14.0426 15.8801 13.3089 16.4427 12.768C17.0053 12.227 17.7684 11.9231 18.564 11.9231C19.3596 11.9231 20.1227 12.227 20.6853 12.768C21.2479 13.3089 21.564 14.0426 21.564 14.8077C21.564 15.5727 21.2479 16.3065 20.6853 16.8474C20.1227 17.3884 19.3596 17.6923 18.564 17.6923Z" fill="white"/>
</svg>
