<svg width="16" height="17" viewBox="0 0 16 17" fill="none" xmlns="http://www.w3.org/2000/svg">
<g clip-path="url(#clip0_3012_116121)">
<path d="M7.99935 1.83333C10.13 1.83333 11.9993 3.57867 11.9993 5.568C11.9993 7.63 10.3373 10.3227 7.99935 14.0087C5.66135 10.3227 3.99935 7.63 3.99935 5.568C3.99935 3.57867 5.86868 1.83333 7.99935 1.83333ZM7.99935 0.5C5.20068 0.5 2.66602 2.76867 2.66602 5.568C2.66602 8.36667 4.97868 11.708 7.99935 16.5C11.02 11.708 13.3327 8.36667 13.3327 5.568C13.3327 2.76867 10.7987 0.5 7.99935 0.5V0.5ZM7.99935 7.83333C6.89468 7.83333 5.99935 6.938 5.99935 5.83333C5.99935 4.72867 6.89468 3.83333 7.99935 3.83333C9.10402 3.83333 9.99935 4.72867 9.99935 5.83333C9.99935 6.938 9.10402 7.83333 7.99935 7.83333Z" fill="#241F20"/>
</g>
<defs>
<clipPath id="clip0_3012_116121">
<rect width="16" height="16" fill="white" transform="translate(0 0.5)"/>
</clipPath>
</defs>
</svg>
