<svg width="20" height="20" viewBox="0 0 20 20" fill="none" xmlns="http://www.w3.org/2000/svg">
<path d="M20 9.98955C20 9.75825 19.8872 9.55492 19.7155 9.42738L19.7191 9.42111L17.3009 8.01427L18.6929 5.58477L18.6882 5.58189C18.7322 5.48177 18.7521 5.3726 18.7464 5.26326C18.7406 5.15392 18.7094 5.04748 18.6553 4.95257C18.6007 4.85774 18.5247 4.77722 18.4334 4.71755C18.3422 4.65789 18.2382 4.62075 18.1301 4.60915V4.60236H15.3374V1.79625H15.3316C15.32 1.68739 15.2831 1.58281 15.2239 1.491C15.1647 1.39919 15.0849 1.32272 14.9909 1.2678C14.8965 1.21305 14.7907 1.18154 14.682 1.17586C14.5732 1.17019 14.4647 1.1905 14.3653 1.23514L14.3619 1.22912L11.903 2.65975L10.5414 0.283041L10.5365 0.285916C10.4724 0.197509 10.3885 0.125557 10.2917 0.0758839C10.1949 0.0262114 10.0878 0.000215177 9.97912 0C9.74959 0 9.54756 0.113687 9.42125 0.2867L9.41503 0.283041L8.03086 2.69895L5.64741 1.31223L5.64456 1.3172C5.54519 1.27289 5.43687 1.25281 5.32836 1.25858C5.21985 1.26434 5.11422 1.2958 5.02003 1.35039C4.92587 1.40534 4.84591 1.48191 4.78665 1.57387C4.72739 1.66583 4.6905 1.77059 4.67899 1.87962H4.67198V4.66926H1.91973V4.67475C1.8117 4.68646 1.70792 4.72366 1.61681 4.78332C1.5257 4.84298 1.44982 4.92344 1.39532 5.01816C1.34112 5.11317 1.30992 5.21972 1.30424 5.32915C1.29856 5.43859 1.31857 5.54783 1.36264 5.64802L1.35668 5.65167L2.71724 8.02655L0.280879 9.44411L0.283732 9.44908C0.196001 9.51367 0.124598 9.59818 0.0753046 9.69575C0.0260114 9.79332 0.000213533 9.90123 0 10.0107C0 10.242 0.112819 10.4456 0.28451 10.5729L0.280879 10.5791L2.69909 11.986L1.30714 14.4155L1.31181 14.4181C1.26784 14.5182 1.24791 14.6274 1.25363 14.7367C1.25936 14.8461 1.29057 14.9525 1.34475 15.0474C1.39932 15.1423 1.47532 15.2228 1.56658 15.2824C1.65783 15.3421 1.76176 15.3793 1.86993 15.3908V15.3979H4.66239V18.2037H4.66809C4.69195 18.417 4.81048 18.6167 5.00888 18.7322C5.10323 18.7869 5.20907 18.8184 5.31778 18.824C5.42649 18.8297 5.53498 18.8094 5.63444 18.7649L5.63781 18.7709L8.09674 17.3403L9.45834 19.717L9.46327 19.7141C9.52737 19.8025 9.61123 19.8744 9.70806 19.9241C9.80489 19.9738 9.91197 19.9998 10.0206 20C10.2501 20 10.4522 19.8863 10.5785 19.7136L10.5845 19.717L11.9686 17.301L14.3523 18.6878L14.3552 18.6828C14.4545 18.7271 14.5629 18.7472 14.6714 18.7414C14.7799 18.7357 14.8855 18.7042 14.9797 18.6496C15.0739 18.5947 15.1538 18.5181 15.2131 18.4261C15.2724 18.3342 15.3092 18.2294 15.3208 18.1204H15.3278V15.331H18.0803V15.3255C18.1883 15.3138 18.2921 15.2766 18.3832 15.2169C18.4743 15.1573 18.5502 15.0768 18.6047 14.9821C18.6589 14.887 18.6901 14.7805 18.6957 14.671C18.7014 14.5615 18.6814 14.4522 18.6374 14.352L18.6433 14.3486L17.2828 11.9737L19.7191 10.5562L19.7163 10.5512C19.804 10.4866 19.8755 10.4021 19.9248 10.3045C19.974 10.207 19.9998 10.099 20 9.98955ZM8.36984 12.9676L5.81625 11.8308L6.94314 13.7974L6.30617 14.168L4.57836 11.1528L5.23322 10.7715L7.70486 11.8592L6.61946 9.96498L7.25669 9.59439L8.98398 12.6096L8.36984 12.9676ZM9.57635 12.2656L7.8488 9.25019L9.96641 8.01845L10.2901 8.58349L8.80944 9.44463L9.17202 10.0776L10.621 9.23477L10.9447 9.79928L9.49569 10.6427L9.88939 11.3297L11.37 10.4686L11.6937 11.0336L9.57635 12.2656ZM14.4797 9.41301L12.7685 7.64786L13.4342 10.0209L12.7571 10.415L10.1726 7.89849L10.8858 7.48347L12.6593 9.35682L11.9805 6.84656L12.4785 6.55699L14.2922 8.40708L13.5686 5.92269L14.2818 5.50767L15.1571 9.01916L14.4797 9.41301Z" fill="black"/>
</svg>
