<svg width="16" height="16" viewBox="0 0 16 16" fill="none" xmlns="http://www.w3.org/2000/svg">
<path d="M6.34382 0.00418127C5.90193 -0.0373828 5.49067 0.234425 5.37773 0.663738L4.97276 2.20243C10.1032 2.35255 13.5738 5.77393 13.7909 10.8707L15.3479 10.4392C15.7777 10.32 16.0449 9.90108 15.9938 9.45755C15.4228 4.51416 11.3181 0.473691 6.34382 0.00418127ZM4.74498 3.0668L2.01461 13.4439C1.99476 13.5193 1.99514 13.5985 2.01572 13.6737C2.0363 13.7489 2.07634 13.8174 2.1318 13.8721C2.18727 13.9269 2.2562 13.9661 2.33165 13.9857C2.40709 14.0053 2.48637 14.0047 2.5615 13.9839L12.9251 11.11C12.8084 6.32767 9.55955 3.12149 4.74498 3.06789V3.0668ZM5.49969 11.3755C5.32662 11.3755 5.15745 11.3242 5.01355 11.228C4.86965 11.1319 4.7575 10.9952 4.69127 10.8353C4.62504 10.6755 4.60771 10.4995 4.64147 10.3298C4.67524 10.16 4.75857 10.0041 4.88095 9.88174C5.00332 9.75937 5.15924 9.67603 5.32898 9.64226C5.49872 9.6085 5.67466 9.62583 5.83455 9.69206C5.99444 9.75829 6.1311 9.87044 6.22725 10.0143C6.3234 10.1582 6.37472 10.3274 6.37472 10.5005C6.37472 10.7326 6.28253 10.9551 6.11843 11.1192C5.95433 11.2833 5.73176 11.3755 5.49969 11.3755ZM6.81223 7.21911C6.63917 7.21911 6.46999 7.16779 6.32609 7.07164C6.1822 6.97549 6.07004 6.83883 6.00381 6.67893C5.93758 6.51904 5.92025 6.3431 5.95402 6.17336C5.98778 6.00362 6.07112 5.84771 6.19349 5.72533C6.31587 5.60296 6.47178 5.51962 6.64152 5.48585C6.81126 5.45209 6.9872 5.46942 7.14709 5.53565C7.30698 5.60188 7.44364 5.71403 7.53979 5.85793C7.63594 6.00183 7.68726 6.17101 7.68726 6.34407C7.68726 6.57615 7.59507 6.79871 7.43097 6.96282C7.26687 7.12692 7.04431 7.21911 6.81223 7.21911ZM9.65608 10.063C9.48302 10.063 9.31384 10.0116 9.16994 9.9155C9.02604 9.81935 8.91389 9.68268 8.84766 9.52279C8.78143 9.3629 8.7641 9.18696 8.79786 9.01722C8.83163 8.84748 8.91497 8.69157 9.03734 8.56919C9.15972 8.44681 9.31563 8.36348 9.48537 8.32971C9.65511 8.29595 9.83105 8.31328 9.99094 8.37951C10.1508 8.44574 10.2875 8.55789 10.3836 8.70179C10.4798 8.84569 10.5311 9.01487 10.5311 9.18793C10.5311 9.42001 10.4389 9.64257 10.2748 9.80667C10.1107 9.97077 9.88815 10.063 9.65608 10.063Z" fill="#D9D9D6"/>
</svg>
