<svg width="85" height="81" viewBox="0 0 85 81" fill="none" xmlns="http://www.w3.org/2000/svg">
<path d="M68.5619 32.6249C68.5619 32.6249 75.4053 23.1926 78.8361 14.3671C78.8361 14.3671 80.1754 12.3997 81.5331 10.4507C82.8907 8.50175 82.7623 2.85707 79.3315 2.59966C75.9006 2.34225 5.5775 1.9929 5.5775 1.9929C5.5775 1.9929 3.61439 1.00003 2.25673 6.64471C0.899073 12.2894 3.24746 14.0545 5.816 17.2721C8.38455 20.4898 17.4295 31.2827 17.4295 31.2827C17.4295 31.2827 0.917419 63.4041 0.917419 67.3204C0.917419 71.2368 1.04585 77.2492 5.08213 79.2165C9.11842 81.1839 77.8637 79.2165 77.8637 79.2165C77.8637 79.2165 83.1293 77.8743 83.3678 68.4236C83.6063 58.9729 68.5619 32.6249 68.5619 32.6249Z" class="stamp-pizza-fill" fill="#F1F1F1"/>
<path d="M25.924 81C6.65987 81 5.22883 80.3013 4.67842 80.0439C0 77.764 0 70.9609 0 67.3204C0 66.6585 0 64.6543 8.34777 47.4261C11.8153 40.2553 15.3379 33.3604 16.3286 31.4114C14.5673 29.2969 7.32036 20.6553 5.08205 17.8605C4.77016 17.4744 4.45826 17.1066 4.16471 16.7573C1.98145 14.1096 0.0917338 11.8297 1.37601 6.42404C2.07318 3.50058 3.02722 1.80901 4.29314 1.20225C4.89858 0.908069 5.41229 0.981615 5.72419 1.05516C10.2191 1.07355 76.029 1.42289 79.3864 1.66192C80.7808 1.75385 81.9183 2.58125 82.5788 3.96024C83.5695 6.01954 83.4227 9.27396 82.2852 10.9471L79.6433 14.7899C76.5977 22.5675 71.0937 30.6208 69.6443 32.6801C71.8092 36.5229 84.5052 59.4877 84.2667 68.442C84.0098 78.4626 78.3223 80.0255 78.0655 80.0991C77.9921 80.1174 77.937 80.1174 77.8636 80.1358C77.6985 80.1358 60.4709 80.6323 42.9681 80.8713C36.1248 80.9632 30.5107 81 25.924 81ZM5.21048 2.83866C4.93528 2.83866 3.9629 3.4638 3.15564 6.86532C2.07318 11.37 3.48588 13.0432 5.59576 15.5622C5.90766 15.9299 6.21955 16.2976 6.53145 16.7021C9.0633 19.883 18.0532 30.584 18.1449 30.6943C18.3835 30.9701 18.4201 31.3746 18.255 31.7056C11.6502 44.5394 1.83468 64.5992 1.83468 67.3204C1.83468 70.5748 1.83468 76.6056 5.46733 78.3891C6.16451 78.7201 11.2282 79.4739 42.9498 79.0326C59.627 78.7936 76.0657 78.3523 77.6802 78.2972C77.9554 78.2052 78.9278 77.7823 79.9001 76.6424C81.4596 74.8221 82.3219 71.9722 82.432 68.4052C82.6705 59.3222 67.9013 33.3604 67.7546 33.0846C67.5711 32.772 67.5895 32.3859 67.8096 32.0917C67.883 31.9998 74.6346 22.641 77.9737 14.0361C77.9921 13.9625 78.0288 13.9074 78.0655 13.8522L80.7624 9.93588C81.4596 8.92462 81.6798 6.38727 80.9276 4.78764C80.5423 3.99701 79.9919 3.57412 79.258 3.51896C75.9005 3.27994 6.27459 2.91221 5.55907 2.91221C5.44899 2.91221 5.33891 2.87543 5.21048 2.83866C5.21048 2.83866 5.22883 2.83866 5.21048 2.83866Z" fill="#2D3340"/>
<path d="M70.7822 58.0351C72.6168 52.795 71.3876 46.9664 67.6265 42.7743C63.8471 38.5637 56.6368 34.1326 43.1703 34.7026C18.1637 35.769 14.4943 45.3668 12.2927 50.6805C12.2927 50.6805 6.2933 64.5256 28.5663 69.968C50.8392 75.4105 64.3975 67.0078 68.5622 62.0434C69.5896 60.7931 70.3051 59.4141 70.7822 58.0351Z" class="stamp-pizza-fill" fill="#F1F1F1"/>
<path d="M42.5278 72.3031C38.0328 72.3031 33.3361 71.6964 28.4375 70.5013C20.0714 68.4604 14.6407 65.0037 12.274 60.2416C9.77883 55.222 11.7052 50.6438 11.797 50.4599L11.8704 50.276C13.0079 47.5364 14.549 43.7672 19.0256 40.5312C24.3095 36.7067 32.1986 34.6107 43.1699 34.151C50.8572 33.8201 61.4066 34.9968 68.0665 42.4066C71.9743 46.7458 73.2219 52.8134 71.3322 58.219C70.7818 59.8003 69.9929 61.1977 69.0022 62.3928C67.9564 63.6247 63.9385 67.872 55.5356 70.4277C51.426 71.678 47.0961 72.3031 42.5278 72.3031ZM45.4266 35.2174C44.6744 35.2174 43.9221 35.2358 43.2066 35.2726C32.6022 35.7323 24.6764 37.7916 19.6677 41.4505C15.4663 44.5027 13.9802 48.088 12.8978 50.7173L12.8244 50.9012C12.806 50.9563 11.0264 55.222 13.2831 59.7819C15.503 64.2314 20.6951 67.4859 28.7127 69.4348C38.3998 71.8067 47.3163 71.7883 55.2054 69.3797C63.3147 66.9159 67.1675 62.8708 68.1582 61.6941C69.0572 60.6093 69.7727 59.3222 70.2864 57.8697C72.0477 52.8502 70.8735 47.2055 67.2409 43.1604C61.4616 36.7435 52.5635 35.2174 45.4266 35.2174Z" fill="#2D3340"/>
<path d="M68.5619 32.2387C55.1137 32.2571 41.6656 32.1835 28.2174 32.018C24.5297 31.9813 20.842 31.9261 17.2277 31.2274C16.8791 31.1539 16.7323 31.6871 17.0809 31.7606C20.1815 32.349 23.3188 32.4961 26.4745 32.5512C29.8136 32.6064 33.1527 32.6248 36.4734 32.6616C43.3168 32.7167 50.1601 32.7719 57.0035 32.7903C60.8563 32.8087 64.7091 32.8087 68.5619 32.8087C68.9105 32.7903 68.9105 32.2387 68.5619 32.2387Z" fill="#2D3340"/>
<path d="M79.9186 12.1054C73.9008 11.9032 67.8831 11.7009 61.8654 11.4987C58.8932 11.4068 55.9027 11.2964 52.9305 11.2045C52.0315 11.1677 50.839 10.8735 50.1601 11.6274C49.8482 11.9584 49.6831 12.4364 49.463 12.8041C49.1144 13.3925 48.674 13.9441 48.197 14.4405C44.6561 18.0627 38.8035 18.0995 35.2075 14.4957C33.7581 13.0432 33.2077 10.9103 30.8777 10.7081C29.5384 10.5794 28.1624 10.7265 26.8231 10.7632C25.2452 10.8 23.6858 10.8552 22.1079 10.8919C15.4664 11.0758 8.80653 11.2413 2.16501 11.4251C1.81642 11.4435 1.81642 11.9951 2.16501 11.9767C8.14605 11.8113 14.1271 11.6642 20.1081 11.4987C23.062 11.4251 26.0341 11.3332 28.988 11.2597C30.3823 11.2229 31.8317 11.0758 32.8224 12.2709C33.593 13.1903 34.1067 14.2383 34.9874 15.0841C38.0696 17.9891 42.7113 18.6143 46.3807 16.4998C47.1696 16.0402 47.9035 15.4886 48.5456 14.8267C48.8759 14.4957 49.1694 14.128 49.4446 13.7602C49.7932 13.2638 50.0134 12.6203 50.3986 12.179C51.0041 11.4803 52.0865 11.7377 52.8938 11.7745C53.6277 11.7929 54.3615 11.8296 55.0771 11.848C56.6549 11.9032 58.2327 11.9584 59.8289 12.0135C66.5254 12.2342 73.2037 12.4732 79.9002 12.6938C80.2672 12.6754 80.2672 12.1238 79.9186 12.1054Z" fill="#2D3340"/>
<path d="M73.6433 12.2895C73.5516 13.7237 72.5425 14.7901 71.6986 15.8565C70.9097 16.8494 70.3042 17.9342 69.7538 19.0925C68.6347 21.4644 67.7357 24.1488 65.4974 25.7301C65.2038 25.9323 65.479 26.4104 65.7726 26.2081C68.1026 24.5533 69.0567 21.8689 70.2125 19.3683C70.9097 17.8974 71.772 16.6471 72.7811 15.3601C73.5149 14.4223 74.1204 13.4846 74.1937 12.2711C74.2304 11.9402 73.68 11.9402 73.6433 12.2895Z" fill="#2D3340"/>
<path d="M9.68659 11.5172C12.3102 16.7941 15.319 21.8688 18.7132 26.6861C18.915 26.9803 19.392 26.7045 19.1902 26.4103C15.7961 21.593 12.7872 16.5183 10.1636 11.2414C10.0168 10.9288 9.53981 11.2046 9.68659 11.5172Z" fill="#2D3340"/>
<path d="M68.1397 32.1653C67.8828 31.1541 67.6076 30.1244 67.3508 29.1132C67.1489 28.3041 67.0205 27.3664 66.6169 26.631C65.9381 25.3807 64.5253 25.3071 63.2594 25.3071C59.003 25.3255 54.7465 25.3439 50.4717 25.3807C41.8854 25.4175 33.2992 25.4726 24.7312 25.5094C23.5203 25.5094 22.2911 25.5094 21.0802 25.5278C20.4197 25.5462 19.6859 25.5645 19.1722 26.0426C18.6218 26.5758 18.4933 27.44 18.3832 28.1571C18.2181 29.2235 18.1998 30.3083 18.3099 31.3931C18.3466 31.7424 18.897 31.7424 18.8603 31.3931C18.7135 29.9222 18.4383 26.4839 20.3464 26.1161C21.172 25.9507 22.0893 26.061 22.9149 26.061C23.8873 26.061 24.8597 26.0426 25.832 26.0426C29.6115 26.0242 33.3726 26.0058 37.152 25.9874C44.6925 25.9507 52.2514 25.9139 59.7919 25.8587C60.8193 25.8587 61.8651 25.8403 62.8925 25.8403C63.7548 25.8403 64.7822 25.73 65.5528 26.2081C66.4701 26.7964 66.5802 28.2674 66.837 29.2419C67.0939 30.2531 67.3691 31.2828 67.626 32.294C67.6993 32.6434 68.2314 32.4963 68.1397 32.1653Z" fill="#2D3340"/>
<path d="M60.1226 37.3135C61.1683 37.2952 62.2324 37.2768 63.2782 37.2584C63.9754 37.24 64.8193 37.3503 65.4798 37.0561C66.0302 36.8171 66.3971 36.3023 66.6723 35.7691C66.8925 35.3462 67.0943 34.9233 67.2961 34.5004C67.4796 34.0959 67.7548 33.1582 68.1768 32.9375C68.4887 32.7721 68.2135 32.294 67.9016 32.4595C67.3695 32.7353 67.2044 33.3972 66.9659 33.912C66.6173 34.6475 66.3054 35.5852 65.755 36.192C65.0945 36.909 63.8286 36.7068 62.948 36.7068C62.0123 36.7252 61.0766 36.7436 60.1409 36.7619C59.7556 36.7619 59.7556 37.3135 60.1226 37.3135Z" fill="#2D3340"/>
<path d="M16.9706 32.9007C17.9063 34.9784 18.5851 36.9274 17.5026 39.0786C16.567 40.954 15.6129 42.7927 14.6589 44.6681C14.4387 45.091 15.0809 45.4587 15.301 45.0359C16.3835 42.9214 17.6678 40.7885 18.5484 38.5822C19.3557 36.5229 18.475 34.4084 17.6127 32.533C17.3926 32.1101 16.7688 32.4778 16.9706 32.9007Z" fill="#2D3340"/>
<path d="M18.7504 37.7549C21.1355 37.6997 23.5389 37.81 25.9056 38.0491C26.3827 38.1042 26.3643 37.3688 25.9056 37.3136C23.5206 37.0562 21.1355 36.9643 18.7504 37.0194C18.2734 37.0194 18.2734 37.7549 18.7504 37.7549Z" fill="#2D3340"/>
<path d="M65.6631 36.5229C66.1768 37.8099 66.6722 39.097 67.1859 40.3841C67.4244 41.0092 67.6629 41.616 67.9198 42.2411C68.195 42.9398 68.5986 43.712 68.672 44.4659C68.727 44.9256 69.4609 44.9439 69.4059 44.4659C69.2774 43.1237 68.5069 41.7814 68.0298 40.5312C67.4794 39.1338 66.929 37.7364 66.3786 36.3206C66.1952 35.8793 65.4797 36.0816 65.6631 36.5229Z" fill="#2D3340"/>
<path d="M71.4793 51.1585C72.1581 54.8358 73.3506 58.4028 75.0752 61.7307C75.8275 63.1649 76.6531 64.5255 77.2402 66.0332C77.7906 67.3938 78.2492 68.8096 78.6896 70.2069C78.818 70.6666 79.5335 70.4644 79.4051 70.0047C78.9831 68.6441 78.5428 67.2835 78.0107 65.9596C77.4603 64.5439 76.7448 63.2752 76.0293 61.933C74.1763 58.4947 72.9103 54.799 72.2132 50.9562C72.1031 50.4966 71.4059 50.6988 71.4793 51.1585Z" fill="#2D3340"/>
<path d="M11.2103 52.7949C8.91696 58.0719 6.7337 63.404 4.69721 68.7728C4.53208 69.2141 5.22926 69.398 5.41273 68.9751C7.43087 63.6614 9.57744 58.3844 11.8524 53.1626C12.0359 52.7214 11.4121 52.3536 11.2103 52.7949Z" fill="#2D3340"/>
<path d="M1.68765 69.4717C11.8884 69.9865 22.0709 70.7403 32.235 71.6964C32.8221 71.7516 32.8221 70.8323 32.235 70.7771C22.0709 69.821 11.8884 69.0672 1.68765 68.5523C1.0822 68.5156 1.10055 69.4349 1.68765 69.4717Z" fill="#2D3340"/>
<path d="M31.8498 71.292C33.024 75.8518 37.8308 77.6537 42.1056 77.6353C46.197 77.617 51.8478 76.2747 52.1597 71.2736C52.1964 70.6852 51.279 70.6852 51.2423 71.2736C50.9488 75.8151 45.3714 76.7528 41.7937 76.716C38.0143 76.6609 33.7762 75.0612 32.7488 71.0346C32.5837 70.483 31.703 70.722 31.8498 71.292Z" fill="#2D3340"/>
<path d="M51.8116 72.3031C56.8019 70.6299 62.1591 71.347 67.3329 71.3286C72.6351 71.3286 77.9373 70.9241 83.2029 70.1703C83.79 70.0967 83.5331 69.1958 82.9644 69.2877C77.5521 70.0599 72.0847 70.4277 66.6174 70.4093C61.5904 70.3909 56.4349 69.7841 51.573 71.4206C51.0043 71.6044 51.2428 72.5054 51.8116 72.3031Z" fill="#2D3340"/>
<path d="M62.8438 40.0368C62.8438 40.0368 67.3761 42.4066 69.1966 47.2434C71.0361 52.0802 74.1083 66.6683 43.4628 70.7087C43.4628 70.7087 24.9162 71.2526 15.9463 62.2977C15.9463 62.2977 9.65034 55.6156 15.586 46.5441C21.5217 37.4727 35.7824 36.249 41.9836 35.8605C48.1848 35.472 55.41 36.2878 62.8438 40.0368Z" class="stamp-pizza-fill" fill="#F1F1F1"/>
<path d="M42.8762 71C41.435 71 37.5474 70.9223 33.015 70.1453C27.7241 69.2324 20.4231 67.1733 15.758 62.4919C15.6821 62.4142 14.1271 60.7243 13.2737 57.8882C12.4962 55.2659 12.2307 51.1478 15.3597 46.3499C21.6178 36.8123 36.9405 35.841 41.9849 35.5302C49.4187 35.064 56.4733 36.5015 62.9778 39.7648C63.1675 39.862 67.624 42.2318 69.4635 47.1269C70.4116 49.6327 71.5874 54.5277 68.8377 59.2868C65.3483 65.2891 56.8336 69.2324 43.502 70.9806H43.4831C43.4641 71 43.2555 71 42.8762 71ZM44.6967 36.0353C43.8054 36.0353 42.9141 36.0547 42.0039 36.113C37.0354 36.4238 21.9212 37.3756 15.8149 46.6801C13.4065 50.3514 12.7238 54.0615 13.7857 57.694C14.5822 60.4135 16.1183 62.0646 16.1373 62.084C24.8037 70.7475 42.8193 70.4367 43.4262 70.4173C56.5681 68.6885 64.9311 64.8423 68.3256 58.9955C70.9616 54.45 69.8238 49.7492 68.9135 47.3405C67.1499 42.698 62.7882 40.3476 62.6934 40.2893C57.0991 37.4727 51.0496 36.0353 44.6967 36.0353Z" fill="#2D3340"/>
<path d="M41.5739 34.8864C41.5373 40.9907 41.2621 47.1318 41.9776 53.2178C42.6748 59.2486 43.8489 65.3713 42.7298 71.4205C42.6381 71.8801 43.3536 72.0824 43.4453 71.6227C44.5645 65.6103 43.4637 59.5611 42.7665 53.5671C42.0326 47.3708 42.2895 41.1194 42.3262 34.8864C42.3078 34.4083 41.5739 34.4083 41.5739 34.8864Z" fill="#2D3340"/>
<path d="M37.0789 52.0595C33.4279 53.9165 29.6118 55.4426 25.8874 57.1526C22.0713 58.8993 18.2735 60.646 14.4574 62.4111C14.0354 62.6134 14.4023 63.2385 14.8243 63.0546C18.6404 61.3079 22.4382 59.5612 26.2543 57.7961C29.9787 56.0861 33.7949 54.5601 37.4459 52.703C37.8678 52.4824 37.5009 51.8572 37.0789 52.0595Z" fill="#2D3340"/>
<path d="M27.9059 43.3628C29.5754 44.0063 31.0248 45.0359 32.5293 45.9737C33.9787 46.8562 35.5014 47.6101 37.0426 48.3455C40.3633 49.9268 43.6841 51.5632 47.0049 53.1628C53.7198 56.4356 60.4347 59.7452 67.1313 63.0732C67.5532 63.2754 67.9202 62.6503 67.4982 62.4296C60.6916 59.0281 53.8849 55.6818 47.0599 52.3538C43.7575 50.7358 40.4367 49.1361 37.116 47.5365C35.4831 46.7459 33.8686 45.9369 32.3275 44.944C30.9698 44.0615 29.6121 43.2157 28.0894 42.6273C27.649 42.4986 27.4656 43.1973 27.9059 43.3628Z" fill="#2D3340"/>
<path d="M36.1986 60.4806C37.0609 60.0393 37.6113 59.1752 37.4829 58.2007C37.3361 57.0791 36.4371 56.4723 35.4097 56.2701C34.2722 56.0494 32.9879 55.9391 31.9789 56.6378C31.1349 57.2262 30.5662 58.2742 30.4561 59.2855C30.346 60.3887 30.9514 61.2161 31.9789 61.547C32.4926 61.7125 33.043 61.7309 33.5567 61.6206C33.997 61.5286 33.8502 61.4919 34.0704 61.7309C34.1621 61.8412 34.1988 62.0986 34.2905 62.2273C34.8776 62.9812 36.0885 62.7238 36.7674 62.2273C37.5379 61.6389 36.6022 60.5909 36.1803 60.0577C35.8867 59.69 35.373 60.2048 35.6666 60.5725C35.7766 60.7012 36.3087 61.3264 36.3087 61.547C36.2903 61.9883 35.5198 61.878 35.2079 61.7309C34.6208 61.4367 34.9143 61.5102 34.6391 61.0873C34.5841 60.9954 34.5107 60.8851 34.419 60.8299C34.1071 60.6277 33.8135 60.7932 33.5016 60.8667C32.5476 61.069 31.2817 60.7748 31.1716 59.6348C31.0065 57.9984 32.566 56.7665 34.052 56.8217C34.7492 56.8584 35.7216 56.9136 36.272 57.3917C37.0976 58.1455 36.7307 59.359 35.8133 59.8187C35.4097 60.0577 35.795 60.7012 36.1986 60.4806Z" fill="#2D3340"/>
<path d="M38.3628 41.8181C39.1518 42.1307 39.6655 42.9581 39.427 43.8038C39.1518 44.7415 38.2344 45.0541 37.3538 45.0909C36.7483 45.1277 36.0695 45.0541 35.5374 44.7232C34.5467 44.1348 34.5834 42.6823 35.7026 42.2226C35.8493 42.1674 35.9778 42.0387 35.9778 41.8732C35.9594 41.2481 35.7393 40.7701 36.4364 40.6781C36.9685 40.6046 37.5556 40.6597 38.0876 40.6413C37.9776 40.5494 37.8491 40.4575 37.739 40.3655C37.8308 40.7149 37.9225 41.0642 38.0326 41.4136C38.1794 41.8549 38.8949 41.671 38.7481 41.2113C38.638 40.862 38.528 40.5126 38.4546 40.1633C38.4179 40.0162 38.2528 39.8875 38.106 39.8875C37.2987 39.9059 36.308 39.7588 35.5191 39.9978C35.409 40.0346 35.2989 40.1265 35.2622 40.2552C35.1522 40.77 35.2439 41.34 35.2622 41.8549C35.354 41.7445 35.4457 41.6158 35.5374 41.5055C34.455 41.9652 33.7761 43.0868 34.2348 44.2635C34.7302 45.4954 36.1796 45.8631 37.3721 45.8264C38.6564 45.7896 39.8673 45.2196 40.1792 43.8774C40.4727 42.6455 39.7022 41.5423 38.583 41.101C38.1243 40.9355 37.9225 41.6342 38.3628 41.8181Z" fill="#2D3340"/>
<path d="M18.7871 48.8234C19.3925 48.1063 20.1631 47.3709 21.1905 47.6283C22.1078 47.8489 22.8234 48.6763 23.1353 49.5405C23.4838 50.4782 23.4472 51.5814 22.7316 52.3352C22.4197 52.6662 21.9978 52.9236 21.5574 53.0523C21.1171 53.181 19.576 53.3649 19.8145 52.3169C19.8695 52.0962 19.7044 51.8204 19.4659 51.8572C18.5302 51.9491 17.6312 52.1146 16.7322 52.372C16.879 52.464 17.0258 52.5375 17.1909 52.6294C17.1175 52.1146 17.0808 51.6182 17.0625 51.1033C16.9707 51.2137 16.879 51.3424 16.7873 51.4527C17.6863 51.2137 18.5853 50.9746 19.4843 50.7356C19.7595 50.6621 19.8328 50.3127 19.6494 50.1289C19.2824 49.7611 18.5486 49.1176 19.099 48.4924C19.4109 48.1431 18.8972 47.6099 18.5853 47.9776C17.7597 48.9153 18.3835 49.9082 19.1357 50.6437C19.1907 50.4414 19.2457 50.2392 19.3008 50.0369C18.4018 50.2759 17.5028 50.515 16.6038 50.754C16.457 50.7908 16.3286 50.9563 16.3286 51.1033C16.347 51.6917 16.402 52.2617 16.4754 52.8317C16.5121 53.0339 16.7506 53.1443 16.9341 53.0891C17.778 52.8501 18.6036 52.6846 19.4659 52.5927C19.3558 52.4456 19.2274 52.2801 19.1173 52.133C18.7871 53.5672 20.3466 54.082 21.5024 53.8429C22.9334 53.5488 24.0343 52.3536 24.0893 50.8827C24.1443 49.4302 23.3554 47.9041 22.0711 47.2238C20.5851 46.4331 19.2641 47.1502 18.2734 48.327C17.9615 48.6579 18.4752 49.1728 18.7871 48.8234Z" fill="#2D3340"/>
<path d="M50.0319 39.2441C51.4629 39.1706 52.9307 39.428 53.4077 41.0092C53.8113 42.3882 52.839 43.712 51.518 44.0246C51.6281 44.2269 51.7565 44.4291 51.8666 44.6314C52.6555 43.7488 53.316 42.3147 52.894 41.1195C52.5454 40.1083 50.8208 39.2625 49.8301 39.2441C50.3071 39.2625 50.3071 38.527 49.8301 38.5086C48.7843 38.4719 48.7293 39.5199 49.6099 39.906C50.3805 40.2554 51.4813 40.3473 52.0317 41.0644C52.7105 41.9469 51.995 43.4179 51.3529 44.1349C51.1144 44.4107 51.3529 44.8336 51.7014 44.7417C53.3343 44.3556 54.5269 42.7559 54.1783 41.0644C53.7563 39.0051 51.8849 38.4167 50.0319 38.527C49.5549 38.5454 49.5549 39.2809 50.0319 39.2441Z" fill="#2D3340"/>
<path d="M63.9752 44.3556C62.8194 45.8633 62.1405 47.9042 62.5258 49.8164C62.8744 51.5448 64.7274 52.6664 66.3603 52.9606C66.6355 53.0157 66.9841 52.7032 66.7823 52.4274C65.7549 51.03 65.1678 49.3568 65.1861 47.61C65.1861 46.5068 65.9016 44.9991 65.0393 44.0614C64.7091 43.7121 64.1954 44.2269 64.5256 44.5763C65.021 45.1095 64.544 46.2311 64.4889 46.8746C64.4339 47.5365 64.4522 48.1984 64.544 48.842C64.7458 50.2761 65.3145 51.6 66.1585 52.7767C66.3053 52.5928 66.4337 52.409 66.5805 52.2435C64.9476 51.9493 63.3147 50.8645 63.2047 49.0994C63.1129 47.4997 63.6817 45.9736 64.6357 44.7233C64.8926 44.3556 64.2688 43.9879 63.9752 44.3556Z" fill="#2D3340"/>
<path d="M56.8202 60.0025C57.866 61.6021 56.2698 63.0547 55.0039 63.8269C54.4168 64.1763 53.793 64.544 53.1142 64.6727C52.1602 64.8566 51.2245 64.544 50.3255 64.2498C50.3255 64.4888 50.3255 64.7279 50.3255 64.9669C53.1325 64.0476 55.3158 61.9699 56.435 59.2303C56.2515 59.3038 56.068 59.3774 55.9029 59.4509C56.1964 59.598 56.435 59.8002 56.6368 60.076C56.912 60.4438 57.5541 60.076 57.2789 59.7083C56.9854 59.3222 56.7101 59.0648 56.2882 58.8258C56.068 58.6971 55.8295 58.8258 55.7561 59.0464C54.747 61.5286 52.6922 63.4224 50.1604 64.2682C49.8118 64.3785 49.8118 64.8566 50.1604 64.9853C51.1878 65.3162 52.2519 65.6288 53.3527 65.4082C54.3434 65.2059 55.2974 64.6175 56.1047 64.0292C57.4807 63.0363 58.5448 61.2712 57.4807 59.6532C57.1872 59.2303 56.5634 59.6164 56.8202 60.0025Z" fill="#2D3340"/>
<path d="M41.2438 67.0999C39.9779 63.4593 34.8041 63.0732 32.2723 65.6106C32.0521 65.8312 32.1989 66.2541 32.5291 66.2357C33.8868 66.1622 35.2261 66.1806 36.5838 66.3276C37.6479 66.438 39.9596 66.5115 40.5467 67.5963C40.7668 68.0192 41.409 67.6331 41.1888 67.2286C40.5467 66.0335 38.8955 65.9231 37.7029 65.7393C35.9967 65.4819 34.2721 65.4083 32.5475 65.5002C32.6392 65.7025 32.7126 65.9231 32.8043 66.1254C34.9142 64.0109 39.4826 64.158 40.565 67.2838C40.6934 67.725 41.3906 67.5412 41.2438 67.0999Z" fill="#2D3340"/>
<path d="M30.1068 40.1451C26.6393 39.2625 23.9423 44.0614 25.8504 46.8194C26.0705 47.132 26.4925 46.9849 26.5292 46.6356C26.6943 45.3669 27.3915 44.374 28.1437 43.3628C28.8225 42.4618 29.3913 41.4873 30.2719 40.7519C30.6389 40.4577 30.1068 39.9428 29.7582 40.237C28.7675 41.0644 28.107 42.186 27.3365 43.2157C26.5659 44.2637 25.9788 45.3117 25.7953 46.6356C26.0155 46.5804 26.254 46.5069 26.4742 46.4517C24.9697 44.2453 27.0429 40.1267 29.905 40.8622C30.3637 40.9725 30.5655 40.2554 30.1068 40.1451Z" fill="#2D3340"/>
<path d="M32.9323 48.0329C31.8498 47.2423 30.4188 47.2975 29.4097 48.2536C28.2722 49.3384 28.2905 51.2506 29.318 52.4089C30.2903 53.5121 32.5837 53.7144 33.5194 52.4825C34.5468 51.1402 34.0331 49.2464 33.0057 48.0881C32.6938 47.7387 32.1801 48.2536 32.492 48.6029C33.2075 49.4119 33.6478 50.6622 33.1341 51.7102C32.4553 53.0708 30.272 52.6847 29.5932 51.5264C28.4373 49.5222 30.7307 47.3342 32.5837 48.6764C32.9506 48.9522 33.3176 48.3087 32.9323 48.0329Z" fill="#2D3340"/>
<path d="M50.7653 57.6857C50.2149 57.0606 49.0407 57.1709 48.2885 57.2628C47.3895 57.3732 46.5272 57.7225 45.8851 58.3844C44.7476 59.5244 44.6925 61.5469 46.1603 62.4478C47.6464 63.3672 49.6278 62.7972 50.6369 61.4366C51.3524 60.4621 52.0496 57.9799 50.4901 57.4283C50.0498 57.2628 49.848 57.9799 50.2883 58.1454C51.3157 58.5131 50.3066 60.7195 49.8847 61.1976C49.1141 62.0985 47.7014 62.4846 46.6373 61.8779C45.4447 61.2159 45.5915 59.6531 46.4905 58.8257C46.8941 58.4396 47.4262 58.2005 47.9583 58.0718C48.4536 57.9615 49.848 57.7593 50.2333 58.2189C50.5452 58.5499 51.0772 58.0351 50.7653 57.6857Z" fill="#2D3340"/>
<path d="M65.7731 56.0127C66.4519 54.5234 64.4522 53.604 63.2596 53.5673C61.7368 53.5305 60.2874 54.6705 60.159 56.2333C60.0489 57.7226 61.1681 59.0832 62.6909 59.0832C64.4705 59.0832 65.3511 57.1894 65.7731 55.7185C65.9015 55.2588 65.186 55.075 65.0576 55.5162C64.8191 56.3436 64.4705 57.263 63.8467 57.8697C62.9294 58.7523 61.4066 58.3294 61.003 57.1343C60.636 56.0678 61.1864 55.0198 62.1588 54.5418C62.6175 54.3211 63.1312 54.266 63.6266 54.3763C64.0485 54.4498 65.4612 54.9279 65.131 55.6633C64.9475 56.0678 65.5897 56.4356 65.7731 56.0127Z" fill="#2D3340"/>
<path d="M49.1689 43.0501C48.9487 42.4433 48.8203 42.0756 48.2148 41.763C47.481 41.3769 46.5086 41.1562 45.7013 41.3033C44.0134 41.5975 42.8025 43.2707 43.1695 44.9623C43.5364 46.6171 45.1509 47.7019 46.8205 47.3158C48.8386 46.8561 49.5358 44.852 49.1505 42.9949C49.0588 42.5352 48.3433 42.7191 48.435 43.1972C48.7286 44.6129 48.2699 46.1758 46.7288 46.5803C45.4078 46.9296 44.1419 46.1023 43.8483 44.76C43.5731 43.4914 44.4905 42.2594 45.738 42.0204C46.3618 41.8917 47.0773 42.0756 47.6644 42.333C48.2148 42.572 48.2515 42.7191 48.435 43.2339C48.6185 43.6752 49.3157 43.4914 49.1689 43.0501Z" fill="#2D3340"/>
<path d="M28.1436 59.8188C28.0518 59.0465 27.1161 58.881 26.4557 58.8259C25.5383 58.7523 24.5659 59.0649 23.8871 59.69C22.4928 60.9587 22.4561 63.2754 23.8504 64.5625C25.2264 65.8311 27.3547 65.7024 28.5472 64.2683C29.6663 62.9077 29.4829 60.4991 28.0151 59.451C27.6299 59.1752 27.2629 59.8187 27.6482 60.0945C28.6756 60.83 28.7857 62.6503 28.1252 63.6248C27.3547 64.7463 25.8686 65.0405 24.7311 64.3051C23.5752 63.5696 23.245 62.0619 23.9238 60.8668C24.254 60.2968 24.7861 59.8555 25.4099 59.6717C25.6484 59.5981 27.3913 59.3959 27.428 59.8188C27.4647 60.2784 28.1986 60.2784 28.1436 59.8188Z" fill="#2D3340"/>
<path d="M16.2187 54.3762C17.6681 54.1372 19.2642 54.744 19.7413 56.2517C20.1632 57.6123 19.2826 58.8258 18.2552 59.598C18.4203 59.7635 18.5854 59.929 18.7505 60.0945C19.3193 58.8074 19.4294 57.8145 18.989 56.4723C18.5304 55.1117 17.4479 54.413 16.3104 53.6408C15.9251 53.365 15.5582 54.0085 15.9435 54.2843C16.8975 54.9462 17.9066 55.5346 18.2919 56.6746C18.6588 57.7961 18.6038 58.6603 18.1267 59.7267C17.9983 60.0209 18.2919 60.4806 18.6221 60.2232C19.9981 59.1751 21.0622 57.5571 20.3467 55.792C19.6312 54.0269 17.7782 53.365 16.0169 53.6591C15.5582 53.7511 15.76 54.4498 16.2187 54.3762Z" fill="#2D3340"/>
<path d="M44.3626 54.2106C44.381 54.8726 44.3993 55.5345 44.4177 56.1964C44.436 56.5641 44.3076 57.2444 44.6745 57.4835C45.0047 57.7041 45.4084 57.4467 45.7019 57.318C46.2707 57.0606 46.8394 56.7848 47.3898 56.4906C47.61 56.3619 47.61 56.0861 47.4632 55.9206C46.8027 55.1116 45.7386 54.8174 45.0231 54.0819C44.6929 53.751 44.1791 54.2658 44.5094 54.5968C45.2433 55.3322 46.289 55.6448 46.9495 56.4354C46.9678 56.2516 47.0045 56.0493 47.0229 55.8654C46.6926 56.0493 46.3441 56.2148 45.9955 56.3803C45.7937 56.4722 45.1699 56.8951 44.9497 56.8215C45.0414 56.9135 45.1148 56.987 45.2066 57.0789C45.0781 56.6193 45.1515 56.0861 45.1332 55.6264C45.1148 55.1667 45.0965 54.6887 45.0965 54.229C45.0965 53.7326 44.3626 53.7326 44.3626 54.2106Z" fill="#2D3340"/>
<path d="M61.2229 44.4842C60.3056 44.4659 59.3699 44.4475 58.4526 44.4291C58.1774 44.4291 57.9939 44.7417 58.1407 44.9807C58.6544 45.9 59.1864 46.8193 59.7368 47.7203C59.8836 47.9593 60.2139 47.9409 60.379 47.7203C60.911 46.9113 61.333 46.0655 61.6816 45.1645C61.8467 44.7233 61.1495 44.5394 60.9661 44.9623C60.6542 45.8081 60.2322 46.5987 59.7368 47.3526C59.957 47.3526 60.1588 47.3526 60.379 47.3526C59.8286 46.4516 59.2965 45.5323 58.7828 44.6129C58.6727 44.7968 58.5626 44.9807 58.4709 45.1645C59.3882 45.1829 60.3239 45.2013 61.2413 45.2197C61.6816 45.2381 61.6816 44.5026 61.2229 44.4842Z" fill="#2D3340"/>
<path d="M44.5648 37.8283C45.2986 38.3799 46.0508 38.9315 46.7847 39.4831C46.7847 39.2625 46.7847 39.0603 46.7847 38.8396C46.0508 39.3544 45.2436 39.7038 44.3446 39.8141C44.4547 39.9612 44.5831 40.1267 44.6932 40.2738C44.8216 39.3544 44.9867 38.4351 45.1335 37.5158C45.2069 37.0561 44.4914 36.8539 44.418 37.3135C44.2712 38.2329 44.1244 39.1522 43.9777 40.0715C43.941 40.2738 44.0694 40.568 44.3263 40.5312C45.3537 40.4209 46.2894 40.0715 47.1333 39.4648C47.3718 39.2993 47.3718 39.0051 47.1333 38.8212C46.3994 38.2696 45.6472 37.718 44.9133 37.1664C44.5464 36.909 44.1795 37.5525 44.5648 37.8283Z" fill="#2D3340"/>
<path d="M26.5112 52.1514C26.9332 52.8134 27.3368 53.4569 27.7404 54.1372C27.8505 53.9533 27.9606 53.7695 28.0523 53.5856C27.6303 53.6224 27.2267 53.6591 26.8047 53.7143C26.5112 53.7511 26.0525 53.7327 25.8324 53.9533C25.9975 53.9533 26.1809 53.9533 26.3461 53.9533C26.4928 54.082 26.4561 53.8062 26.4745 53.6591C26.5112 53.4569 26.5662 53.2363 26.6029 53.034C26.6947 52.6479 26.8047 52.2618 26.9148 51.894C27.0616 51.4344 26.3461 51.2505 26.1993 51.6918C26.0158 52.2434 25.869 52.795 25.759 53.365C25.6856 53.6959 25.4838 54.1924 25.7957 54.4498C25.9424 54.5785 26.1626 54.5969 26.3094 54.4498C26.2727 54.4865 26.5662 54.4498 26.6029 54.4498C26.768 54.4314 26.9515 54.3946 27.1166 54.3762C27.4102 54.3394 27.7037 54.3211 27.9973 54.2843C28.2725 54.2659 28.4743 53.9901 28.3092 53.7327C27.9055 53.0708 27.5019 52.4089 27.0799 51.7469C26.8781 51.3976 26.2543 51.7653 26.5112 52.1514Z" fill="#2D3340"/>
<path d="M23.4106 43.1419C22.5667 43.1787 21.7227 43.289 20.9155 43.5097C20.6219 43.5832 20.5852 43.9142 20.7504 44.1164C21.3375 44.8335 22.0346 45.5322 22.4016 46.3964C22.5117 46.6538 22.9153 46.617 23.0437 46.3964C23.5391 45.569 23.8693 44.6864 24.0161 43.7303C24.0895 43.2706 23.3739 43.0684 23.3006 43.5281C23.1538 44.4106 22.8602 45.238 22.4016 46.0103C22.6217 46.0103 22.8235 46.0103 23.0437 46.0103C22.6584 45.0909 21.8879 44.3555 21.2641 43.5832C21.209 43.7855 21.154 43.9877 21.099 44.19C21.8512 43.9877 22.6217 43.8774 23.4106 43.8406C23.8693 43.859 23.8693 43.1236 23.4106 43.1419Z" fill="#2D3340"/>
<path d="M36.2169 50.4048C38.9322 50.9196 40.0514 53.9718 38.3818 56.1598C38.602 56.2517 38.8221 56.3436 39.0607 56.4356C39.2258 55.1669 39.2074 53.8614 38.602 52.7031C37.9415 51.4344 36.6756 50.7541 35.4463 50.1657C35.4096 50.3864 35.3913 50.607 35.3546 50.846C35.6665 50.7541 35.9784 50.6438 36.2903 50.5519C36.7306 50.4048 36.5471 49.6877 36.0885 49.8348C35.7766 49.9267 35.4647 50.037 35.1528 50.129C34.8776 50.2209 34.7675 50.6622 35.0611 50.8093C36.0885 51.3057 37.1893 51.8205 37.8314 52.8318C38.4552 53.8431 38.5103 55.0934 38.3451 56.2517C38.2901 56.6746 38.7488 56.8769 39.024 56.5275C40.9871 53.9718 39.5744 50.2944 36.4187 49.7061C35.9417 49.6141 35.7582 50.3128 36.2169 50.4048Z" fill="#2D3340"/>
<path d="M39.4273 51.9308C41.5556 51.0115 43.592 49.9451 45.6469 48.8787C47.7201 47.8122 49.885 47.0032 52.0682 46.1758C54.0313 45.422 56.0128 44.6497 57.8658 43.6385C59.9573 42.4985 61.9755 41.2115 64.0303 39.9796C64.434 39.7405 64.067 39.097 63.6634 39.336C61.6636 40.5312 59.7005 41.7998 57.6457 42.9214C55.6092 44.043 53.4259 44.8704 51.261 45.6978C49.2979 46.4516 47.3164 47.2055 45.4267 48.1616C43.3168 49.228 41.2253 50.3312 39.0604 51.2873C38.6201 51.4895 38.987 52.1147 39.4273 51.9308Z" fill="#2D3340"/>
<path d="M26.2174 41.7079C24.7863 40.954 23.3369 40.2369 21.8692 39.5382C21.4472 39.336 21.0803 39.9611 21.5022 40.1818C22.97 40.8805 24.4194 41.5975 25.8504 42.3514C26.2724 42.5536 26.6393 41.9285 26.2174 41.7079Z" fill="#2D3340"/>
<path d="M57.0217 52.6479C58.5996 52.6295 59.7371 50.938 58.8014 49.5222C57.8474 48.088 55.7191 47.9777 54.1963 48.18C52.6736 48.3822 50.6921 49.2464 50.8756 51.1218C51.059 53.1076 53.334 53.4753 54.8935 52.9973C54.7468 52.9053 54.6 52.8318 54.4349 52.7398C54.5449 53.3282 54.6917 54.2475 55.2605 54.5969C55.8476 54.9646 56.508 54.5417 57.0951 54.4498C57.2419 54.4314 57.3703 54.2475 57.3703 54.1004C57.3703 53.4018 57.2786 52.7582 57.0951 52.0963C56.9667 51.6366 56.2695 51.8389 56.3796 52.2986C56.5447 52.9053 56.6181 53.4937 56.6181 54.1004C56.7099 53.9901 56.8016 53.8614 56.8933 53.7511C56.5447 53.8063 55.8659 54.1924 55.554 53.8982C55.2971 53.6592 55.2054 52.8869 55.132 52.556C55.0953 52.3721 54.8568 52.2434 54.6734 52.2986C53.6092 52.6295 51.8663 52.6111 51.5911 51.1954C51.2976 49.7061 53.1322 49.0809 54.2514 48.9338C55.1871 48.8051 56.1961 48.7867 57.0768 49.1728C57.5905 49.3935 58.1409 49.7428 58.3244 50.3128C58.5812 51.1954 57.829 51.9308 56.9851 51.9492C56.5447 51.9308 56.5447 52.6663 57.0217 52.6479Z" fill="#2D3340"/>
<path d="M56.8931 49.6877C57.205 50.0554 57.4251 50.4231 57.6086 50.8644C57.7921 50.7173 57.9939 50.5702 58.1774 50.4231C57.8104 49.9635 57.4251 49.5038 57.0582 49.0441C56.783 48.7132 56.2876 49.1361 56.4894 49.4854C56.783 50.0186 57.0215 50.5518 57.1683 51.1402C57.3701 51.0299 57.5719 50.9012 57.7737 50.7909C57.1683 50.276 56.6362 49.706 56.1776 49.0441C55.9207 48.658 55.2969 49.0074 55.5354 49.4119C55.9757 50.1289 56.4528 50.8092 56.9848 51.4528C57.1499 51.2873 57.3334 51.1034 57.4985 50.9379C56.6913 50.2393 55.9941 49.4486 55.2969 48.6396C55.0217 48.3087 54.5263 48.7316 54.7282 49.0809C55.2052 49.9635 55.7556 50.7909 56.3794 51.5815C56.4711 51.3792 56.5445 51.1586 56.6362 50.9563C55.9757 51.0115 55.2235 49.8715 55.6822 49.3383C55.9207 49.0625 57.0949 49.5406 57.3517 49.6509C57.4435 49.4302 57.5352 49.2096 57.6269 48.9706C56.8013 48.7683 55.9941 48.5293 55.1868 48.2719C54.8566 48.1616 54.5447 48.6396 54.8382 48.8786C55.4804 49.4302 56.1776 49.3751 56.9848 49.5038C57.5536 49.5957 58.2507 50.1473 57.9022 50.7173C57.6453 51.1586 56.3977 51.177 55.9757 51.1586C56.0124 51.3976 56.0491 51.6366 56.0675 51.8757C56.6913 51.655 57.6269 51.5263 58.159 51.1402C58.3975 50.9747 58.5443 50.7725 58.5259 50.4599C58.3975 49.0625 56.1592 49.8531 55.5354 49.1544C55.2786 48.8786 54.8199 49.1728 54.93 49.5038C55.0951 50.1105 55.2969 50.6989 55.5354 51.2689C55.7372 51.1586 55.939 51.0299 56.1409 50.9196C55.5905 50.3496 54.8199 49.0257 53.9025 49.2096C53.7191 49.2464 53.5907 49.4854 53.6457 49.6693C53.9759 50.5886 54.5814 51.2505 55.2786 51.9124C55.6088 52.2434 56.1409 51.7286 55.7923 51.3976C55.0951 50.6989 54.3612 50.0554 53.5907 49.4119C53.2604 49.1361 52.8384 49.467 53.0219 49.8531C53.3338 50.5702 53.7374 51.1954 54.2511 51.8021C54.563 52.1698 55.0584 51.6366 54.7648 51.2873C54.2878 50.6805 53.7374 50.1289 53.1503 49.6325C52.8201 49.3567 52.3981 49.6877 52.5816 50.0738C52.8935 50.7173 53.2604 51.3057 53.7007 51.8757C53.8475 51.6918 53.9943 51.4895 54.1411 51.3057C53.4989 50.8276 52.9485 50.276 52.4348 49.6693C52.2146 49.3935 51.6826 49.6877 51.8294 50.0186C52.1229 50.7173 52.5082 51.3241 52.9485 51.9308C53.132 51.7837 53.3338 51.6366 53.5173 51.4895C53.0036 51.0667 52.4715 50.6254 51.9578 50.2025C51.7009 50.0002 51.2056 50.1841 51.3523 50.5518C51.5542 51.1218 51.811 51.6366 52.1779 52.1147C52.3798 52.4089 52.8384 52.3169 52.8568 51.9308C52.8751 51.4528 52.7467 51.1402 52.4532 50.7725C52.233 50.4967 51.7009 50.7909 51.8477 51.1218C52.0495 51.6183 52.3247 52.225 52.9118 52.3169C53.664 52.4457 53.9025 51.7102 54.4529 51.3976C54.3062 51.3792 54.1594 51.3608 54.0126 51.3425C54.453 51.9124 55.6638 53.3282 56.2509 52.0228C56.0308 51.986 55.8106 51.9676 55.5721 51.9308C55.7372 52.4089 55.9023 52.8685 56.0675 53.3466C56.2142 53.7879 56.8931 53.6224 56.783 53.1443C56.6729 52.7215 56.5261 52.3353 56.3427 51.9308C56.1225 52.0595 55.9207 52.1699 55.7005 52.2986C55.9757 52.7582 56.1042 53.2179 56.1225 53.7695C56.306 53.6592 56.4894 53.5488 56.6729 53.4569C56.2876 53.1627 55.9757 52.8502 55.7005 52.4456C55.4253 52.0595 54.8566 52.3905 55.0584 52.8134C55.2419 53.1811 55.3886 53.5488 55.4987 53.9534C55.5905 54.3027 56.1042 54.3027 56.2142 53.9534C56.4161 53.2363 56.3243 52.4824 55.9207 51.8389C55.7556 51.5815 55.5354 51.3976 55.3153 51.177C55.0034 50.8828 55.0217 51.0299 55.0767 50.5886C55.1134 50.3864 55.1868 50.2025 55.2052 50.0002C55.2786 49.467 55.2969 48.8235 54.6548 48.7132C53.8475 48.5845 52.8935 49.0809 52.288 49.559C52.0679 49.7244 52.0312 50.1657 52.3798 50.2393C52.6733 50.2944 52.8384 50.2944 53.0953 50.1106C53.4072 49.8899 53.5173 49.2832 53.8659 49.1544C53.7925 48.9154 53.7374 48.6764 53.664 48.4374C53.0586 48.6764 52.4532 48.897 51.8477 49.1361C51.4074 49.3015 51.6092 50.0186 52.0495 49.8531C52.655 49.6141 53.2604 49.3935 53.8659 49.1544C54.3062 48.989 54.1227 48.2719 53.664 48.4374C53.4255 48.5293 53.3155 48.5661 53.1503 48.7683C53.0219 48.897 52.8017 49.5589 52.5816 49.5222C52.6183 49.7428 52.6366 49.9635 52.6733 50.2025C53.0036 49.9635 54.1961 49.0993 54.5263 49.6877C54.7465 50.0738 54.1044 50.7357 54.2511 51.177C54.3612 51.5079 54.6548 51.6183 54.9116 51.8205C55.5171 52.2986 55.7189 53.034 55.5171 53.7695C55.7556 53.7695 55.9941 53.7695 56.2326 53.7695C56.1042 53.3098 55.939 52.8869 55.7189 52.4456C55.4987 52.5744 55.2969 52.6847 55.0767 52.8134C55.4253 53.3098 55.829 53.7143 56.306 54.0821C56.5261 54.2475 56.8564 54.0269 56.8564 53.7695C56.8564 53.0892 56.6913 52.5192 56.3427 51.9308C56.0858 51.5263 55.5171 51.8757 55.7005 52.2986C55.8657 52.6479 55.9757 52.9605 56.0675 53.3282C56.306 53.2547 56.5445 53.1995 56.783 53.126C56.6179 52.6479 56.4527 52.1882 56.2876 51.7102C56.1959 51.4344 55.7556 51.3057 55.6088 51.6182C55.407 52.0595 54.5814 50.8644 54.5263 50.7909C54.4163 50.6621 54.2144 50.6621 54.086 50.7357C53.554 51.0115 52.9669 51.9492 52.5449 50.8828C52.3431 50.9931 52.1413 51.1218 51.9394 51.2321C52.0128 51.4528 52.0679 51.655 52.1413 51.8757C52.3614 51.8205 52.5999 51.747 52.8201 51.6918C52.5082 51.2505 52.2697 50.8092 52.0679 50.2944C51.8661 50.4047 51.6642 50.5334 51.4624 50.6438C51.9761 51.0667 52.5082 51.5079 53.0219 51.9308C53.3155 52.1699 53.8659 51.8573 53.5907 51.4895C53.187 50.9379 52.8017 50.3864 52.5449 49.7612C52.3431 49.8715 52.1413 50.0002 51.9394 50.1106C52.4898 50.7725 53.0953 51.3608 53.7925 51.8757C54.1594 52.1515 54.4713 51.5999 54.2328 51.3057C53.8292 50.7909 53.4989 50.2393 53.2237 49.6509C53.0403 49.798 52.8384 49.9451 52.655 50.0922C53.2604 50.5886 53.7925 51.1402 54.2695 51.747C54.4346 51.5815 54.6181 51.3976 54.7832 51.2321C54.3245 50.6805 53.9576 50.0922 53.6824 49.4302C53.4989 49.5773 53.2971 49.7244 53.1136 49.8715C53.8659 50.4967 54.5997 51.1586 55.3153 51.8573C55.4804 51.6918 55.6638 51.5079 55.829 51.3425C55.2419 50.7725 54.6731 50.2025 54.3979 49.4119C54.3062 49.5589 54.2328 49.706 54.1411 49.8715C54.3796 49.8164 55.4987 51.2137 55.6638 51.3976C55.9023 51.6366 56.4161 51.3976 56.2693 51.0483C56.0308 50.4599 55.829 49.8715 55.6638 49.2832C55.462 49.3935 55.2602 49.5222 55.0584 49.6325C55.5538 50.1657 56.306 50.0186 56.9481 50.1473C57.1132 50.1841 57.3884 50.2025 57.5352 50.2944C57.8655 50.5151 57.7003 50.4415 57.4618 50.5886C57.0399 50.846 56.3977 50.9563 55.9207 51.1034C55.5354 51.2321 55.5905 51.8205 56.0124 51.8205C56.7646 51.8389 57.5169 51.7102 58.1957 51.3608C58.8011 51.0483 58.8378 50.8092 58.7094 50.2025C58.5993 49.5957 58.4526 49.1912 57.8655 48.897C57.0949 48.5109 56.0491 48.8419 55.3886 48.2719C55.2786 48.4741 55.1501 48.6764 55.0401 48.8786C55.8473 49.1361 56.6546 49.3751 57.4802 49.5773C57.8655 49.6693 58.159 49.0809 57.7554 48.897C57.0765 48.6028 55.1134 47.8122 54.9116 48.989C54.7098 50.1473 55.2969 51.6918 56.6546 51.5631C56.9848 51.5263 57.1132 51.1954 56.9114 50.9379C56.3243 50.2025 55.829 49.4119 55.3886 48.5845C55.2052 48.7316 55.0034 48.8786 54.8199 49.0257C55.5171 49.8348 56.2142 50.6254 57.0215 51.3241C57.3884 51.6366 57.8288 51.177 57.5352 50.8092C57.0399 50.2025 56.6179 49.5773 56.2142 48.9154C55.9941 49.0441 55.7923 49.1544 55.5721 49.2832C56.0675 50.0002 56.6179 50.6254 57.2784 51.1954C57.5536 51.416 57.9939 51.2137 57.8838 50.846C57.7003 50.2025 57.4618 49.6141 57.1316 49.0257C56.9481 49.1728 56.7463 49.3199 56.5628 49.467C56.9298 49.9267 57.3151 50.3864 57.682 50.846C57.9755 51.1954 58.4159 50.7541 58.2507 50.4047C58.0306 49.9083 57.7737 49.4854 57.4251 49.0809C57.1132 48.8051 56.5995 49.3199 56.8931 49.6877Z" fill="#2D3340"/>
<path d="M54.5262 51.4344C54.2143 51.4528 54.0125 51.5815 53.7923 51.7654C53.4621 52.0228 53.2236 51.8941 52.875 51.6735C52.4714 51.416 52.1044 52.0596 52.508 52.317C52.8383 52.5376 53.2236 52.7399 53.6455 52.6663C53.8107 52.6296 53.9574 52.556 54.0859 52.4641C54.2143 52.3721 54.3611 52.1883 54.5262 52.1699C55.0032 52.1515 55.0032 51.416 54.5262 51.4344Z" fill="#2D3340"/>
<path d="M22.6402 49.9082C23.2823 49.6324 22.842 48.8786 22.5117 48.5292C21.9063 47.8857 21.0256 47.6099 20.1633 47.7018C19.7414 47.757 19.668 48.2718 20.0716 48.4189C20.8055 48.7131 21.576 48.3638 22.1998 48.9337C22.475 49.1728 22.6768 49.4669 22.8053 49.8163C23.0071 50.4231 22.5117 49.4853 22.42 49.3566C21.8879 48.6763 20.8238 47.5547 19.8514 47.6467C19.0258 47.7202 19.0075 48.6579 19.5579 49.1176C19.9065 49.4118 20.3652 49.4302 20.8055 49.467C21.3742 49.5405 21.8512 49.5773 22.1631 50.1473C22.1998 50.2024 22.4383 51.1034 22.5484 51.0482C22.6768 51.0482 22.7869 51.0482 22.9154 51.0482C22.5484 50.8643 22.2365 49.9818 22.0164 49.6508C21.7595 49.2647 21.4843 48.8786 21.1541 48.566C20.7871 48.2167 19.9799 47.4812 19.4845 47.996C18.9341 48.5844 19.9248 49.2279 20.2734 49.5405C21.3375 50.4414 22.3283 51.3975 22.5668 52.8317C22.7869 52.7398 23.0071 52.6478 23.2456 52.5559C22.7319 51.5079 22.0897 50.5518 21.3008 49.6876C20.7321 49.0808 19.9799 48.1799 19.0625 48.4741C18.8607 48.5476 18.6956 48.805 18.8424 49.0073C19.7047 50.2576 21.2275 51.085 21.5944 52.6294C21.7962 52.5191 21.998 52.3904 22.1998 52.2801C21.3742 51.4159 20.5303 50.5334 19.7047 49.6692C19.5395 49.8347 19.3561 50.0185 19.191 50.184C20.0349 50.993 20.5853 51.9491 20.8238 53.0891C21.0256 52.9788 21.2275 52.8501 21.4293 52.7398C20.7871 52.0962 20.2 51.4343 19.6496 50.7172C19.3744 50.3495 18.7873 50.6621 19.0075 51.085C19.2643 51.563 19.4662 51.9859 19.5395 52.5191C19.7597 52.4272 19.9799 52.3353 20.2184 52.2433C19.7597 51.5814 19.246 50.9747 18.6589 50.4414C18.4204 50.2208 18.0351 50.3679 18.0351 50.6989C18.0351 51.2504 18.1635 51.6733 18.4938 52.1146C18.6773 51.9675 18.8791 51.8204 19.0625 51.6733C18.6222 51.324 18.1635 50.9747 17.7232 50.6253C17.5031 50.4598 17.0627 50.5334 17.0994 50.8827C17.1361 51.1953 17.1728 51.4895 17.2646 51.802C17.4847 51.7101 17.7049 51.6182 17.9434 51.5262C17.6865 51.1769 17.3012 50.7908 16.8242 51.0298C16.4756 51.2137 16.3839 51.6182 16.6041 51.9308C16.7508 51.7469 16.8793 51.563 17.026 51.3975C16.9527 51.3608 16.8793 51.3424 16.8242 51.3056C16.3839 51.1401 16.2004 51.8388 16.6224 52.0227C16.6958 52.0595 16.7692 52.0778 16.8242 52.1146C17.1178 52.2249 17.4113 51.8204 17.2462 51.5814C17.2646 51.6917 17.3012 51.802 17.3196 51.9124C17.5581 52.2249 18.1085 52.0595 17.9984 51.6366C17.925 51.3975 17.87 51.1585 17.8516 50.9195C17.6498 51.0114 17.4297 51.085 17.2279 51.1769C17.6682 51.5262 18.1268 51.8756 18.5672 52.2249C18.8607 52.464 19.4111 52.1514 19.1359 51.7837C18.8791 51.4527 18.7873 51.1585 18.7873 50.7356C18.5855 50.8276 18.3654 50.9011 18.1635 50.993C18.7139 51.4895 19.191 52.0411 19.6129 52.6478C19.8514 52.9972 20.3468 52.7765 20.2918 52.372C20.2 51.7837 19.9615 51.2872 19.6863 50.754C19.4662 50.8827 19.2643 50.993 19.0442 51.1217C19.6313 51.894 20.2551 52.6111 20.9339 53.2914C21.2091 53.5672 21.6127 53.2914 21.5393 52.942C21.2641 51.6733 20.6587 50.5885 19.723 49.706C19.3744 49.375 18.8791 49.8898 19.2093 50.2208C20.0349 51.085 20.8789 51.9675 21.7045 52.8317C21.9613 53.1075 22.4016 52.8133 22.3099 52.4824C21.9246 50.8276 20.4018 50.0002 19.4845 48.6763C19.4111 48.8602 19.3377 49.0441 19.2643 49.2095C19.9615 48.9889 20.9706 50.4231 21.3559 50.9011C21.8512 51.5446 22.2732 52.2249 22.6218 52.942C22.8236 53.3465 23.3557 53.034 23.3006 52.6662C23.1539 51.8388 22.8053 51.1217 22.2732 50.4782C21.943 50.0737 21.576 49.706 21.1908 49.375C20.9889 49.1912 20.6954 48.8786 20.4569 48.7683C20.1817 48.6212 20.0716 48.5108 20.3101 48.8602C20.5853 49.2463 21.044 49.5405 21.3375 49.9818C21.576 50.3495 21.7962 50.7356 22.0164 51.1034C22.2732 51.5262 22.5117 51.9308 23.0438 51.7101C23.1722 51.655 23.2089 51.5079 23.2272 51.3975C23.3006 50.276 22.5668 49.0808 21.4476 48.8602C21.1174 48.805 20.6954 48.8786 20.4018 48.7499C20.2734 48.6579 20.1633 48.5476 20.0349 48.4557C20.1817 48.5108 20.3285 48.566 20.4569 48.6212C20.7137 48.7499 20.9522 48.9337 21.1724 49.1176C21.7228 49.5773 21.9797 50.3495 22.5301 50.7724C23.4841 51.5079 23.6859 50.0185 23.4291 49.3934C23.2089 48.8602 22.7319 48.4005 22.2365 48.088C21.5577 47.6834 20.9706 48.0328 20.2734 47.757C20.2367 47.996 20.2 48.235 20.1817 48.4741C20.567 48.4373 20.9156 48.4557 21.2825 48.6028C21.466 48.6763 22.2365 49.3382 22.2916 49.3199C21.8329 49.4669 22.1998 50.0921 22.6402 49.9082Z" fill="#2D3340"/>
<path d="M19.429 52.5377C19.8693 53.0893 20.4013 53.6041 21.1352 53.6593C21.9792 53.7328 22.7497 53.2364 23.5386 53.0341C23.9973 52.9054 23.7955 52.2067 23.3368 52.3171C22.7864 52.4641 22.2727 52.7399 21.7223 52.8686C20.915 53.0525 20.4013 52.6296 19.9427 52.0229C19.6675 51.6368 19.1538 52.17 19.429 52.5377Z" fill="#2D3340"/>
<path d="M36.547 57.8881C36.5286 57.2813 36.2901 56.8584 35.7764 56.5459C35.4095 56.3252 35.0425 56.8217 35.3361 57.1158C35.8314 57.6307 36.3084 58.1639 36.7488 58.7339C36.8222 58.55 36.8955 58.3661 36.9689 58.2006C36.5103 58.2742 35.4645 57.4284 35.0792 57.1894C34.7123 56.9687 34.3453 57.4652 34.6389 57.7594C35.0425 58.1823 35.4645 58.5868 35.8681 59.0096C35.9782 58.8074 36.1066 58.6051 36.2167 58.4029C35.3361 58.0903 34.749 57.2997 33.9234 56.8952C33.5564 56.7113 33.1712 57.171 33.4831 57.4652C34.0518 58.0352 34.5472 58.6603 34.9691 59.359C35.0058 59.1935 35.0609 59.028 35.0976 58.8626C34.7857 59.0097 33.4831 57.502 33.2445 57.2629C32.896 56.9136 32.4373 57.4284 32.7308 57.7777C33.3546 58.5684 33.9601 59.3774 34.5839 60.168C34.7306 59.9841 34.8774 59.7819 35.0242 59.598C34.2353 59.1016 33.4831 58.5684 32.7492 57.98C32.3822 57.6858 31.8869 58.1639 32.2355 58.4948C32.7859 59.028 33.3179 59.5612 33.6298 60.2783C33.7399 60.1312 33.8683 59.9657 33.9784 59.8187C33.6115 59.837 33.1895 59.2487 32.951 59.0096C32.6391 58.7155 32.3456 58.4213 32.0337 58.1087C31.7401 57.8145 31.2447 58.1823 31.4649 58.55C31.8135 59.1567 32.1804 59.7819 32.529 60.3886C32.6941 60.2232 32.8593 60.0577 33.0244 59.8922C32.4923 59.5245 32.052 59.1016 31.6667 58.5868C31.3915 58.2374 30.9329 58.6787 31.098 59.028C31.3181 59.5061 31.5383 59.9657 31.7585 60.4438C31.9236 60.2783 32.0887 60.1128 32.2538 59.9474C31.9603 59.7267 31.7768 59.4877 31.6117 59.1751C31.4282 58.8442 30.9329 59.0096 30.9329 59.359C30.8778 61.1425 33.3363 61.1425 34.5288 60.7196C34.4554 60.4806 34.4004 60.2415 34.327 60.0025C34.1802 60.0577 34.0335 60.1312 33.8683 60.1864C33.5197 60.3335 33.5197 60.9402 33.9601 60.9035C34.7306 60.8483 34.9875 61.4734 35.2443 62.025C35.4278 62.3928 36.0699 62.1354 35.9232 61.7492C35.758 61.3263 35.5929 60.9035 35.4278 60.4806C35.226 60.5909 35.0242 60.7196 34.8224 60.8299C35.1343 61.1609 35.4645 61.4734 35.7764 61.8044C36.1066 62.1354 36.602 61.6389 36.2901 61.2896C36.0332 60.9954 35.8865 60.7564 35.7397 60.407C35.5562 60.5541 35.3544 60.7012 35.1709 60.8483C35.4278 61.0506 35.5929 61.2528 35.7214 61.547C35.8865 61.9147 36.3818 61.6941 36.4002 61.3631C36.4369 60.6828 36.1433 60.1496 35.5562 59.837C35.5746 60.0209 35.6113 60.2232 35.6296 60.407C36.0883 59.9657 36.547 59.5061 37.0056 59.0648C37.2441 58.8258 37.0056 58.311 36.657 58.4581C35.8131 58.789 35.0976 59.2303 34.4554 59.8738C34.6205 60.0393 34.804 60.2232 34.9691 60.3886C35.5929 59.6899 36.3084 58.5868 36.1984 57.5939C36.0883 56.5459 35.1343 57.171 34.5472 57.1894C34.6572 57.3365 34.7857 57.502 34.8958 57.649C34.9508 57.5571 35.0058 57.4468 35.0609 57.3549C35.2443 57.1342 35.171 56.8217 34.8958 56.7481C33.5197 56.2884 32.4373 57.2078 31.6117 58.219C31.3181 58.5868 31.8135 59.1016 32.1254 58.7339C32.529 58.2558 32.951 57.7778 33.3546 57.2997C33.6115 57.0055 33.2812 56.4907 32.9143 56.7297C32.2905 57.1342 31.8318 57.6307 31.5383 58.311C31.3548 58.7339 31.9786 59.12 32.1804 58.6787C32.4373 58.1087 32.7675 57.7042 33.2996 57.3549C33.1528 57.171 33.006 56.9687 32.8593 56.7849C32.4556 57.2629 32.0337 57.741 31.63 58.219C31.7951 58.3845 31.9786 58.5684 32.1437 58.7339C32.7859 57.9432 33.5748 57.0791 34.7123 57.4468C34.6572 57.2445 34.6022 57.0423 34.5472 56.84C34.327 57.0791 34.2903 57.1526 34.1986 57.4652C34.1252 57.6858 34.327 57.9432 34.5472 57.9248C34.9141 57.9248 35.3361 57.6123 35.3911 58.1271C35.4462 58.6787 34.7857 59.5061 34.4554 59.8738C34.1435 60.2232 34.6389 60.7196 34.9691 60.3886C35.5195 59.8554 36.125 59.4509 36.8405 59.1751C36.7304 58.9729 36.602 58.7706 36.4919 58.5684C36.0332 59.0096 35.5746 59.4693 35.1159 59.9106C34.9508 60.0761 34.9875 60.3703 35.1893 60.4806C35.5929 60.6828 35.758 60.977 35.6847 61.3815C35.9048 61.3263 36.1433 61.2528 36.3635 61.1976C36.1984 60.8299 36.0149 60.5909 35.703 60.3519C35.3728 60.0945 34.9508 60.407 35.1343 60.7931C35.2994 61.1793 35.5195 61.5102 35.7947 61.8228C35.9599 61.6573 36.1433 61.4734 36.3084 61.308C35.9966 60.977 35.6663 60.6644 35.3544 60.3335C35.1159 60.0945 34.6022 60.3335 34.749 60.6828C34.9141 61.1057 35.0792 61.5286 35.2443 61.9515C35.4645 61.8596 35.6847 61.7676 35.9232 61.6757C35.5379 60.8483 35.0058 60.1128 33.9968 60.1864C34.0335 60.4254 34.0701 60.6644 34.0885 60.9035C34.2353 60.8483 34.382 60.7748 34.5472 60.7196C34.9691 60.5541 34.804 59.8554 34.3453 60.0025C33.7032 60.2232 31.6484 60.5909 31.6851 59.3406C31.4649 59.3958 31.2264 59.4693 31.0062 59.5245C31.2447 59.9657 31.5199 60.2599 31.9052 60.5541C32.2355 60.7931 32.5474 60.3519 32.4006 60.0577C32.1804 59.5796 31.9603 59.12 31.7401 58.6419C31.5566 58.789 31.3548 58.9361 31.1714 59.0832C31.6117 59.6348 32.107 60.0945 32.6758 60.499C32.9877 60.7196 33.3546 60.2967 33.1712 60.0025C32.8226 59.3958 32.4556 58.7706 32.107 58.1639C31.9236 58.311 31.7218 58.4581 31.5383 58.6051C32.0337 59.0832 32.5107 59.5796 33.0244 60.0577C33.3363 60.3519 33.5564 60.5541 33.9968 60.5173C34.1986 60.499 34.4554 60.2967 34.3453 60.0577C33.9968 59.2119 33.428 58.5868 32.7675 57.9616C32.6024 58.1271 32.4189 58.311 32.2538 58.4764C33.0244 59.1016 33.8316 59.6716 34.6756 60.2048C35.0609 60.4438 35.3544 59.929 35.1159 59.6348C34.4921 58.8442 33.8867 58.0352 33.2629 57.2445C33.0978 57.41 32.9143 57.5939 32.7492 57.7594C33.3363 58.3477 34.5288 59.9474 35.5012 59.4693C35.6847 59.3774 35.7214 59.12 35.6296 58.9729C35.171 58.2374 34.6389 57.5571 34.0335 56.932C33.8867 57.1158 33.7399 57.3181 33.5931 57.5019C34.4921 57.9432 35.0976 58.7522 36.0516 59.0832C36.4002 59.2119 36.657 58.7155 36.4002 58.4764C35.9966 58.0536 35.5746 57.649 35.1709 57.2262C35.0242 57.41 34.8774 57.6123 34.7306 57.7961C35.4645 58.219 36.3084 59.0096 37.1891 58.8809C37.4093 58.8442 37.5377 58.5132 37.4093 58.3477C36.9322 57.7226 36.4369 57.1342 35.8865 56.5826C35.7397 56.7665 35.5929 56.9687 35.4462 57.1526C35.5746 57.3916 35.7214 57.6307 35.8498 57.8697C35.8314 58.3477 36.5653 58.3477 36.547 57.8881Z" fill="#2D3340"/>
<path d="M37.886 40.807C37.886 40.7886 37.886 40.7518 37.8677 40.7334C37.8126 40.8805 37.7576 41.0092 37.7025 41.1563C37.7209 41.1379 37.7392 41.1196 37.7576 41.1012C37.6292 41.1012 37.5191 41.1012 37.3907 41.1012C37.5925 41.2299 37.6659 41.4321 37.6292 41.6895C37.831 41.5976 38.0511 41.5241 38.253 41.4321C38.0328 41.285 37.886 41.0828 37.7943 40.8254C37.5741 40.9173 37.354 41.0092 37.1155 41.1012C37.5374 41.8734 38.1429 42.4434 38.785 43.0134C39.1152 43.3076 39.5189 42.9398 39.3538 42.5721C39.1703 42.1676 38.9134 41.947 38.4731 41.8734C38.1429 41.8183 37.9227 42.1124 38.0511 42.4066C38.308 42.9766 38.5832 43.5466 38.84 44.1166C39.0235 43.9695 39.2253 43.8224 39.4088 43.6753C39.0235 43.1789 38.7116 42.664 38.4364 42.0941C38.253 42.2411 38.0511 42.3882 37.8677 42.5353C38.308 43.0134 38.8951 43.7305 38.9318 44.4108C38.9868 44.3004 39.0602 44.1901 39.1152 44.0982C38.9501 44.2085 38.1612 43.0318 38.0695 42.8663C37.7943 42.3882 37.6292 41.8918 37.5191 41.3586C37.2989 41.4505 37.0788 41.5425 36.8403 41.6344C37.3356 42.7008 37.9411 43.7672 38.2346 44.9072C38.4181 44.7601 38.6015 44.6314 38.7667 44.4843C38.253 44.1717 37.8677 43.2156 37.5925 42.7008C37.2806 42.0941 36.987 41.4873 36.7118 40.8621C36.5467 40.476 35.9413 40.7518 36.033 41.1379C36.3082 42.3331 37.0421 43.3811 37.1338 44.613C37.354 44.5579 37.5925 44.4843 37.8126 44.4292C37.354 43.473 36.8769 42.5353 36.3816 41.5976C36.1981 41.2483 35.7395 41.4505 35.7028 41.7815C35.5743 42.9766 36.4733 44.2085 37.0237 45.2198C37.1338 45.0359 37.2439 44.852 37.3356 44.6682C37.0604 44.6682 36.1981 42.664 36.0513 42.3699C35.9046 42.1124 35.5743 42.1676 35.4092 42.3699C35.2074 42.6456 35.3175 42.9215 35.4276 43.2156C35.6294 43.8408 35.8495 44.4659 36.0697 45.0911C36.2899 44.9991 36.51 44.9072 36.7485 44.8153C36.3632 44.1717 35.978 43.5466 35.5927 42.9031C35.4276 42.6456 34.9872 42.6824 34.9138 42.995C34.7854 43.565 34.8772 44.0063 35.0606 44.5579C35.2808 44.4659 35.5009 44.374 35.7395 44.2821C35.5193 43.8224 35.3358 43.3627 35.2257 42.8663C35.134 42.4986 34.6203 42.5353 34.5102 42.8663C34.3451 43.3627 34.2534 44.1534 34.8038 44.4659C35.1707 44.6682 35.7761 44.5946 36.1798 44.6498C36.8403 44.7417 37.464 44.9072 38.1062 45.1278C38.308 45.2014 38.4915 45.0543 38.5648 44.8704C38.6749 44.5762 38.6015 44.3556 38.3997 44.1166C38.0878 43.7672 37.5558 44.2821 37.886 44.6314C37.886 44.6498 37.8677 44.6498 37.8677 44.6682C38.0144 44.5762 38.1612 44.5027 38.3263 44.4108C37.7392 44.2085 37.1338 44.0614 36.51 43.9511C36.3082 43.9143 36.1064 43.8959 35.9046 43.8592C35.3175 43.7856 34.9322 43.9879 35.2441 43.0502C35.0056 43.0502 34.7671 43.0502 34.5286 43.0502C34.6753 43.6018 34.8588 44.1166 35.1157 44.6314C35.2991 44.9991 35.9229 44.7417 35.7945 44.3556C35.6661 43.9511 35.556 43.6385 35.6477 43.1972C35.4276 43.234 35.2074 43.2524 34.9689 43.2892C35.3542 43.9327 35.7394 44.5579 36.1247 45.2014C36.3265 45.5507 36.932 45.3301 36.8036 44.9256C36.7302 44.6866 35.9596 42.9398 36.088 42.756C35.8679 42.756 35.6661 42.756 35.4459 42.756C35.8312 43.473 36.1614 44.3004 36.6201 44.9624C36.8219 45.2382 36.987 45.422 37.354 45.4036C37.6292 45.4036 37.8126 45.0911 37.6659 44.852C37.1888 43.9695 36.3265 42.8295 36.4366 41.7815C36.2165 41.8366 35.978 41.9102 35.7578 41.9653C36.2348 42.9031 36.7118 43.8408 37.1888 44.7969C37.354 45.1095 37.9044 44.9624 37.8677 44.613C37.7576 43.3076 37.0237 42.2044 36.7302 40.9541C36.51 41.046 36.2899 41.1379 36.0513 41.2299C36.3999 42.0389 36.7852 42.8479 37.2255 43.6201C37.5374 44.1534 37.8126 44.7969 38.363 45.1278C38.6382 45.2933 38.9868 45.0175 38.8951 44.705C38.5832 43.4914 37.9594 42.3698 37.4273 41.2483C37.2439 40.8438 36.6751 41.1379 36.7485 41.5241C36.9136 42.3515 37.2439 43.1237 37.7576 43.804C38.0328 44.1717 38.5465 44.9072 39.0969 44.852C40.4729 44.705 38.6566 42.3699 38.308 42.0021C38.0144 41.6895 37.5558 42.0941 37.7392 42.4434C38.0511 43.0685 38.3997 43.6201 38.8217 44.1717C39.0969 44.5211 39.5556 44.0798 39.3904 43.7305C39.1336 43.1605 38.8584 42.5905 38.6015 42.0205C38.4548 42.2044 38.3263 42.3882 38.1796 42.5537C38.3263 42.6824 38.4731 42.7927 38.6199 42.9214C38.8034 42.7744 39.0052 42.6273 39.1886 42.4802C38.5832 41.947 38.0144 41.4321 37.6292 40.7151C37.4273 40.3657 36.8036 40.6047 36.9503 40.9909C37.0971 41.377 37.2622 41.6528 37.5925 41.9102C37.831 42.0941 38.2346 42.0021 38.2163 41.6528C38.1979 41.1747 38.0511 40.6783 37.6108 40.4393C37.5007 40.3841 37.3356 40.3657 37.2439 40.4393C37.2255 40.4576 37.2072 40.476 37.1888 40.4944C37.0421 40.6047 36.987 40.7334 37.0237 40.9173C37.0237 40.9357 37.0237 40.9725 37.0421 40.9909C37.2622 41.4689 37.9594 41.2667 37.886 40.807Z" fill="#2D3340"/>
<path d="M37.4278 40.4577C36.9691 40.3106 36.4921 40.3106 36.0334 40.4393C35.6481 40.568 35.7032 41.1564 36.1251 41.1564C36.327 41.1564 36.5288 41.1564 36.7306 41.1564C36.6755 40.9358 36.6022 40.6967 36.5471 40.4761C36.2903 40.6048 36.0151 40.7335 35.7582 40.8622C35.4647 41.0093 35.5564 41.4506 35.8499 41.5425C36.1251 41.6161 36.4187 41.6896 36.6939 41.7631C37.1526 41.8735 37.3544 41.1748 36.8957 41.0461C36.6205 40.9725 36.327 40.899 36.0517 40.8254C36.0884 41.0461 36.1068 41.2667 36.1435 41.5057C36.4003 41.377 36.6755 41.2483 36.9324 41.1196C37.2626 40.9541 37.0975 40.4393 36.7489 40.4393C36.5471 40.4393 36.3453 40.4393 36.1435 40.4393C36.1802 40.6783 36.2169 40.9174 36.2352 41.1564C36.5838 41.0461 36.8957 41.0645 37.2443 41.1748C37.6846 41.3219 37.8681 40.6048 37.4278 40.4577Z" fill="#2D3340"/>
</svg>
