<svg width="24" height="24" viewBox="0 0 24 24" fill="none" xmlns="http://www.w3.org/2000/svg">
<path d="M13.8607 23.4038C20.353 22.3961 24.2552 17.024 23.2337 10.4428C22.2122 3.86165 16.8652 -0.0748197 10.3729 0.932868C3.88064 1.94055 -0.021578 7.31263 0.999913 13.8938C2.0214 20.475 7.36843 24.4115 13.8607 23.4038ZM13.2947 19.7575C8.96656 20.4293 5.43662 17.6376 4.76483 13.3095C4.09304 8.98128 6.61069 5.251 10.9389 4.57921C15.267 3.90742 18.797 6.69903 19.4688 11.0272C20.1406 15.3554 17.6229 19.0857 13.2947 19.7575ZM8.81005 17.6605L12.1896 17.1359L11.6236 13.4896L13.8201 16.8829L17.585 16.2985L14.9163 12.7964C16.0014 12.3547 16.6934 11.3366 16.4219 9.58749C16.1918 8.10524 15.4491 7.03651 13.9776 6.74881C13.4164 6.65376 12.78 6.66145 11.8907 6.79949L7.2364 7.5219L8.81005 17.6605ZM11.0715 9.93221L12.0794 9.77576C12.4944 9.71134 12.6815 9.74303 12.8139 9.81356C13.0148 9.93417 13.1313 10.0982 13.1819 10.4243C13.2325 10.7504 13.1712 10.9421 13.0163 11.1179C12.9116 11.2253 12.7429 11.3122 12.3279 11.3766L11.3199 11.533L11.0715 9.93221Z" fill="#202020"/>
</svg>
