<svg width="40" height="40" viewBox="0 0 40 40" fill="none" xmlns="http://www.w3.org/2000/svg">
<path d="M0 0H36C38.2091 0 40 1.79086 40 4V36C40 38.2091 38.2091 40 36 40H0V0Z" fill="#FF7D00"/>
<path d="M25.5 15H23V14.5C22.9984 14.1027 22.8398 13.7221 22.5588 13.4412C22.2779 13.1602 21.8973 13.0016 21.5 13H18.5C18.1027 13.0016 17.7221 13.1602 17.4412 13.4412C17.1602 13.7221 17.0016 14.1027 17 14.5V15H14.5C14.3674 15 14.2402 15.0527 14.1464 15.1464C14.0527 15.2402 14 15.3674 14 15.5C14 15.6326 14.0527 15.7598 14.1464 15.8536C14.2402 15.9473 14.3674 16 14.5 16H15V25C15 25.2652 15.1054 25.5196 15.2929 25.7071C15.4804 25.8946 15.7348 26 16 26H24C24.2652 26 24.5196 25.8946 24.7071 25.7071C24.8946 25.5196 25 25.2652 25 25V16H25.5C25.6326 16 25.7598 15.9473 25.8536 15.8536C25.9473 15.7598 26 15.6326 26 15.5C26 15.3674 25.9473 15.2402 25.8536 15.1464C25.7598 15.0527 25.6326 15 25.5 15ZM19 22.5C19 22.6326 18.9473 22.7598 18.8536 22.8536C18.7598 22.9473 18.6326 23 18.5 23C18.3674 23 18.2402 22.9473 18.1464 22.8536C18.0527 22.7598 18 22.6326 18 22.5V18.5C18 18.3674 18.0527 18.2402 18.1464 18.1464C18.2402 18.0527 18.3674 18 18.5 18C18.6326 18 18.7598 18.0527 18.8536 18.1464C18.9473 18.2402 19 18.3674 19 18.5V22.5ZM22 22.5C22 22.6326 21.9473 22.7598 21.8536 22.8536C21.7598 22.9473 21.6326 23 21.5 23C21.3674 23 21.2402 22.9473 21.1464 22.8536C21.0527 22.7598 21 22.6326 21 22.5V18.5C21 18.3674 21.0527 18.2402 21.1464 18.1464C21.2402 18.0527 21.3674 18 21.5 18C21.6326 18 21.7598 18.0527 21.8536 18.1464C21.9473 18.2402 22 18.3674 22 18.5V22.5ZM22 15H18V14.5C18 14.3674 18.0527 14.2402 18.1464 14.1464C18.2402 14.0527 18.3674 14 18.5 14H21.5C21.6326 14 21.7598 14.0527 21.8536 14.1464C21.9473 14.2402 22 14.3674 22 14.5V15Z" fill="white"/>
</svg>
