<svg width="24" height="24" viewBox="0 0 24 24" fill="none" xmlns="http://www.w3.org/2000/svg">
<path d="M13.8607 23.4036C20.353 22.3959 24.2552 17.0238 23.2337 10.4426C22.2122 3.8614 16.8652 -0.0750638 10.3729 0.932623C3.88064 1.94031 -0.021578 7.31238 0.999913 13.8936C2.0214 20.4748 7.36843 24.4112 13.8607 23.4036ZM13.2947 19.7572C8.96656 20.429 5.43662 17.6374 4.76483 13.3092C4.09304 8.98104 6.61069 5.25075 10.9389 4.57896C15.267 3.90717 18.797 6.69879 19.4688 11.027C20.1406 15.3551 17.6229 19.0854 13.2947 19.7572ZM8.81005 17.6603L12.1896 17.1357L11.6236 13.4894L13.8201 16.8826L17.585 16.2983L14.9163 12.7961C16.0014 12.3545 16.6934 11.3363 16.4219 9.58725C16.1918 8.105 15.4491 7.03627 13.9776 6.74856C13.4164 6.65352 12.78 6.66121 11.8907 6.79925L7.2364 7.52165L8.81005 17.6603ZM11.0715 9.93196L12.0794 9.77552C12.4944 9.7111 12.6815 9.74278 12.8139 9.81331C13.0148 9.93393 13.1313 10.098 13.1819 10.4241C13.2325 10.7502 13.1712 10.9419 13.0163 11.1177C12.9116 11.225 12.7429 11.3119 12.3279 11.3763L11.3199 11.5328L11.0715 9.93196Z" fill="#202020"/>
</svg>
