<svg width="37" height="44" viewBox="0 0 37 44" fill="none" xmlns="http://www.w3.org/2000/svg">
<path d="M30.2273 3.65257C25.4923 0.205067 22.1223 0.280067 20.8423 0.487567C20.6668 0.517932 20.4991 0.582849 20.3489 0.678552C20.1987 0.774254 20.069 0.898836 19.9673 1.04507L8.41734 16.9801L2.75984 24.7876C2.06792 25.7426 1.66683 26.8773 1.60484 28.0551L0.864837 42.1151C0.852222 42.3483 0.898156 42.581 0.998455 42.7919C1.09875 43.0028 1.25023 43.1853 1.43909 43.3227C1.62794 43.4601 1.84818 43.5481 2.07974 43.5787C2.31129 43.6092 2.54681 43.5813 2.76484 43.4976L15.9048 38.4726C17.0123 38.0476 17.9748 37.3101 18.6698 36.3501L23.2798 29.9876L35.8698 12.6151C35.9799 12.4644 36.0587 12.2932 36.1016 12.1116C36.1446 11.93 36.1508 11.7416 36.1198 11.5576C35.9098 10.2426 34.9023 7.05257 30.2273 3.65257ZM15.9448 35.6626L10.8373 37.6351C10.7409 37.673 10.6348 37.6784 10.535 37.6504C10.4353 37.6224 10.3474 37.5626 10.2848 37.4801C9.51859 36.496 8.61328 35.6286 7.59734 34.9051C6.59562 34.1633 5.49274 33.5689 4.32234 33.1401C4.22511 33.1047 4.14192 33.0388 4.08516 32.9524C4.0284 32.8659 4.0011 32.7633 4.00734 32.6601L4.31234 27.1951L5.68484 25.3076C5.68484 25.3076 8.75734 24.8851 12.7673 27.8026C16.7723 30.7176 17.3198 33.7726 17.3198 33.7726L15.9448 35.6626Z" fill="#777777"/>
</svg>
