<svg width="16" height="16" viewBox="0 0 16 16" fill="none" xmlns="http://www.w3.org/2000/svg">
<path fill-rule="evenodd" clip-rule="evenodd" d="M1.33301 4.00065C1.33301 3.63246 1.63148 3.33398 1.99967 3.33398H13.9997C14.3679 3.33398 14.6663 3.63246 14.6663 4.00065C14.6663 4.36884 14.3679 4.66732 13.9997 4.66732H1.99967C1.63148 4.66732 1.33301 4.36884 1.33301 4.00065Z" fill="#F5B335"/>
<path fill-rule="evenodd" clip-rule="evenodd" d="M6.66699 1.99935C6.49018 1.99935 6.32061 2.06959 6.19559 2.19461C6.07056 2.31964 6.00033 2.4892 6.00033 2.66602V3.33268H10.0003V2.66602C10.0003 2.4892 9.93009 2.31964 9.80506 2.19461C9.68004 2.06959 9.51047 1.99935 9.33366 1.99935H6.66699ZM11.3337 3.33268V2.66602C11.3337 2.13558 11.1229 1.62687 10.7479 1.2518C10.3728 0.876729 9.86409 0.666016 9.33366 0.666016H6.66699C6.13656 0.666016 5.62785 0.876729 5.25278 1.2518C4.87771 1.62687 4.66699 2.13558 4.66699 2.66602V3.33268H3.33366C2.96547 3.33268 2.66699 3.63116 2.66699 3.99935V13.3327C2.66699 13.8631 2.87771 14.3718 3.25278 14.7469C3.62785 15.122 4.13656 15.3327 4.66699 15.3327H11.3337C11.8641 15.3327 12.3728 15.122 12.7479 14.7469C13.1229 14.3718 13.3337 13.8631 13.3337 13.3327V3.99935C13.3337 3.63116 13.0352 3.33268 12.667 3.33268H11.3337ZM4.00033 4.66602V13.3327C4.00033 13.5095 4.07056 13.6791 4.19559 13.8041C4.32061 13.9291 4.49018 13.9993 4.66699 13.9993H11.3337C11.5105 13.9993 11.68 13.9291 11.8051 13.8041C11.9301 13.6791 12.0003 13.5095 12.0003 13.3327V4.66602H4.00033Z" fill="#F5B335"/>
<path fill-rule="evenodd" clip-rule="evenodd" d="M6.66667 6.66602C7.03486 6.66602 7.33333 6.96449 7.33333 7.33268V11.3327C7.33333 11.7009 7.03486 11.9993 6.66667 11.9993C6.29848 11.9993 6 11.7009 6 11.3327V7.33268C6 6.96449 6.29848 6.66602 6.66667 6.66602Z" fill="#F5B335"/>
<path fill-rule="evenodd" clip-rule="evenodd" d="M9.33366 6.66602C9.70185 6.66602 10.0003 6.96449 10.0003 7.33268V11.3327C10.0003 11.7009 9.70185 11.9993 9.33366 11.9993C8.96547 11.9993 8.66699 11.7009 8.66699 11.3327V7.33268C8.66699 6.96449 8.96547 6.66602 9.33366 6.66602Z" fill="#F5B335"/>
</svg>
