<svg width="25" height="24" viewBox="0 0 25 24" fill="none" xmlns="http://www.w3.org/2000/svg">
<path d="M18.5002 8.3099C18.1402 7.8999 17.7702 7.4899 17.3802 7.0999L17.0902 6.8299L17.2302 6.7099C17.7192 6.29011 18.0677 5.73042 18.2286 5.10634C18.3896 4.48226 18.3552 3.82384 18.1302 3.2199C17.8041 2.53888 17.2878 1.96684 16.6436 1.57289C15.9994 1.17894 15.255 0.979928 14.5002 0.999904V2.9999C14.856 2.99495 15.2066 3.08501 15.516 3.2608C15.8254 3.43658 16.0823 3.69172 16.2602 3.9999C16.4302 4.3999 16.2602 4.8399 15.7902 5.3099C15.7202 5.3899 15.6402 5.4399 15.5702 5.5099C12.5702 3.0999 9.28017 1.7399 7.67017 3.3499C7.50152 3.5223 7.36294 3.72173 7.26017 3.9399V4.0399L7.08016 4.5699L2.67017 17.6699C2.50336 18.1636 2.45656 18.6899 2.53366 19.2052C2.61076 19.7206 2.80953 20.2101 3.11351 20.6333C3.41749 21.0566 3.81793 21.4013 4.28167 21.6389C4.7454 21.8766 5.25908 22.0003 5.78017 21.9999C6.1204 21.9966 6.45795 21.9392 6.78017 21.8299L20.5002 17.2799C20.6688 17.2171 20.8173 17.11 20.9302 16.9699L21.1402 16.7899C22.5702 15.3499 21.6502 12.5799 19.7302 9.8899C20.8702 9.22456 22.1829 8.91466 23.5002 8.9999V6.9999C21.7375 6.90292 19.9888 7.36108 18.5002 8.3099ZM6.20016 19.9299C5.97317 20.005 5.72976 20.0156 5.49712 19.9604C5.26447 19.9052 5.05173 19.7865 4.88266 19.6174C4.71359 19.4483 4.59483 19.2356 4.53965 19.003C4.48447 18.7703 4.49504 18.5269 4.57017 18.2999L5.93016 14.1999C6.90075 16.0508 8.39212 17.5769 10.2202 18.5899L6.20016 19.9299ZM13.2002 17.5999C11.6889 17.1997 10.3102 16.4071 9.2039 15.3025C8.09755 14.1979 7.3028 12.8205 6.90017 11.3099L7.90017 8.3099L7.96017 8.3999C8.07017 8.6199 8.21017 8.8499 8.35016 9.0799C8.49016 9.3099 8.51016 9.3699 8.61016 9.5199C8.71016 9.6699 8.94017 9.9999 9.12016 10.2499C9.30016 10.4999 9.31016 10.5299 9.42017 10.6699C9.53017 10.8099 9.85016 11.2199 10.0802 11.4899L10.3702 11.8399C10.7102 12.2299 11.0702 12.6099 11.4502 12.9999C11.8302 13.3899 12.1302 13.6399 12.4502 13.9999L12.7802 14.2799L13.5602 14.9099L13.9302 15.1899C14.2102 15.3899 14.4802 15.5899 14.7602 15.7699L15.0702 15.9699C15.4302 16.1899 15.7902 16.3999 16.1402 16.5799H16.1902L13.2002 17.5999ZM19.7102 15.3699H19.6502C18.9602 15.7499 16.0902 14.7999 12.8602 11.5599C12.5202 11.2199 12.2002 10.8899 11.9102 10.5599L11.6202 10.2099L11.0902 9.5699L10.8002 9.1699C10.6702 8.9799 10.5302 8.7999 10.4102 8.6199L10.1502 8.1999L9.86016 7.7299C9.78016 7.5899 9.72016 7.4599 9.65016 7.3299C9.58016 7.1999 9.50016 7.0699 9.44016 6.9299C9.38653 6.81273 9.33978 6.69253 9.30017 6.5699C9.25016 6.4399 9.19016 6.3099 9.15016 6.1899C9.11016 6.0699 9.10016 5.9999 9.07016 5.8799C9.04016 5.7599 9.02016 5.6599 9.00016 5.5599C8.99518 5.47331 8.99518 5.3865 9.00016 5.2999C8.99053 5.22019 8.99053 5.13961 9.00016 5.0599L9.11016 4.7499C9.47016 4.3899 11.3402 4.7499 13.8402 6.6499C13.4164 6.84117 12.9633 6.9595 12.5002 6.9999V8.9999C13.5624 8.9388 14.593 8.61588 15.5002 8.0599L15.9802 8.5199C16.4002 8.9399 16.7902 9.3699 17.1602 9.7999C16.5877 10.835 16.3766 12.0314 16.5602 13.1999L18.5602 12.8099C18.5012 12.4389 18.5012 12.0609 18.5602 11.6899C18.8654 12.1527 19.1361 12.6374 19.3702 13.1399C19.9302 14.4599 19.8902 15.1999 19.7102 15.3699Z" fill="white"/>
</svg>
