<svg width="65" height="64" viewBox="0 0 65 64" fill="none" xmlns="http://www.w3.org/2000/svg">
<rect x="0.5" width="64" height="64" rx="32" fill="#FC0000"/>
<g clip-path="url(#clip0_94_96680)">
<path d="M32.4987 18.6667C36.76 18.6667 40.4987 22.1573 40.4987 26.136C40.4987 30.26 37.1747 35.6453 32.4987 43.0173C27.8227 35.6453 24.4987 30.26 24.4987 26.136C24.4987 22.1573 28.2374 18.6667 32.4987 18.6667ZM32.4987 16C26.9014 16 21.832 20.5373 21.832 26.136C21.832 31.7333 26.4574 38.416 32.4987 48C38.54 38.416 43.1654 31.7333 43.1654 26.136C43.1654 20.5373 38.0974 16 32.4987 16V16ZM32.4987 30.6667C30.2894 30.6667 28.4987 28.876 28.4987 26.6667C28.4987 24.4573 30.2894 22.6667 32.4987 22.6667C34.708 22.6667 36.4987 24.4573 36.4987 26.6667C36.4987 28.876 34.708 30.6667 32.4987 30.6667Z" fill="white"/>
</g>
<defs>
<clipPath id="clip0_94_96680">
<rect width="32" height="32" fill="white" transform="translate(16.5 16)"/>
</clipPath>
</defs>
</svg>
