<svg width="106" height="117" viewBox="0 0 106 117" fill="none" xmlns="http://www.w3.org/2000/svg">
<g filter="url(#filter0_dd_257_74291)">
<circle cx="53" cy="51" r="37" fill="#939598"/>
</g>
<circle cx="53" cy="51" r="37" fill="#241F20"/>
<mask id="mask0_257_74291" style="mask-type:alpha" maskUnits="userSpaceOnUse" x="16" y="14" width="74" height="74">
<path d="M90 51C90 71.4345 73.4345 88 53 88C32.5655 88 16 71.4345 16 51C16 30.5655 32.5655 14 53 14C73.4345 14 90 30.5655 90 51Z" fill="#FC0000"/>
</mask>
<g mask="url(#mask0_257_74291)">
<path d="M51.9144 31.9747C88.3411 29.6192 125.351 89.3042 86.7538 177.412C65.6704 225.54 22.5124 208.887 -8.38457 179.778C-75.9567 116.116 -24.5374 105.149 6.61209 80.2123C29.953 61.5264 26.9953 33.5861 51.9144 31.9747Z" stroke="white" stroke-width="2" stroke-dasharray="4 4"/>
</g>
<path opacity="0.2" d="M53 4.5C49.0218 4.5 45.2064 6.08035 42.3934 8.8934C39.5804 11.7064 38 15.5218 38 19.5C38 33 53 43.5 53 43.5C53 43.5 68 33 68 19.5C68 15.5218 66.4196 11.7064 63.6066 8.8934C60.7936 6.08035 56.9782 4.5 53 4.5ZM53 25.5C51.8133 25.5 50.6533 25.1481 49.6666 24.4888C48.6799 23.8295 47.9108 22.8925 47.4567 21.7961C47.0026 20.6997 46.8838 19.4933 47.1153 18.3295C47.3468 17.1656 47.9182 16.0965 48.7574 15.2574C49.5965 14.4182 50.6656 13.8468 51.8295 13.6153C52.9933 13.3838 54.1997 13.5026 55.2961 13.9567C56.3925 14.4108 57.3295 15.1799 57.9888 16.1666C58.6481 17.1533 59 18.3133 59 19.5C59 21.0913 58.3679 22.6174 57.2426 23.7426C56.1174 24.8679 54.5913 25.5 53 25.5Z" fill="#FC0000"/>
<path d="M68 19.5C68 33 53 43.5 53 43.5C53 43.5 38 33 38 19.5C38 15.5218 39.5804 11.7064 42.3934 8.8934C45.2064 6.08035 49.0218 4.5 53 4.5C56.9782 4.5 60.7936 6.08035 63.6066 8.8934C66.4196 11.7064 68 15.5218 68 19.5Z" fill="#FC0000" stroke="#241F20" stroke-width="3" stroke-linecap="round" stroke-linejoin="round"/>
<path d="M53 25.5C56.3137 25.5 59 22.8137 59 19.5C59 16.1863 56.3137 13.5 53 13.5C49.6863 13.5 47 16.1863 47 19.5C47 22.8137 49.6863 25.5 53 25.5Z" fill="white" stroke="#241F20" stroke-width="2" stroke-linecap="round" stroke-linejoin="round"/>
<path d="M45.6386 54.8C45.6386 52.292 43.9466 50.48 41.4986 50.48C39.0506 50.48 37.3586 52.292 37.3586 54.8C37.3586 57.308 39.0506 59.12 41.4986 59.12C43.9466 59.12 45.6386 57.308 45.6386 54.8ZM39.4466 54.8C39.4466 53.3 40.2386 52.22 41.4986 52.22C42.7586 52.22 43.5506 53.3 43.5506 54.8C43.5506 56.3 42.7586 57.38 41.4986 57.38C40.2386 57.38 39.4466 56.3 39.4466 54.8ZM46.6232 59H48.4832V56.216C48.4832 55.136 48.9152 54.632 49.8872 54.632H50.4032V52.664H50.0792C49.3232 52.664 48.7232 53.108 48.4472 53.744H48.4232V52.772H46.6232V59ZM55.2255 53.276H55.1895C54.8415 52.88 54.2415 52.64 53.6175 52.64C51.9975 52.64 50.8815 54.02 50.8815 55.88C50.8815 57.752 51.9975 59.132 53.6175 59.132C54.2415 59.132 54.8535 58.88 55.2015 58.496H55.2255V59H57.0855V50.6H55.2255V53.276ZM54.0375 57.512C53.2455 57.512 52.7655 56.888 52.7655 55.88C52.7655 54.872 53.2455 54.26 54.0375 54.26C54.7815 54.26 55.2255 54.764 55.2255 55.58V56.192C55.2255 57.008 54.7815 57.512 54.0375 57.512ZM61.244 59.12C62.276 59.12 63.14 58.82 63.824 58.196L62.756 56.924C62.42 57.272 61.868 57.512 61.376 57.512C60.632 57.512 60.056 57.068 60.008 56.432H64.088V55.832C64.088 53.996 62.924 52.64 61.148 52.64C59.372 52.64 58.1 54.044 58.1 55.952C58.1 57.848 59.456 59.12 61.244 59.12ZM60.02 55.22C60.116 54.656 60.5 54.2 61.172 54.2C61.844 54.2 62.204 54.632 62.252 55.22H60.02ZM65.0802 59H66.9402V56.216C66.9402 55.136 67.3722 54.632 68.3442 54.632H68.8602V52.664H68.5362C67.7802 52.664 67.1802 53.108 66.9042 53.744H66.8802V52.772H65.0802V59ZM34.8911 73H36.9071V66.388H39.3671V64.6H32.4311V66.388H34.8911V73ZM39.3107 73H41.1707V70.216C41.1707 69.136 41.6027 68.632 42.5747 68.632H43.0907V66.664H42.7667C42.0107 66.664 41.4107 67.108 41.1347 67.744H41.1107V66.772H39.3107V73ZM44.3959 68.728C45.0679 68.428 45.6799 68.212 46.3159 68.212C46.8559 68.212 47.1199 68.44 47.1199 68.884V69.148L45.6679 69.304C44.3119 69.448 43.5679 70.108 43.5679 71.164C43.5679 72.328 44.5039 73.132 45.7639 73.132C46.5199 73.132 47.0959 72.904 47.4799 72.46H47.5039C47.7439 72.892 48.2599 73.144 48.8479 73.144L49.5799 71.86C49.1599 71.776 48.9799 71.572 48.9799 71.188V68.572C48.9799 67.372 48.1159 66.64 46.6279 66.64C45.4039 66.64 44.5399 66.94 43.6519 67.384L44.3959 68.728ZM47.1199 70.336V70.924C47.1199 71.428 46.7479 71.788 46.1719 71.788C45.7039 71.788 45.4399 71.488 45.4399 71.152C45.4399 70.816 45.6919 70.564 46.1359 70.492L47.1199 70.336ZM51.98 69.892C51.98 68.872 52.472 68.26 53.24 68.26C53.756 68.26 54.14 68.524 54.344 69.04L55.904 68.284C55.388 67.216 54.44 66.64 53.168 66.64C51.32 66.64 50.096 67.984 50.096 69.892C50.096 71.776 51.32 73.12 53.168 73.12C54.44 73.12 55.388 72.544 55.904 71.488L54.344 70.732C54.14 71.248 53.756 71.512 53.24 71.512C52.448 71.512 51.98 70.876 51.98 69.892ZM56.8068 73H58.6668V71.2L59.1708 70.54L60.6228 73H62.8428L60.5868 69.292L62.6388 66.772H60.4548L58.6908 69.064H58.6668V64.6H56.8068V73ZM65.9315 73.12C66.9635 73.12 67.8275 72.82 68.5115 72.196L67.4435 70.924C67.1075 71.272 66.5555 71.512 66.0635 71.512C65.3195 71.512 64.7435 71.068 64.6955 70.432H68.7755V69.832C68.7755 67.996 67.6115 66.64 65.8355 66.64C64.0595 66.64 62.7875 68.044 62.7875 69.952C62.7875 71.848 64.1435 73.12 65.9315 73.12ZM64.7075 69.22C64.8035 68.656 65.1875 68.2 65.8595 68.2C66.5315 68.2 66.8915 68.632 66.9395 69.22H64.7075ZM69.7677 73H71.6277V70.216C71.6277 69.136 72.0597 68.632 73.0317 68.632H73.5477V66.664H73.2237C72.4677 66.664 71.8677 67.108 71.5917 67.744H71.5677V66.772H69.7677V73Z" fill="white"/>
<defs>
<filter id="filter0_dd_257_74291" x="0" y="11" width="106" height="106" filterUnits="userSpaceOnUse" color-interpolation-filters="sRGB">
<feFlood flood-opacity="0" result="BackgroundImageFix"/>
<feColorMatrix in="SourceAlpha" type="matrix" values="0 0 0 0 0 0 0 0 0 0 0 0 0 0 0 0 0 0 127 0" result="hardAlpha"/>
<feOffset dy="1"/>
<feGaussianBlur stdDeviation="2"/>
<feComposite in2="hardAlpha" operator="out"/>
<feColorMatrix type="matrix" values="0 0 0 0 0.0588235 0 0 0 0 0.0431373 0 0 0 0 0.0431373 0 0 0 0.24 0"/>
<feBlend mode="normal" in2="BackgroundImageFix" result="effect1_dropShadow_257_74291"/>
<feColorMatrix in="SourceAlpha" type="matrix" values="0 0 0 0 0 0 0 0 0 0 0 0 0 0 0 0 0 0 127 0" result="hardAlpha"/>
<feOffset dy="13"/>
<feGaussianBlur stdDeviation="8"/>
<feComposite in2="hardAlpha" operator="out"/>
<feColorMatrix type="matrix" values="0 0 0 0 0.0583333 0 0 0 0 0.0449653 0 0 0 0 0.0449653 0 0 0 0.25 0"/>
<feBlend mode="multiply" in2="effect1_dropShadow_257_74291" result="effect2_dropShadow_257_74291"/>
<feBlend mode="normal" in="SourceGraphic" in2="effect2_dropShadow_257_74291" result="shape"/>
</filter>
</defs>
</svg>
