<svg width="24" height="24" viewBox="0 0 24 24" fill="none" xmlns="http://www.w3.org/2000/svg">
<path d="M12.0011 8.87531C10.2808 8.87531 8.87687 10.2792 8.87687 11.9995C8.87687 13.7198 10.2808 15.1237 12.0011 15.1237C13.7214 15.1237 15.1253 13.7198 15.1253 11.9995C15.1253 10.2792 13.7214 8.87531 12.0011 8.87531ZM21.3714 11.9995C21.3714 10.7058 21.3831 9.42374 21.3105 8.13234C21.2378 6.63234 20.8956 5.30109 19.7987 4.20421C18.6995 3.10499 17.3706 2.76515 15.8706 2.69249C14.5769 2.61984 13.2948 2.63156 12.0034 2.63156C10.7097 2.63156 9.42765 2.61984 8.13624 2.69249C6.63624 2.76515 5.30499 3.10734 4.20812 4.20421C3.1089 5.30343 2.76906 6.63234 2.6964 8.13234C2.62374 9.42609 2.63546 10.7081 2.63546 11.9995C2.63546 13.2909 2.62374 14.5753 2.6964 15.8667C2.76906 17.3667 3.11124 18.698 4.20812 19.7948C5.30734 20.8941 6.63624 21.2339 8.13624 21.3066C9.42999 21.3792 10.712 21.3675 12.0034 21.3675C13.2972 21.3675 14.5792 21.3792 15.8706 21.3066C17.3706 21.2339 18.7019 20.8917 19.7987 19.7948C20.898 18.6956 21.2378 17.3667 21.3105 15.8667C21.3855 14.5753 21.3714 13.2933 21.3714 11.9995ZM12.0011 16.8066C9.34093 16.8066 7.19406 14.6597 7.19406 11.9995C7.19406 9.33937 9.34093 7.19249 12.0011 7.19249C14.6612 7.19249 16.8081 9.33937 16.8081 11.9995C16.8081 14.6597 14.6612 16.8066 12.0011 16.8066ZM17.005 8.11827C16.3839 8.11827 15.8823 7.61671 15.8823 6.99562C15.8823 6.37453 16.3839 5.87296 17.005 5.87296C17.6261 5.87296 18.1277 6.37453 18.1277 6.99562C18.1278 7.1431 18.0989 7.28917 18.0426 7.42546C17.9862 7.56175 17.9035 7.68558 17.7992 7.78987C17.695 7.89415 17.5711 7.97684 17.4348 8.0332C17.2985 8.08955 17.1525 8.11846 17.005 8.11827Z" fill="white"/>
</svg>
