<svg width="64" height="64" viewBox="0 0 64 64" fill="none" xmlns="http://www.w3.org/2000/svg">
<rect width="64" height="64" rx="32" fill="#F26522"/>
<g clip-path="url(#clip0_1_21726)">
<path d="M31.9999 18.6667C36.2613 18.6667 39.9999 22.1573 39.9999 26.136C39.9999 30.26 36.6759 35.6453 31.9999 43.0173C27.3239 35.6453 23.9999 30.26 23.9999 26.136C23.9999 22.1573 27.7386 18.6667 31.9999 18.6667ZM31.9999 16C26.4026 16 21.3333 20.5373 21.3333 26.136C21.3333 31.7333 25.9586 38.416 31.9999 48C38.0413 38.416 42.6666 31.7333 42.6666 26.136C42.6666 20.5373 37.5986 16 31.9999 16V16ZM31.9999 30.6667C29.7906 30.6667 27.9999 28.876 27.9999 26.6667C27.9999 24.4573 29.7906 22.6667 31.9999 22.6667C34.2093 22.6667 35.9999 24.4573 35.9999 26.6667C35.9999 28.876 34.2093 30.6667 31.9999 30.6667Z" fill="white"/>
</g>
<defs>
<clipPath id="clip0_1_21726">
<rect width="32" height="32" fill="white" transform="translate(16 16)"/>
</clipPath>
</defs>
</svg>
