<svg width="32" height="32" viewBox="0 0 32 32" fill="none" xmlns="http://www.w3.org/2000/svg">
<g clip-path="url(#clip0_1_5779)">
<path d="M28.2976 5.35514L26.6977 4.606L26.0577 4.30366L25.4995 4.04163L25.0297 3.81991L22.5958 2.671L22.126 2.44928L21.4043 2.11335L21.3465 2.08648H21.3192C21.1899 2.02265 21.0469 1.96218 20.8971 1.89835C20.5567 1.76398 20.2402 1.63968 19.9031 1.53218C19.784 1.49187 19.6649 1.45491 19.5423 1.42132C19.4198 1.38773 19.2019 1.32726 19.0385 1.28695L18.7321 1.21304C18.453 1.15257 18.1739 1.09882 17.8913 1.05515L17.6054 1.0182L17.265 0.977891L17.0029 0.954373C16.7373 0.930858 16.4786 0.917422 16.2233 0.914062H15.9748H15.7263C15.6514 0.914062 15.5799 0.914062 15.5016 0.914062C15.2497 0.914062 15.0013 0.937573 14.7528 0.961088L14.5315 0.984606L14.3545 1.00476L14.1604 1.03163C13.9119 1.06859 13.6668 1.1089 13.4251 1.15929L13.2243 1.20296L13.1052 1.22984C13.0451 1.24003 12.986 1.25462 12.9281 1.27351C12.6899 1.33062 12.4482 1.39781 12.2133 1.47172L12.0261 1.52882L11.9614 1.54898L11.7946 1.60609C11.5631 1.68336 11.3282 1.77405 11.0934 1.87147L10.9197 1.94538L10.7597 2.01593L10.5623 2.10663L10.0653 2.34179L9.8951 2.41905L8.9794 2.84233L8.8126 2.9196L7.95817 3.31937L7.79138 3.39999L6.93695 3.80647L6.77356 3.88709L5.90211 4.29358L5.73529 4.37084L4.86725 4.78068L4.70045 4.85795L3.83241 5.2678L3.66562 5.34507H3.64179C3.60107 5.36324 3.56129 5.38341 3.52263 5.40553C3.29276 5.52018 3.07596 5.65869 2.87587 5.81873L2.83502 5.84897L2.73969 5.92959L2.71927 5.94975C2.51432 6.1243 2.33043 6.32156 2.17122 6.53764L2.13037 6.58803L2.0793 6.65522L2.02825 6.73248C1.89421 6.93863 1.78023 7.15685 1.68784 7.38419C1.66742 7.43458 1.64699 7.48497 1.62657 7.54208C1.62511 7.55548 1.62511 7.569 1.62657 7.58239L1.56528 7.7638C1.49974 7.98332 1.45419 8.20817 1.42913 8.43568C1.41811 8.5057 1.41243 8.57645 1.41211 8.64732C1.41211 8.72122 1.41211 8.79178 1.41211 8.86232V23.1262C1.41211 23.2303 1.41211 23.3277 1.41211 23.4252C1.41211 23.5226 1.42911 23.5898 1.43933 23.6637C1.45688 23.7973 1.48305 23.9297 1.51764 24.0601C1.54529 24.1739 1.57938 24.286 1.61975 24.396C1.93603 25.2822 2.56094 26.0286 3.38307 26.5023L3.50221 26.5662L3.6588 26.6434L4.11835 26.8584H4.13879L5.16002 27.3321L5.44595 27.4665L6.46718 27.9502L8.54367 28.9245L10.5623 29.8718C10.7598 29.9658 10.964 30.0532 11.1682 30.1372C11.301 30.1943 11.4338 30.2447 11.5597 30.2884C12.1285 30.5001 12.7121 30.6708 13.306 30.799L13.6056 30.8594C16.2553 31.3644 18.9992 31.0183 21.435 29.8718L28.3351 26.63C28.4832 26.5611 28.6265 26.4826 28.764 26.3948C29.1904 26.1325 29.5605 25.7901 29.8533 25.387C29.887 25.3444 29.9177 25.2995 29.9452 25.2527C30.0476 25.1021 30.1375 24.9437 30.2141 24.779C30.2414 24.7252 30.2652 24.6715 30.289 24.6144C30.3574 24.4562 30.4143 24.2934 30.4592 24.1273C30.4592 24.0668 30.4899 24.0063 30.5069 23.9391C30.5239 23.872 30.5409 23.7544 30.558 23.6536C30.5745 23.5423 30.5847 23.4301 30.5886 23.3177C30.5886 23.2538 30.5886 23.19 30.5886 23.1262V8.88919C30.5848 8.14655 30.3675 7.42023 29.9619 6.79463C29.5564 6.16904 28.9793 5.66987 28.2976 5.35514Z" fill="#FFC20E"/>
<path d="M28.8319 4.58898L27.3701 3.90602L26.7154 3.6021L21.8068 1.29712L21.7133 1.2459C21.5678 1.1776 21.4153 1.10931 21.256 1.04443C20.614 0.775028 19.9514 0.555801 19.2746 0.388783L18.9281 0.310249C18.4092 0.197265 17.8841 0.114028 17.3554 0.0609655L17.0749 0.0336518C16.7284 0.00633344 16.3509 -0.0107422 16.0079 -0.0107422H15.7204H15.471C15.0622 -0.0107422 14.65 0.0370574 14.2551 0.0882793L14.0299 0.119022C13.6489 0.173658 13.2748 0.245364 12.9249 0.327319L12.7171 0.375131C12.3707 0.457086 12.0242 0.556107 11.7021 0.66538L11.5081 0.730262C11.1963 0.83612 10.8811 0.96247 10.5659 1.09565L10.3892 1.17419L10.171 1.27321L9.49893 1.58738L9.32919 1.66933L8.44586 2.08253L8.27612 2.16448L7.41355 2.61182L7.24381 2.69036L6.36048 3.10696L6.18727 3.1855L5.30394 3.5987L5.1342 3.68065L4.25087 4.09383L4.08111 4.17579L3.19431 4.58898H3.16661L3.02804 4.66069C2.73904 4.80654 2.46622 4.98163 2.21399 5.18315L2.07542 5.30267C1.83754 5.50698 1.62269 5.73595 1.43457 5.98563C1.39647 6.03344 1.35836 6.08124 1.32372 6.13246C1.13636 6.40214 0.978446 6.69058 0.852612 6.99299L0.779859 7.17739C0.652487 7.52358 0.567598 7.88356 0.526988 8.24964C0.526988 8.33159 0.526971 8.41013 0.509651 8.48184C0.492331 8.55355 0.509651 8.656 0.509651 8.74137V23.2406C0.509651 23.3635 0.509651 23.4796 0.509651 23.5821C0.509651 23.6845 0.530445 23.7767 0.540837 23.8655C0.641004 24.5598 0.899753 25.2227 1.29759 25.8042C1.69542 26.3857 2.22197 26.8705 2.83752 27.2222C2.93451 27.2803 3.03844 27.3315 3.16314 27.393L4.51759 28.0281L4.65963 28.093L4.80511 28.1647L5.68151 28.5745L5.85471 28.6564L10.1883 30.6882C10.3996 30.7873 10.6178 30.8829 10.8361 30.9717C10.9781 31.0297 11.1201 31.0843 11.2552 31.1322C11.8629 31.359 12.4871 31.5405 13.1224 31.6751C13.2263 31.699 13.3337 31.7229 13.441 31.74C16.2708 32.2805 19.2019 31.9119 21.8033 30.6882L28.8285 27.393C29.6022 27.0294 30.26 26.4637 30.7302 25.7573C31.0047 25.3489 31.2094 24.899 31.3365 24.4255C31.3572 24.3504 31.3746 24.2753 31.3919 24.2035C31.4092 24.1318 31.4334 23.9816 31.4508 23.8621C31.4813 23.6517 31.4963 23.4394 31.4958 23.2269V8.75844C31.4945 7.88683 31.2439 7.03326 30.7727 6.29574C30.3015 5.55822 29.6288 4.96666 28.8319 4.58898ZM31.0663 23.2508C31.0662 23.4428 31.0523 23.6345 31.0247 23.8245C31.0247 23.8416 31.0247 23.8586 31.0247 23.8757C31.0247 23.9645 30.9935 24.0499 30.9762 24.1284C30.9589 24.207 30.9485 24.2684 30.9312 24.3333C30.8691 24.5544 30.7892 24.7702 30.6921 24.9787L30.6679 25.0333C30.5832 25.2077 30.4871 25.3765 30.3804 25.5387C30.3627 25.5663 30.343 25.5925 30.3215 25.6173C30.0039 26.0773 29.5935 26.4679 29.116 26.7646C28.9704 26.8603 28.8175 26.9448 28.6587 27.0173L21.6336 30.316C19.1183 31.4987 16.2853 31.8576 13.5484 31.3405L13.2367 31.2756C12.6227 31.1446 12.0194 30.9688 11.4319 30.7497C11.3003 30.7053 11.1651 30.6541 11.03 30.596C10.8153 30.5073 10.604 30.4185 10.403 30.3228L8.25878 29.3155L6.18034 28.3354L5.14112 27.8437L4.85361 27.7071L3.81439 27.2256L3.39176 27.0242C3.31463 26.9908 3.23947 26.9532 3.16661 26.9115L3.09733 26.8739C2.60419 26.5912 2.17334 26.2141 1.8301 25.7649C1.48685 25.3157 1.23813 24.8035 1.09855 24.2582C1.0743 24.1557 1.05351 24.0499 1.03273 23.944C1.03273 23.9065 1.03273 23.8689 1.01541 23.8347C0.998093 23.8006 0.994623 23.6674 0.987695 23.5752C0.980767 23.483 0.987695 23.3703 0.987695 23.2576V8.75844C0.987695 8.69356 0.987695 8.62868 0.987695 8.56379C0.986137 8.55132 0.986137 8.53871 0.987695 8.52624C0.983991 8.45457 0.983991 8.38277 0.987695 8.3111C1.01728 8.02669 1.07767 7.74621 1.16783 7.47447C1.16783 7.43008 1.19901 7.3857 1.21287 7.3413L1.23365 7.29349L1.27869 7.17056C1.38794 6.91629 1.52131 6.67275 1.67704 6.44321C1.68538 6.42606 1.69586 6.41 1.70823 6.3954C1.73018 6.36081 1.75449 6.32773 1.78098 6.29638L1.80176 6.26565C1.97386 6.03642 2.1701 5.8258 2.38719 5.63732L2.50149 5.5417H2.52228C2.73662 5.36705 2.96881 5.21485 3.21509 5.08754L3.30516 5.04315L3.35366 5.00217L3.39176 4.9851L3.4853 4.94071L4.36517 4.52751L4.53837 4.44556L5.42171 4.03237L5.59146 3.95383L6.4748 3.53722L6.64453 3.45869L7.52787 3.04549L7.6976 2.96354L8.58096 2.55035L8.7507 2.46839L9.6375 2.0552L9.80723 1.97325L10.3823 1.7069L10.5867 1.61128L10.694 1.56347L10.7529 1.53616L10.8672 1.48835C11.1374 1.37566 11.4076 1.27322 11.6709 1.18443L11.8129 1.13322H11.8476L12.0034 1.08198C12.2771 0.9932 12.5612 0.914659 12.8418 0.846363L13.0219 0.80198L13.2159 0.757586C13.5034 0.69612 13.8013 0.64489 14.0992 0.600498L14.3105 0.573184H14.3313L14.553 0.54587C14.8648 0.511723 15.18 0.491233 15.4918 0.480989C15.5749 0.480989 15.6511 0.480989 15.7273 0.480989H16.0287C16.3751 0.480989 16.7007 0.498064 17.0472 0.525383L17.3173 0.549278H17.4143L17.6984 0.583428C18.0794 0.63465 18.4605 0.699537 18.8381 0.781492C18.942 0.805395 19.0494 0.829292 19.1568 0.860025L19.3265 0.901001L19.6729 0.996615C20.1513 1.13404 20.6209 1.29939 21.0793 1.49176C21.2317 1.55323 21.3807 1.61811 21.5193 1.68299L21.5851 1.71372L21.8033 1.81276L22.2814 2.03813L24.772 3.20599L25.2501 3.43136L26.4036 3.97431L27.0549 4.27823L28.6414 5.00217C29.3623 5.34103 29.972 5.87296 30.4008 6.53719C30.8296 7.20142 31.0602 7.97115 31.0663 8.75844V23.2508Z" fill="#FFC20F"/>
<g clip-path="url(#clip1_1_5779)">
<path d="M24.9555 17.0328L21.8937 15.1135V13.2313C21.8937 12.8392 21.5302 12.5172 21.0838 12.5172C20.6374 12.5172 20.2739 12.835 20.2739 13.2313V14.0981L16.8328 11.9394C16.3745 11.6504 15.6279 11.6504 15.1696 11.9394L7.04293 17.0328C6.58465 17.3217 6.58465 17.7881 7.04293 18.0729H8.4968C8.4889 18.1142 8.48495 18.1596 8.48495 18.205V21.5236C8.48495 22.1386 9.27904 22.638 10.2628 22.638H21.8858C22.8656 22.638 23.6636 22.1386 23.6636 21.5236V18.205C23.6636 18.1596 23.6557 18.1183 23.6478 18.0729H24.9516C25.4138 17.784 25.4138 17.3176 24.9555 17.0328ZM15.4066 20.6774L10.5709 20.8756C10.1798 20.8921 9.86375 20.5701 9.86375 20.1656V19.014C9.86375 18.6095 10.1521 18.1349 10.5038 17.9615L15.3118 15.617C15.6634 15.4437 15.9637 15.6335 15.9755 16.0422L16.094 19.9097C16.1059 20.3183 15.7938 20.6609 15.4066 20.6774Z" fill="white"/>
<path d="M20.3807 5.6773C20.9378 5.26867 21.155 5.45853 20.8627 6.10244C20.8627 6.10244 20.3847 7.17148 22.1506 8.00938C23.7823 8.78536 21.2696 12.4176 21.2696 12.4176C19.8197 11.6004 21.9768 10.1186 19.8237 8.52945C18.1999 7.3242 20.3807 5.6773 20.3807 5.6773Z" fill="white"/>
</g>
</g>
<defs>
<clipPath id="clip0_1_5779">
<rect width="31" height="32" fill="white" transform="translate(0.5)"/>
</clipPath>
<clipPath id="clip1_1_5779">
<rect width="18.6" height="17.1707" fill="white" transform="translate(6.69922 5.46289)"/>
</clipPath>
</defs>
</svg>
