<svg width="24" height="24" viewBox="0 0 24 24" fill="none" xmlns="http://www.w3.org/2000/svg">
<path d="M20.8125 14.8501L16.4156 12.9751C16.1888 12.8734 15.9397 12.8313 15.692 12.8526C15.4443 12.8739 15.2061 12.958 15 13.097L12.6469 14.6626C11.2127 13.9661 10.0516 12.8115 9.34687 11.3814L10.9031 9.00013C11.0412 8.79376 11.1255 8.55619 11.1484 8.30897C11.1713 8.06176 11.1321 7.81273 11.0344 7.5845L9.15 3.18763C9.01851 2.89074 8.79586 2.64345 8.51435 2.48162C8.23284 2.31979 7.90711 2.25185 7.58437 2.28763C6.31837 2.45348 5.15566 3.07342 4.31243 4.03218C3.46919 4.99095 3.00281 6.22331 3 7.50013C3 14.9439 9.05625 21.0001 16.5 21.0001C17.7768 20.9973 19.0092 20.5309 19.9679 19.6877C20.9267 18.8445 21.5467 17.6818 21.7125 16.4158C21.7483 16.093 21.6803 15.7673 21.5185 15.4858C21.3567 15.2043 21.1094 14.9816 20.8125 14.8501Z" fill="#FFCC00"/>
</svg>
