<svg width="24" height="25" viewBox="0 0 24 25" fill="none" xmlns="http://www.w3.org/2000/svg">
<path d="M11.9995 19.3905C12.4365 19.3905 13.4785 18.2035 14.4105 16.0785C15.3565 13.9245 15.9995 11.2645 15.9995 9.7435C15.9995 7.3145 14.1825 5.3905 11.9995 5.3905C9.81651 5.3905 7.99951 7.3145 7.99951 9.7435C7.99951 11.2635 8.64251 13.9245 9.58851 16.0785C10.5195 18.2035 11.5625 19.3905 11.9995 19.3905ZM11.9995 21.3905C8.68551 21.3905 5.99951 13.2525 5.99951 9.7435C5.99951 6.2345 8.68551 3.3905 11.9995 3.3905C15.3135 3.3905 17.9995 6.2345 17.9995 9.7435C17.9995 13.2525 15.3135 21.3905 11.9995 21.3905ZM11.9995 11.3905C12.5299 11.3905 13.0387 11.1798 13.4137 10.8047C13.7888 10.4296 13.9995 9.92094 13.9995 9.3905C13.9995 8.86007 13.7888 8.35136 13.4137 7.97629C13.0387 7.60122 12.5299 7.3905 11.9995 7.3905C11.4691 7.3905 10.9604 7.60122 10.5853 7.97629C10.2102 8.35136 9.99951 8.86007 9.99951 9.3905C9.99951 9.92094 10.2102 10.4296 10.5853 10.8047C10.9604 11.1798 11.4691 11.3905 11.9995 11.3905Z" fill="white"/>
</svg>
