<svg width="25" height="25" viewBox="0 0 25 25" fill="none" xmlns="http://www.w3.org/2000/svg">
<path d="M19.6665 7.3905C19.6665 6.2905 18.7665 5.3905 17.6665 5.3905H15.6665C15.1165 5.3905 14.6665 5.8405 14.6665 6.3905C14.6665 6.9405 15.1165 7.3905 15.6665 7.3905H17.6665V10.0405L14.1865 14.3905H10.6665V10.3905C10.6665 9.8405 10.2165 9.3905 9.66651 9.3905H6.66651C4.4565 9.3905 2.6665 11.1805 2.6665 13.3905V15.3905C2.6665 15.9405 3.1165 16.3905 3.6665 16.3905H4.6665C4.6665 18.0505 6.00651 19.3905 7.66651 19.3905C9.32651 19.3905 10.6665 18.0505 10.6665 16.3905H14.1865C14.7965 16.3905 15.3665 16.1105 15.7465 15.6405L19.2265 11.2905C19.5165 10.9305 19.6665 10.4905 19.6665 10.0405V7.3905ZM7.66651 17.3905C7.11651 17.3905 6.66651 16.9405 6.66651 16.3905H8.66651C8.66651 16.9405 8.21651 17.3905 7.66651 17.3905Z" fill="white"/>
<path d="M6.6665 6.3905H9.6665C10.2165 6.3905 10.6665 6.8405 10.6665 7.3905C10.6665 7.9405 10.2165 8.3905 9.6665 8.3905H6.6665C6.1165 8.3905 5.6665 7.9405 5.6665 7.3905C5.6665 6.8405 6.1165 6.3905 6.6665 6.3905ZM19.6665 13.3905C18.0065 13.3905 16.6665 14.7305 16.6665 16.3905C16.6665 18.0505 18.0065 19.3905 19.6665 19.3905C21.3265 19.3905 22.6665 18.0505 22.6665 16.3905C22.6665 14.7305 21.3265 13.3905 19.6665 13.3905ZM19.6665 17.3905C19.1165 17.3905 18.6665 16.9405 18.6665 16.3905C18.6665 15.8405 19.1165 15.3905 19.6665 15.3905C20.2165 15.3905 20.6665 15.8405 20.6665 16.3905C20.6665 16.9405 20.2165 17.3905 19.6665 17.3905Z" fill="white"/>
</svg>
